<?xml version="1.0" encoding="UTF-8"?> <!-- Creator: CorelDRAW 2018 (64-Bit) --> <svg xmlns="http://www.w3.org/2000/svg" xmlns:xlink="http://www.w3.org/1999/xlink" xml:space="preserve" width="267px" height="267px" style="shape-rendering:geometricPrecision; text-rendering:geometricPrecision; image-rendering:optimizeQuality; fill-rule:evenodd; clip-rule:evenodd" viewBox="0 0 10.93 10.93"> <defs> <style type="text/css"> <![CDATA[ .str0 {stroke:black;stroke-width:0.34;stroke-linecap:round;stroke-linejoin:round;stroke-miterlimit:4} .str1 {stroke:black;stroke-width:0.34;stroke-linecap:round;stroke-linejoin:round;stroke-miterlimit:4;stroke-dasharray:0.330000 0.530000} .fil0 {fill:none;fill-rule:nonzero} ]]> </style> </defs> <g id="Слой_x0020_1"> <metadata id="CorelCorpID_0Corel-Layer"></metadata> <polyline class="fil0 str0" points="8.88,7.19 10.25,7.17 10.25,5.47 9.4,5.47 "></polyline> <line class="fil0 str0" x1="2.22" y1="5.81" x2="2.22" y2="7"></line> <polygon class="fil0 str0" points="0.85,8.71 8.88,8.71 8.88,7 0.85,7 "></polygon> <polygon class="fil0 str0" points="0.85,5.3 8.88,5.3 8.88,3.59 0.85,3.59 "></polygon> <polyline class="fil0 str0" points="8.88,3.77 10.25,3.77 10.25,2.05 9.45,2.05 "></polyline> <line class="fil0 str0" x1="2.22" y1="2.39" x2="2.22" y2="3.59"></line> <polyline class="fil0 str0" points="10.25,10.08 10.25,9.05 9.4,9.05 "></polyline> <line class="fil0 str0" x1="1.55" y1="10.76" x2="9.46" y2="10.76"></line> <line class="fil0 str0" x1="10.76" y1="0.17" x2="0.17" y2="0.17"></line> <path class="fil0 str0" d="M8.88 10.08c0,0.34 0.34,0.68 0.7,0.68 0.34,0 0.67,-0.34 0.67,-0.68"></path> <line class="fil0 str0" x1="2.22" y1="10.08" x2="2.22" y2="9.22"></line> <path class="fil0 str0" d="M0.85 10.08c0,0.34 0.35,0.68 0.7,0.68 0.34,0 0.67,-0.34 0.67,-0.68"></path> <polyline class="fil0 str0" points="0.85,0.68 0.85,1.88 8.88,1.88 8.88,0.68 "></polyline> <line class="fil0 str1" x1="0.85" y1="0.85" x2="0.85" y2="10.08"></line> <line class="fil0 str1" x1="10.25" y1="1.02" x2="10.25" y2="9.05"></line> </g> </svg> 