<?xml version="1.0" encoding="UTF-8"?> <!-- Creator: CorelDRAW 2018 (64-Bit) --> <svg xmlns="http://www.w3.org/2000/svg" xmlns:xlink="http://www.w3.org/1999/xlink" xml:space="preserve" width="300px" height="317px" style="shape-rendering:geometricPrecision; text-rendering:geometricPrecision; image-rendering:optimizeQuality; fill-rule:evenodd; clip-rule:evenodd" viewBox="0 0 25.49 26.98"> <defs> <style type="text/css"> <![CDATA[ .fil0 {fill:black} ]]> </style> </defs> <g id="Слой_x0020_1"> <metadata id="CorelCorpID_0Corel-Layer"></metadata> <g id="_1012415712"> <path class="fil0" d="M15.1 18.19c0.26,0.09 0.77,0.52 0.93,0.68 0.9,0.89 1.35,2.27 1.03,3.6 -0.29,1.25 -1.14,2.21 -2.19,2.67 -0.27,0.12 -0.95,0.34 -1.28,0.32 -0.2,0.08 -0.82,-0.01 -1.05,-0.06 -2.11,-0.43 -3.51,-2.5 -3.02,-4.67 0.28,-1.23 1.07,-2.05 1.97,-2.55 0.47,-0.26 1.18,-0.45 1.82,-0.45 0.34,0.01 0.67,0.05 0.98,0.14 0.15,0.04 0.67,0.21 0.81,0.32zm-11.5 6.11c-0.39,-0.12 -1.03,-0.72 -1.29,-1.06 -1.04,-1.34 -1.11,-3.26 -0.08,-4.66 0.15,-0.2 0.2,-0.24 0.36,-0.41 0.46,-0.5 1.11,-0.9 1.99,-1.1 0.98,-0.17 1.75,-0.06 2.54,0.34 0.36,0.19 0.63,0.39 0.89,0.62 0.14,0.12 0.57,0.61 0.66,0.84 -0.07,0.18 -0.17,0.32 -0.25,0.51 -0.08,0.17 -0.15,0.35 -0.21,0.54 -0.29,0.87 -0.35,1.76 -0.19,2.66 0.18,0.98 0.36,0.74 0.04,1.06 -0.84,0.82 -2.09,1.25 -3.37,1.03 -0.29,-0.05 -0.89,-0.22 -1.09,-0.37zm4.24 -8.19c-0.12,-0.16 -1.09,-0.44 -1.33,-0.49 -1.66,-0.37 -3.22,0.06 -4.49,1.04l-0.82 0.8c-0.38,0.43 -0.79,1.22 -0.97,1.8 -0.45,1.47 -0.25,3.21 0.6,4.48 0.19,0.28 0.37,0.54 0.61,0.78 0.61,0.61 1.1,0.99 1.92,1.33 0.89,0.35 2.07,0.51 3.19,0.25 0.49,-0.12 0.95,-0.28 1.35,-0.5l0.96 -0.67c0.05,-0.04 0.08,-0.07 0.15,-0.09 0.09,0.13 0.15,0.2 0.26,0.31 0.05,0.06 0.07,0.1 0.13,0.16 1.2,1.19 2.68,1.82 4.46,1.63 0.8,-0.08 1.52,-0.32 2.19,-0.72 0.62,-0.37 1.12,-0.84 1.55,-1.41 0.17,-0.22 0.33,-0.47 0.46,-0.73 0.28,-0.56 0.46,-1.04 0.56,-1.79 0.07,-0.52 0.04,-1.68 -0.15,-2.11l-0.08 -0.24c-0.03,-0.08 -0.05,-0.14 -0.08,-0.22 -0.05,-0.14 -0.13,-0.28 -0.16,-0.42 -0.14,-0.25 0,0 -0.24,-0.46 -0.03,-0.01 -0.31,-0.43 -0.35,-0.48 -0.06,-0.08 -0.12,-0.17 -0.19,-0.24 -0.07,-0.08 -0.14,-0.14 -0.18,-0.23l-0.69 -0.59c-0.24,-0.19 -1.17,-0.74 -1.41,-0.74 -0.29,-0.14 -0.67,-0.17 -0.8,-0.23l-0.07 -0.36c0,-0.01 -0.01,-0.01 -0.01,-0.02l0.05 0.38c-0.35,-0.04 -0.62,-0.08 -0.98,-0.08 -0.02,-0.16 0.03,-0.32 0.01,-0.46 -0.03,0.06 -0.05,0.38 -0.05,0.44l-0.75 0.07 -0.01 -0.1c-0.03,0.07 0,0.05 -0.04,0.12 -0.37,0.06 -0.67,0.14 -1,0.26 -0.33,0.11 -0.58,0.26 -0.86,0.39l0.02 -0.07c-0.13,0.11 0.1,0 -0.23,0.21l-0.48 0.36c-0.09,0.07 -0.14,0.14 -0.25,0.18 -0.08,-0.19 -0.48,-0.49 -0.64,-0.65 -0.45,-0.48 -0.02,-0.02 -0.42,-0.45 -0.07,-0.05 -0.4,-0.26 -0.54,-0.34l-0.2 -0.1z"></path> <path class="fil0" d="M19.45 8.33c0.68,-0.11 1.23,0.41 1.31,0.99 0.09,0.73 -0.4,1.25 -1,1.34 -0.69,0.09 -1.23,-0.4 -1.31,-1 -0.09,-0.71 0.41,-1.24 1,-1.33zm-0.53 -2.67c0.47,-0.09 0.85,0.22 0.91,0.61 0.08,0.46 -0.26,0.84 -0.63,0.91 -0.98,0.2 -1.31,-1.35 -0.28,-1.52zm-1.73 12.23c0.04,0.09 0.11,0.15 0.18,0.23 0.07,0.07 0.13,0.16 0.19,0.24 0.04,0.05 0.32,0.47 0.35,0.48 0.01,-0.72 0.57,-4.8 0.7,-5.8 0.05,-0.32 0.08,-0.64 0.13,-0.95 0.04,-0.24 0.34,-0.51 0.54,-0.57 0.34,-0.08 0.76,-0.13 1.11,-0.19 0.53,-0.09 0.7,-0.13 0.93,0.29 0.15,0.29 0.27,0.58 0.43,0.87 0.77,1.4 1.47,2.86 2.24,4.29 0.58,1.08 0.78,1.23 0.04,1.58 -0.3,0.14 -0.68,0.43 -0.88,0.01 -0.13,-0.26 -0.24,-0.69 -0.33,-0.99 -0.14,-0.47 -1.41,-4.75 -1.54,-5 -0.19,-0.39 -0.61,-0.4 -0.69,0.06 -0.05,0.24 0.45,1.74 0.54,2.06 0.21,0.66 0.41,1.34 0.61,2 0.77,2.62 0.96,2.39 -0.1,2.55 -0.37,0.06 -0.73,0.15 -1.1,0.21 -0.51,0.08 -0.43,-0.32 -0.45,-0.84 -0.03,-0.42 -0.04,-0.85 -0.06,-1.28 -0.05,-0.81 -0.1,-1.63 -0.14,-2.45 -0.03,-0.4 -0.05,-0.82 -0.07,-1.23 -0.02,-0.39 0.03,-0.89 -0.39,-0.94 -0.38,0.01 -0.42,0.15 -0.41,0.53 0.02,0.87 0.09,1.81 0.14,2.69 0.03,0.59 0.07,1.18 0.11,1.76 0.02,0.38 0.11,1.53 0.1,1.81 -0.43,0.06 -0.8,0.08 -1.22,-0.01 0.03,0.14 0.11,0.28 0.16,0.42 0.03,0.08 0.05,0.14 0.08,0.22l0.08 0.24c0.04,-0.1 0.1,-0.03 0.34,-0.03 0.45,0 1.33,-0.13 1.81,-0.18 0.74,-0.08 1.31,-0.19 2.04,-0.34 0.22,-0.04 0.42,-0.1 0.62,-0.17 0.09,-0.03 0.2,-0.07 0.28,-0.11 0.4,-0.17 1.59,-0.68 1.84,-0.95 0.29,-0.33 -0.17,-0.95 -0.39,-1.38l-2.6 -4.99c-0.13,-0.21 -0.25,-0.5 -0.42,-0.77l-0.47 -0.71c-0.06,-0.09 -0.14,-0.15 -0.11,-0.25 0.07,-0.25 0.23,-0.47 0.21,-1 -0.03,-0.91 -0.56,-1.3 -1.22,-1.77 -0.06,-0.05 -0.06,-0.06 -0.13,-0.08 0.24,-0.45 0.51,-0.81 0.31,-1.49 -0.25,-0.85 -1.11,-1.03 -1.25,-1.18 -0.22,-0.24 -0.27,-0.74 -0.33,-1.12 -0.1,-0.56 -0.19,-1.1 -0.29,-1.66 -0.04,-0.27 -0.05,-0.58 -0.22,-0.74 -0.22,-0.2 -0.54,0.05 -0.69,-0.27 -0.11,-0.22 -0.05,-0.93 -0.45,-0.99 -0.15,-0.02 -0.31,0.05 -0.38,0.12 -0.18,0.19 -0.07,0.54 -0.02,0.78 0.06,0.31 0.26,1.41 0.34,1.6 0.14,0.34 0.48,0.23 0.72,0.22 0,0.12 0.05,0.27 0.07,0.39l0.21 1.16c0.08,0.52 0.14,0.66 -0.28,0.97 -0.61,0.45 -0.76,1.48 -0.13,2.23 0.06,0.07 0.44,0.37 0.52,0.39 -0.06,0.21 -0.62,0.53 -0.76,1.52 -0.07,0.42 0.18,0.99 0.4,1.29 0.08,0.11 0.17,0.21 0.25,0.32 -0.05,0.21 -0.25,0.38 -0.3,0.69 -0.04,0.3 -0.08,0.58 -0.12,0.89 -0.03,0.29 -0.08,0.58 -0.11,0.89 -0.06,0.64 -0.25,1.93 -0.35,2.64l-0.22 1.79z"></path> <path class="fil0" d="M12.64 8.33c0.69,-0.11 1.24,0.39 1.34,0.96 0.13,0.7 -0.35,1.27 -0.94,1.37 -0.7,0.11 -1.25,-0.38 -1.34,-0.96 -0.12,-0.71 0.36,-1.27 0.94,-1.37zm0.59 -2.67c1.04,-0.21 1.28,1.34 0.29,1.52 -0.47,0.09 -0.83,-0.26 -0.9,-0.61 -0.11,-0.48 0.23,-0.84 0.61,-0.91zm-5.39 10.45l0.2 0.1c0.14,0.08 0.46,0.32 0.54,0.34 0.19,-0.29 2.18,-4.23 2.5,-4.85 0.15,-0.27 0.28,-0.42 0.68,-0.41 0.47,0.06 1.04,0.17 1.49,0.28 0.53,0.13 0.47,0.63 0.55,1.23 0.06,0.43 0.43,2.94 0.41,3.15 0,0.01 0.01,0.01 0.01,0.02l0.07 0.36c0.13,0.06 0.51,0.09 0.8,0.23l-0.38 -2.89c-0.06,-0.46 -0.13,-0.95 -0.19,-1.42 -0.08,-0.55 -0.07,-0.51 -0.22,-0.99 -0.04,-0.12 -0.07,-0.18 -0.1,-0.31 0.08,-0.06 0.19,-0.21 0.25,-0.3 0.58,-0.83 0.46,-1.67 -0.13,-2.46 -0.05,-0.06 -0.08,-0.09 -0.12,-0.15 -0.05,-0.06 -0.1,-0.09 -0.14,-0.16 0.05,-0.08 0.31,-0.24 0.46,-0.4 0.52,-0.54 0.6,-1.28 0.17,-1.93 -0.38,-0.57 -0.65,-0.42 -0.55,-1.14l0.32 -1.91c0.02,-0.12 0.02,-0.26 0.11,-0.32 0.25,-0.15 0.25,0.21 0.47,0.36 0.23,0.14 0.5,0.04 0.6,-0.15 0.11,-0.19 -0.2,-1.55 -0.28,-1.86 -0.04,-0.13 -0.06,-0.21 -0.17,-0.29 -0.28,-0.18 -0.72,0.03 -0.63,0.54 0.02,0.13 0.04,0.27 0.07,0.39 -0.2,-0.02 -0.33,-0.06 -0.52,0.02 -0.13,0.06 -0.23,0.19 -0.3,0.33 -0.09,0.2 -0.3,1.8 -0.35,2.07 -0.03,0.18 -0.14,0.92 -0.19,1.04 -0.16,0.4 -0.46,0.13 -1.07,0.74 -0.05,0.05 -0.09,0.09 -0.13,0.16 -0.23,0.36 -0.33,0.74 -0.23,1.21 0.03,0.13 0.11,0.34 0.17,0.45 0.06,0.11 0.2,0.3 0.22,0.4 -0.18,0.04 -0.8,0.5 -0.95,0.69 -0.06,0.08 -0.13,0.15 -0.18,0.24 -0.29,0.5 -0.23,1.17 -0.07,1.74 0.04,0.16 0.03,0.13 -0.06,0.27 -0.19,0.25 -0.37,0.44 -0.52,0.71l-1.7 3.24c-0.1,0.19 -0.18,0.34 -0.28,0.54l-0.28 0.54c-0.06,0.12 -0.26,0.46 -0.28,0.55l-0.07 0z"></path> <path class="fil0" d="M10.6 16.9c0,-0.14 0.96,-3.23 1.08,-3.65 0.08,-0.28 0.44,-1.08 -0.04,-1.13 -0.52,-0.02 -0.62,0.66 -0.76,1.13 -0.16,0.5 -0.3,0.97 -0.45,1.47 -0.26,0.84 -0.51,1.76 -0.78,2.58 -0.07,0.23 -0.09,0.16 -0.01,0.35 0.11,-0.04 0.16,-0.11 0.25,-0.18l0.48 -0.36c0.33,-0.21 0.1,-0.1 0.23,-0.21z"></path> <path class="fil0" d="M12.48 16.2l0.01 0.1 0.75 -0.07c0,-0.06 0.02,-0.38 0.05,-0.44 -0.03,-0.2 0.03,-0.75 0.05,-0.99 0.02,-0.33 0.04,-0.67 0.06,-1 0.02,-0.42 0.16,-1.18 -0.1,-1.38 -0.11,-0.08 -0.29,-0.09 -0.41,-0.04 -0.24,0.1 -0.22,0.5 -0.24,0.8 -0.02,0.44 -0.18,2.81 -0.17,3.02z"></path> </g> </g> </svg> 