<?xml version="1.0" encoding="UTF-8"?> <!-- Creator: CorelDRAW 2018 (64-Bit) --> <svg xmlns="http://www.w3.org/2000/svg" xmlns:xlink="http://www.w3.org/1999/xlink" xml:space="preserve" width="500px" height="218px" style="shape-rendering:geometricPrecision; text-rendering:geometricPrecision; image-rendering:optimizeQuality; fill-rule:evenodd; clip-rule:evenodd" viewBox="0 0 500 217.79"> <defs> <style type="text/css"> <![CDATA[ .fil0 {fill:white} .fil1 {fill:white;fill-rule:nonzero} ]]> </style> </defs> <g id="Слой_x0020_1"> <metadata id="CorelCorpID_0Corel-Layer"></metadata> <g id="_52069856"> <path class="fil0" d="M406.63 206.38c-2.16,-1.64 -7.47,-7.41 -9.06,-10.62 -2.73,-5.51 0.52,-7.28 4.78,-9.94 6.36,-3.97 19.27,-9.75 27.51,-10.85 -2.6,5.73 -7.24,11.94 -10.75,16.79 -2.98,4.12 -7.16,12.96 -12.48,14.62l0 0 0 0zm-162.15 -9.57c-1.81,-6.29 -0.67,-7.2 3.04,-11.69 4.82,-5.86 23.05,-20.72 29.25,-22.83 -5.53,9.43 -18.81,35.06 -32.29,34.52l0 0zm150.93 -170.14c-2.91,-2.84 -7.38,-5.61 -11.83,-4.12 2.34,15.13 -32.57,81.37 -38.4,86.7 -8.05,7.36 -35.81,27.32 -43.84,30.89 3.96,-10.13 22.04,-41.19 20.49,-51.75 -2.83,-3.35 -5.79,-4.42 -11.13,-4.45 -4.11,1.32 -24.44,39.93 -44.97,50.86 0.6,-5.59 9.83,-18.79 12.97,-24.16 6.56,-11.17 23.43,-30.86 -2.18,-32.21 -1.43,9.53 -5.33,15.54 -9.2,22.98 -4.77,9.23 -8.59,10.23 -15.54,15.72 -5.34,4.22 -29.8,24.93 -37.84,24.17 -2.67,-5.83 -7.1,-26.74 -6.01,-32.36 2.86,-3.8 16.01,-13.86 23.11,-15.76 -1.69,6.82 -2.7,9.06 -2.85,16.72 7.87,1.36 17.52,-19.86 17.28,-21.16 -3.09,-5.63 -9.23,-9.98 -16.51,-5.24 -9.11,5.93 -18.55,15.75 -26.76,23.95 -1.26,1.26 -11.4,11.49 -11.61,11.92 1.76,-8.34 16.84,-23.03 16.72,-34.14 -3.39,-3.13 -7.01,-6.47 -14.38,-6.31 -3,9.06 -2.27,13.37 -7.12,22.87 -3.28,6.41 -6.86,12.81 -10.18,19 -5.27,9.82 -25.91,33 -1.29,34.03 4.49,-8.8 14.36,-27.69 21.83,-33.46 2.2,8.8 0.24,21.18 5.04,27.26 6.81,8.63 14.26,7 21.8,1.19 12.3,-9.47 21.48,-19.85 31.89,-28.58 1.7,-1.43 -0.18,-0.22 2.18,-1.56 -2.18,7.04 -10.36,17.72 -4.19,25.8 7.95,10.46 21.83,-4.45 28.23,-11.91 4.27,-4.96 17.36,-22.77 21.12,-25.7 -2.24,9.77 -9.87,25.47 -14.38,34.61 -4.75,9.62 -2.63,6.99 -12.02,11.68 -14.81,7.4 -57.39,27.11 -44.29,45.01 8.7,11.89 20.38,14.87 29.98,3.18 11.17,-13.63 19.97,-26.4 28.78,-42.36 4.41,-7.99 3.22,-7.34 11.36,-12.35 9.31,-5.71 32.61,-22.69 39.89,-30.45l-23.28 44.89c-3.72,7.8 -7.71,15.39 -10.63,23.9 -3.7,10.83 2.3,19.93 12.31,18.69 1.93,-5.74 2.31,-12.05 4.26,-18.36 3.9,-12.64 13.63,-34.47 20.65,-44 3.67,-4.98 33.18,-42.61 41.77,-46.17 -3.37,15 -30.66,46.84 -11.65,55.64 10.09,4.67 28.45,-15.21 36.56,-22.53 2.81,-2.54 7.71,-6.43 9.69,-8.74 -2.48,4.66 -6.64,11.61 -8.05,17.07 -2.12,8.27 3.87,14.44 9.61,16.34 8.27,0.84 45.76,-46.86 50.3,-53.17 -2.31,7.12 -9.97,19.23 -13.93,26.54 -4.82,8.88 -10.06,17.27 -15.24,25.71 -9.09,14.87 -2.75,7.34 -26.99,14 -8.92,2.44 -38.6,10.98 -35.6,23.37 2.2,9.06 20.52,32.39 31.53,26.49 5.5,-2.96 14.3,-15.56 18.97,-22.06l15.97 -23.74c29.35,-1.19 27.72,1.92 52.19,3.86 -6.77,-12.28 -28.09,-13.44 -45.94,-13.22 0.67,-3.34 8.86,-16.03 10.97,-19.95 7.66,-14.19 29.27,-50.45 28.06,-64.22 -19.02,-8.61 -7.33,-2.89 -30.72,27.1 -5.23,6.72 -9.6,11.64 -15.24,17.07 -4.65,4.51 -11.86,10.89 -17.83,14.94 2.21,-12.21 30.94,-47.14 28.45,-55.43 -3,-4.34 -6.6,-7.77 -13.4,-7.5 -0.9,1.44 -2.2,10 -9.84,23.54 -6.46,11.47 -4.75,10.01 -14.59,17.74 -5.41,4.24 -31.57,25.44 -37.76,26.25 0.52,-6.08 8.89,-21.45 12.03,-27.2 5.33,-9.79 13.6,-21.47 9.45,-26.54 -2.23,-2.73 -9.16,-6.97 -13.84,-3.8 -2.05,1.37 -19.85,21.08 -30.52,29.26 1.97,-6.18 20.32,-39.69 24.73,-47.9 6.71,-12.45 18.98,-30.94 11.4,-38.38l0 0 0 0z"></path> <path class="fil0" d="M139.57 69.35c3.18,-1.68 7.97,-14.94 15.63,-25.09 4.15,-5.49 13.62,-20.03 19.64,-21.02 12.33,18.55 -50.8,131.29 -76.54,125.7 -8.21,-15.13 2.35,-42.94 9.61,-58.18 6.9,-14.5 3.96,-11.79 10.99,-14.94 -0.82,-5.4 0.03,0.82 -0.8,-2.34 -1.78,-6.8 29.76,-49.48 42.76,-54.6 -3.58,6.13 -7.85,9.14 -13.98,21.39 -3.83,7.67 -9.16,19.23 -7.31,29.08l0 0zm-139.57 -37.73c-0.15,8.63 4.56,25.95 13.79,16.77 6.59,-6.56 10.64,-9.77 19.74,-15.83 9.37,-6.23 34.32,-19.66 47.27,-22.21l-33.12 55.76c-8,13.69 -8.61,20.31 -17.58,17.39 -4.02,-1.31 0.17,-1.69 -4.55,-1.93 -1.65,10.04 1.45,10.99 3.6,16.89 -6.02,11.46 -12.39,22.87 -18.39,35.28 -1.9,3.93 -7.37,15.24 -5.82,20.29 1.46,4.75 10.01,10.57 15.16,9.56l24.28 -52.29c11.07,-20.55 6.86,-17.94 17.01,-20.69 9.69,-2.63 19.77,-6.5 29.14,-7.98 -2.85,10.63 -7.85,18.52 -11.06,34.67 -3.04,15.32 -3.43,28.39 5.41,37.75 15.33,16.22 32.27,3.45 44.2,-9.71l21.04 -25.31c3.15,-4.26 6.35,-8.88 9.3,-13.32 11.28,-17.04 25.24,-42.49 29.74,-63.07 1.3,-5.96 2.68,-15.03 1.02,-20.85 -1.54,-5.32 -2.43,-3.58 -5.51,-6.35 -1.56,-1.4 -3.29,-4.77 -4.39,-6.21 -8.02,-1.36 -10.96,1.1 -14.88,5.21 -0.56,-0.64 -0.83,-0.93 -1.5,-1.87l-4.09 -5.71c-9.15,-9.76 -13.03,-9.67 -21.88,-0.25 -14.13,15.05 -30.41,39.78 -39.76,59.45 -2.54,5.36 -1.18,4.91 -6.83,6.07l-29.21 5.48 21.04 -35.21c3.67,-5.79 7.33,-11.53 10.83,-17.21 3.46,-5.63 8.53,-11.03 10.99,-17.21 -8.68,-17.9 -40.92,-4.47 -55.01,1.2 -9.05,3.63 -17.11,6.96 -25.49,11.14l-18.69 9.44c-2.83,0.97 -0.8,0.28 -3.09,0.55l-2.71 0.31 0 0 0 0z"></path> </g> <path class="fil1" d="M5.87 201.71l0 -19.56 3.08 0c1.8,0 3.1,0.12 3.93,0.35 1.18,0.31 2.11,0.89 2.81,1.73 0.69,0.84 1.04,1.84 1.04,2.98 0,0.74 -0.16,1.42 -0.47,2.03 -0.31,0.61 -0.83,1.18 -1.53,1.71 1.18,0.56 2.05,1.26 2.6,2.09 0.55,0.84 0.82,1.83 0.82,2.97 0,1.1 -0.29,2.1 -0.86,3 -0.57,0.9 -1.3,1.58 -2.2,2.03 -0.9,0.45 -2.14,0.67 -3.72,0.67l-5.5 0zm3.7 -16.02l0 4.14 0.83 0c0.93,0 1.62,-0.19 2.07,-0.57 0.45,-0.38 0.67,-0.91 0.67,-1.56 0,-0.62 -0.21,-1.1 -0.64,-1.46 -0.43,-0.36 -1.08,-0.55 -1.95,-0.55l-0.98 0zm0 7.47l0 5.01 0.95 0c1.56,0 2.62,-0.2 3.16,-0.59 0.55,-0.39 0.82,-0.96 0.82,-1.7 0,-0.84 -0.32,-1.51 -0.96,-1.99 -0.64,-0.49 -1.7,-0.73 -3.19,-0.73l-0.78 0zm22.05 -11.01l10.68 0 0 3.65 -6.97 0 0 3.52 6.97 0 0 3.59 -6.97 0 0 5.15 6.97 0 0 3.65 -10.68 0 0 -19.56zm24.02 0l3.95 0c2.14,0 3.68,0.2 4.62,0.6 0.94,0.39 1.69,1.03 2.24,1.91 0.54,0.88 0.82,1.94 0.82,3.17 0,1.37 -0.36,2.5 -1.08,3.41 -0.71,0.9 -1.69,1.53 -2.91,1.88 -0.73,0.21 -2.04,0.31 -3.94,0.31l0 8.28 -3.7 0 0 -19.56 0 0zm3.7 7.65l1.19 0c0.94,0 1.59,-0.06 1.96,-0.19 0.37,-0.14 0.65,-0.36 0.87,-0.67 0.2,-0.3 0.31,-0.67 0.31,-1.12 0,-0.75 -0.29,-1.31 -0.88,-1.65 -0.43,-0.26 -1.23,-0.39 -2.39,-0.39l-1.06 0 0 4.02zm39.46 -4.21l-2.62 2.48c-1.77,-1.88 -3.76,-2.81 -5.98,-2.81 -1.87,0 -3.45,0.64 -4.73,1.92 -1.28,1.27 -1.93,2.84 -1.93,4.71 0,1.3 0.29,2.46 0.86,3.47 0.56,1.01 1.37,1.8 2.4,2.38 1.04,0.58 2.19,0.86 3.46,0.86 1.08,0 2.08,-0.2 2.97,-0.6 0.9,-0.4 1.88,-1.14 2.95,-2.2l2.53 2.64c-1.44,1.41 -2.81,2.39 -4.09,2.93 -1.29,0.55 -2.76,0.83 -4.41,0.83 -3.03,0 -5.53,-0.96 -7.46,-2.89 -1.94,-1.93 -2.91,-4.4 -2.91,-7.41 0,-1.95 0.44,-3.68 1.32,-5.2 0.89,-1.51 2.15,-2.73 3.79,-3.65 1.65,-0.92 3.42,-1.39 5.32,-1.39 1.61,0 3.16,0.34 4.66,1.03 1.49,0.67 2.78,1.64 3.87,2.9zm11.26 -3.44l10.81 0 0 3.68 -3.57 0 0 15.88 -3.79 0 0 -15.88 -3.45 0 0 -3.68zm29.23 0l3.75 0 7.52 19.56 -3.87 0 -1.52 -4.03 -8.02 0 -1.56 4.03 -3.87 0 7.57 -19.56 0 0zm1.87 5.2l-2.65 6.73 5.29 0 -2.64 -6.73zm22.23 -5.2l10.67 0 0 3.65 -6.97 0 0 3.52 6.97 0 0 3.59 -6.97 0 0 5.15 6.97 0 0 3.65 -10.67 0 0 -19.56zm25.91 0l3.61 0 4.55 13.65 4.58 -13.65 3.59 0 3.28 19.56 -3.59 0 -2.09 -12.35 -4.14 12.35 -3.28 0 -4.12 -12.35 -2.13 12.35 -3.63 0 3.37 -19.56 0 0z"></path> </g> </svg> 