<?xml version="1.0" standalone="no"?>
<!DOCTYPE svg PUBLIC "-//W3C//DTD SVG 20010904//EN"
 "http://www.w3.org/TR/2001/REC-SVG-20010904/DTD/svg10.dtd">
<svg version="1.0" xmlns="http://www.w3.org/2000/svg"
 width="1024.000000pt" height="1024.000000pt" viewBox="0 0 1024.000000 1024.000000"
 preserveAspectRatio="xMidYMid meet">
<metadata>
Created by potrace 1.16, written by Peter Selinger 2001-2019
</metadata>
<g transform="translate(0.000000,1024.000000) scale(0.100000,-0.100000)"
fill="#000000" stroke="none">
<path d="M9365 10225 c-16 -7 -41 -25 -54 -39 l-24 -26 23 0 c18 0 21 -3 12
-12 -6 -6 -26 -11 -44 -10 -71 2 -121 -44 -122 -114 -1 -28 -4 -34 -18 -30
-10 2 -18 0 -18 -5 0 -6 -7 -6 -18 0 -14 7 -27 1 -62 -30 -25 -21 -52 -39 -60
-40 -23 -1 -62 -7 -95 -14 -16 -3 -41 -8 -54 -11 -13 -3 -21 -8 -18 -11 12
-11 -23 -33 -53 -33 -17 0 -50 -11 -74 -24 -39 -22 -60 -29 -122 -40 -12 -3
-30 -9 -40 -15 -11 -5 -46 -17 -79 -26 -33 -8 -87 -25 -120 -36 -33 -11 -80
-24 -105 -29 -65 -12 -252 -60 -275 -70 -11 -5 -65 -18 -120 -29 -117 -24
-163 -37 -178 -50 -7 -5 -32 -11 -57 -14 -66 -8 -251 -53 -285 -70 -17 -8 -91
-26 -165 -40 -74 -14 -136 -31 -138 -37 -2 -5 -16 -10 -31 -10 -14 0 -51 -7
-81 -15 -30 -8 -80 -20 -110 -26 -30 -6 -73 -19 -95 -29 -22 -10 -69 -23 -105
-28 -110 -18 -235 -47 -238 -54 -2 -5 -13 -8 -25 -8 -21 0 -174 -35 -282 -65
-27 -8 -72 -17 -100 -21 -27 -3 -55 -10 -60 -15 -6 -4 -44 -15 -85 -25 -41 -9
-83 -21 -93 -26 -10 -5 -50 -15 -90 -23 -127 -24 -211 -45 -221 -55 -6 -6 -20
-10 -33 -10 -25 0 -106 -18 -138 -31 -11 -4 -38 -10 -60 -14 -22 -4 -60 -15
-84 -26 -24 -10 -54 -19 -66 -19 -13 0 -76 -14 -141 -31 -66 -17 -164 -39
-219 -49 -55 -10 -131 -26 -170 -34 -38 -9 -93 -16 -120 -15 -28 1 -60 -3 -70
-9 -18 -10 -16 -11 13 -12 18 0 31 -3 29 -7 -3 -5 -22 -8 -44 -7 -102 2 -124
5 -118 14 4 6 -19 10 -62 9 -54 -1 -61 -3 -33 -9 l35 -6 -28 -8 c-37 -11 -135
-1 -232 24 -20 5 -36 0 -30 -10 3 -5 -2 -11 -12 -11 -10 -1 -34 -3 -53 -4 -82
-6 -166 -18 -176 -26 -5 -4 -19 -6 -30 -3 -11 3 -40 -2 -64 -10 -25 -9 -59
-16 -75 -16 -17 0 -37 -6 -44 -12 -11 -10 -13 -10 -7 0 5 8 0 12 -16 12 -19 0
-20 -2 -8 -10 10 -7 -39 -9 -150 -5 -153 4 -282 15 -580 50 -63 7 -186 12
-274 11 l-158 -1 -23 -29 c-18 -22 -22 -37 -18 -64 4 -23 1 -37 -8 -44 -11 -8
-11 -9 3 -5 17 6 28 -11 28 -44 0 -11 5 -17 10 -14 7 4 10 -76 11 -232 0 -131
4 -247 9 -258 12 -27 11 -31 10 268 -1 180 2 257 9 252 6 -3 11 -2 11 3 0 12
77 49 120 58 19 3 40 10 45 14 13 10 110 -4 205 -29 88 -23 139 -34 275 -56
55 -9 111 -22 125 -28 14 -6 52 -14 85 -18 88 -12 223 -43 202 -47 -19 -4 -16
-33 6 -60 7 -9 5 -16 -8 -26 -14 -10 -16 -20 -11 -42 4 -16 10 -46 13 -67 3
-20 9 -40 14 -42 4 -3 6 -19 3 -34 -4 -16 -1 -32 5 -35 16 -11 14 -49 -3 -43
-21 8 -14 -26 9 -41 18 -11 16 -12 -15 -8 -64 9 -215 18 -210 13 3 -3 20 -7
38 -10 37 -6 55 -17 29 -17 -9 0 -17 -7 -17 -16 0 -13 -7 -15 -43 -8 -23 4
-49 7 -57 7 -8 0 -20 6 -25 14 -6 8 -40 18 -75 23 -36 6 -84 13 -108 16 -37 6
-42 4 -42 -13 0 -15 14 -22 73 -37 39 -9 95 -19 122 -21 123 -10 394 -61 410
-76 7 -7 1 -8 -16 -4 -15 4 -58 7 -98 8 -39 1 -71 5 -71 10 0 4 -7 7 -15 7 -9
0 -12 -6 -9 -15 4 -8 1 -15 -5 -15 -6 0 -11 7 -11 15 0 14 -3 14 -28 1 -28
-14 -72 -15 -105 -1 -10 4 -28 3 -40 -3 -12 -6 -35 -13 -50 -17 -26 -5 -27 -7
-12 -28 8 -12 15 -29 15 -39 0 -11 7 -18 20 -18 16 0 19 -5 13 -30 -6 -33 1
-38 23 -15 19 19 35 19 28 1 -3 -8 4 -23 15 -33 28 -26 40 -97 33 -199 -3 -58
-1 -84 6 -84 7 0 12 -36 14 -102 3 -94 5 -103 23 -106 31 -6 39 -19 22 -36 -9
-9 -20 -16 -26 -16 -6 0 -11 -4 -11 -10 0 -5 6 -10 14 -10 11 0 16 -19 20 -72
13 -167 18 -208 27 -208 20 0 1 -124 -23 -157 -6 -7 -5 -20 1 -32 6 -11 10
-52 9 -91 -1 -57 -5 -73 -19 -81 -16 -8 -17 -13 -7 -34 6 -14 15 -25 20 -25 4
0 8 -21 8 -47 1 -27 7 -59 14 -73 10 -17 11 -30 4 -43 -5 -10 -12 -58 -15
-105 -3 -48 -8 -112 -12 -143 -4 -32 -3 -62 2 -71 6 -8 7 -24 2 -34 -4 -11 -7
-36 -5 -58 1 -21 -3 -42 -9 -46 -9 -5 -8 -21 0 -60 13 -63 7 -206 -11 -239 -9
-18 -8 -29 4 -56 17 -35 22 -59 7 -37 -12 20 -51 -6 -51 -34 0 -24 -23 -48
-35 -36 -4 4 -5 -6 -1 -22 6 -26 5 -28 -14 -23 -21 5 -22 3 -17 -51 3 -31 13
-178 22 -326 14 -219 15 -270 4 -277 -9 -5 -4 -10 17 -15 16 -4 40 -12 54 -19
14 -7 59 -29 100 -49 81 -39 131 -69 174 -103 15 -12 40 -25 56 -28 17 -4 32
-11 35 -16 4 -5 16 -9 28 -9 12 0 67 -14 122 -31 97 -30 293 -78 405 -100 30
-6 96 -24 145 -40 50 -16 101 -29 113 -29 13 0 38 -6 55 -14 38 -15 140 -42
252 -66 44 -9 87 -19 95 -22 8 -3 35 -10 60 -17 25 -6 97 -25 160 -41 63 -16
126 -29 140 -29 15 1 18 3 9 6 -16 4 -32 37 -22 46 2 3 5 60 7 127 3 126 -8
133 -20 13 -6 -53 -12 -72 -31 -89 -14 -13 -22 -27 -19 -32 6 -11 -43 -27 -52
-17 -3 3 0 5 7 5 8 0 11 7 7 15 -3 9 0 15 10 15 8 0 13 4 10 9 -4 5 -1 11 6
13 8 3 4 12 -10 26 -19 19 -23 20 -28 7 -4 -8 -15 -15 -26 -15 -18 0 -20 5
-15 39 5 44 2 52 -19 44 -9 -3 -12 -13 -9 -27 5 -16 4 -18 -4 -6 -5 8 -7 27
-4 44 5 22 3 27 -7 21 -9 -6 -11 -26 -7 -73 5 -67 15 -82 55 -82 12 0 22 -4
22 -10 0 -5 -7 -10 -16 -10 -8 0 -13 -4 -9 -9 3 -6 -7 -6 -26 -1 -30 9 -50 20
-36 20 4 0 0 16 -8 36 -18 44 -20 135 -3 152 13 13 0 16 -19 4 -8 -5 -12 -26
-11 -54 2 -47 -24 -104 -42 -93 -6 4 -10 1 -10 -4 0 -6 -11 -11 -24 -11 -27 0
-34 19 -35 104 -1 60 -11 76 -12 20 0 -21 -3 -32 -6 -24 -3 8 -11 21 -17 29
-9 12 -14 91 -16 244 0 33 -4 47 -14 47 -16 0 -46 69 -46 106 0 14 -4 23 -10
19 -5 -3 -10 -23 -10 -44 0 -57 -11 -101 -25 -101 -7 0 -15 8 -19 18 -3 9 -17
35 -30 57 -14 22 -25 50 -26 63 0 15 -6 22 -20 22 -24 0 -25 -15 -5 -65 16
-36 12 -75 -6 -75 -5 0 -7 11 -3 25 4 14 2 25 -4 25 -15 0 -63 -60 -56 -71 3
-5 0 -9 -5 -9 -6 0 -11 8 -11 18 0 28 20 92 29 92 7 0 7 52 1 85 -1 6 -10 -21
-20 -60 l-18 -70 4 137 c2 75 6 149 10 162 4 19 2 28 -10 32 -15 6 -15 7 0 18
13 10 15 28 12 101 -2 59 -7 90 -15 93 -9 2 -13 -11 -13 -49 0 -50 -1 -52 -18
-36 -63 60 -74 68 -80 63 -3 -4 -1 -11 6 -15 7 -4 12 -14 10 -21 -2 -8 4 -14
12 -15 22 -1 14 -50 -13 -81 -12 -14 -25 -35 -29 -47 -6 -20 -3 148 6 286 2
31 2 57 0 57 -2 0 -11 -25 -20 -55 -10 -30 -21 -55 -26 -55 -4 0 -8 -7 -8 -15
0 -8 -14 -27 -30 -42 -17 -14 -29 -31 -28 -37 0 -6 -1 -18 -5 -26 -3 -8 -8
-37 -11 -65 -7 -65 -10 -78 -19 -92 -4 -6 -4 -18 -1 -27 4 -12 0 -16 -15 -16
-23 0 -28 -15 -8 -27 13 -9 16 -27 24 -158 6 -107 -2 -109 -17 -4 -6 41 -18
101 -26 134 -18 68 -24 102 -28 159 -2 29 -8 42 -23 49 -29 13 -26 47 3 47 12
0 24 7 28 15 3 8 12 15 20 15 10 0 17 21 25 68 6 37 20 92 30 122 11 30 26 80
34 110 9 30 25 87 36 125 11 39 22 88 25 110 l5 40 -12 -45 c-7 -25 -15 -49
-18 -55 -4 -5 -12 -37 -19 -69 -7 -33 -16 -69 -21 -80 -4 -12 -18 -54 -29 -94
-27 -88 -40 -88 -17 0 23 86 67 276 67 285 0 26 -29 -55 -39 -108 -17 -91 -39
-178 -40 -154 -1 11 15 97 34 190 19 94 44 224 54 290 11 66 23 136 26 155 4
19 9 49 11 65 28 175 35 224 35 245 1 77 12 180 19 175 4 -2 7 20 5 51 -1 34
1 51 6 42 5 -7 6 7 3 35 -4 29 -3 47 3 47 6 0 13 35 17 78 14 172 17 198 27
224 6 15 9 30 6 35 -3 4 -1 31 4 58 5 28 13 95 19 150 5 55 17 152 25 215 8
63 17 135 20 160 8 74 25 192 35 240 6 25 11 70 11 100 1 30 6 60 11 66 5 7
13 50 18 95 16 138 22 169 32 169 5 0 8 21 7 46 -2 27 2 48 9 53 6 4 17 61 24
136 9 89 17 130 26 133 9 3 13 -3 12 -14 -4 -34 0 -40 23 -41 12 0 16 1 10 4
-14 5 -18 33 -5 33 9 0 32 49 32 68 0 10 -7 12 -27 7 -22 -5 -25 -4 -15 8 7 8
8 17 4 21 -4 5 7 7 23 6 49 -3 55 -1 55 20 0 13 5 18 15 14 12 -5 13 -9 4 -20
-19 -23 -4 -26 24 -4 14 11 30 20 36 20 6 0 11 4 11 8 0 5 -15 7 -32 4 -24 -3
-30 -1 -22 7 6 6 44 17 85 24 41 8 84 19 97 26 12 6 27 9 33 6 5 -4 16 -2 24
5 10 8 19 8 34 0 14 -7 21 -7 21 0 0 5 7 10 15 10 8 0 15 7 15 15 0 9 9 15 25
15 18 0 23 -4 18 -16 -5 -14 -2 -14 28 1 21 12 53 17 86 16 30 -1 53 3 53 9 0
6 9 5 25 -2 14 -6 25 -15 25 -20 0 -4 13 -8 29 -8 25 0 30 4 33 27 3 32 38 46
38 16 0 -16 7 -18 60 -15 33 2 60 7 60 11 0 4 20 8 46 9 25 1 55 8 67 17 12 8
29 15 39 15 10 0 18 4 18 9 0 5 19 9 43 9 23 0 56 6 72 13 17 6 48 13 70 15
70 7 105 15 105 24 0 5 -17 7 -37 4 l-38 -4 33 11 c25 7 38 7 48 -2 7 -6 22
-8 31 -4 10 4 34 9 53 12 19 3 37 9 38 14 2 5 21 9 43 9 22 0 39 5 39 11 0 7
-10 9 -27 5 -18 -4 -23 -3 -14 2 7 5 41 7 75 5 50 -4 64 -2 76 12 13 15 11 17
-28 14 -48 -4 -66 7 -27 17 14 3 38 1 51 -5 37 -17 75 -14 68 4 -4 8 -1 15 5
15 6 0 11 -4 11 -10 0 -5 15 -10 34 -10 19 0 38 5 41 10 3 6 19 10 36 10 16 0
29 4 29 9 0 11 66 19 82 10 6 -4 25 1 43 11 18 10 58 21 89 25 31 4 59 11 62
16 3 5 21 9 40 9 19 0 34 4 34 10 0 5 20 9 45 8 25 0 51 5 59 11 8 7 47 18 88
25 45 8 72 17 70 24 -2 14 8 15 28 2 10 -6 22 -5 35 4 11 7 36 12 55 10 20 -1
46 4 60 14 26 17 29 18 100 28 25 3 50 10 55 14 13 10 69 21 128 24 26 2 56
11 66 20 10 9 29 16 44 16 14 0 28 4 31 9 3 4 34 12 68 15 34 4 67 10 73 14 5
3 23 5 40 3 19 -1 41 6 57 18 14 12 37 21 50 21 12 0 30 5 38 10 11 7 6 10
-20 10 -21 0 -30 4 -25 9 12 11 65 3 65 -10 0 -5 7 -9 15 -9 23 0 18 18 -7 26
-20 6 -19 7 11 20 39 16 77 18 86 4 4 -6 -10 -10 -36 -10 -34 0 -39 -2 -30
-14 12 -14 45 -11 66 5 14 10 132 16 141 6 4 -4 11 -87 16 -184 5 -98 13 -186
18 -195 6 -10 10 -53 11 -95 0 -58 3 -72 9 -55 6 14 17 22 27 20 14 -2 17 3
15 27 -1 17 -4 62 -7 100 -3 39 -7 89 -8 112 -2 23 0 72 5 110 4 37 10 88 13
112 9 75 15 59 14 -40 0 -52 3 -134 6 -184 4 -49 9 -118 12 -152 3 -35 9 -63
14 -63 6 0 7 5 3 11 -4 7 -1 10 7 7 7 -2 16 -15 20 -29 12 -48 22 49 16 169
-3 65 -3 108 0 97 3 -11 17 -33 31 -50 l25 -30 -7 30 c-3 17 -10 55 -15 85 -5
30 -14 68 -20 84 -9 23 -9 32 1 40 7 6 10 7 6 2 -4 -5 -1 -21 7 -37 8 -15 15
-39 15 -53 0 -14 4 -27 9 -31 6 -3 13 26 17 67 5 48 9 66 14 53 4 -11 5 -44 2
-74 -4 -39 -2 -52 6 -47 7 4 12 14 12 22 0 8 4 14 9 14 5 0 13 50 16 110 8
121 24 153 19 38 -1 -40 1 -116 5 -168 l8 -95 3 110 c2 61 4 122 4 136 1 15
13 39 29 54 l27 28 1 -104 c0 -57 0 -159 0 -226 0 -113 2 -124 20 -134 12 -6
23 -8 27 -5 3 3 1 6 -5 6 -6 0 -14 12 -17 26 -5 19 -2 30 10 39 17 12 17 14 1
38 -13 21 -16 43 -12 119 4 84 9 111 32 173 11 28 31 -262 22 -298 -11 -40 0
-87 20 -88 12 0 11 -2 -4 -9 l-20 -9 20 -2 c43 -4 75 -2 75 4 0 4 0 12 0 17 0
6 -7 10 -15 10 -9 0 -15 10 -15 26 0 19 4 25 15 20 12 -4 15 4 15 37 4 326 10
377 46 377 8 0 13 3 13 8 -5 28 3 52 17 52 11 0 15 -8 12 -27 -2 -18 2 -27 10
-25 8 1 12 -11 13 -35 l1 -38 9 33 c5 18 14 30 19 27 6 -4 10 -1 10 6 0 22 11
2 16 -28 3 -15 5 -49 6 -75 1 -45 2 -47 26 -41 17 4 23 2 18 -6 -4 -6 -13 -11
-21 -11 -10 0 -11 -5 -2 -24 11 -23 12 -24 19 -5 8 22 48 26 48 5 0 -8 3 -21
6 -30 4 -11 0 -16 -13 -16 -11 0 -27 -6 -37 -13 -25 -19 -13 -57 18 -57 30 0
31 -42 1 -50 -29 -8 -26 -44 3 -48 16 -3 22 -8 18 -19 -3 -8 -6 -23 -6 -34 0
-12 -7 -19 -20 -19 -13 0 -20 -7 -20 -18 0 -26 10 -33 31 -21 18 9 19 6 15
-37 -5 -45 -16 -74 -16 -41 0 25 -15 21 -28 -8 -13 -28 1 -44 23 -25 18 15 29
-4 16 -28 -7 -13 -7 -22 1 -30 9 -9 7 -12 -8 -12 -10 0 -25 -9 -32 -20 -11
-18 -10 -20 12 -20 31 0 35 -7 29 -47 -3 -20 -12 -33 -24 -36 -12 -3 -17 -11
-13 -20 3 -9 13 -13 25 -10 18 5 19 1 17 -36 -2 -31 -7 -41 -20 -41 -12 0 -18
-8 -18 -24 0 -19 4 -23 20 -19 17 5 19 1 16 -26 -2 -17 -11 -40 -20 -50 -21
-23 -20 -43 2 -39 13 2 18 -5 20 -33 3 -30 -1 -37 -18 -42 -24 -6 -25 -42 -1
-42 16 0 34 -52 26 -72 -2 -7 -11 -13 -20 -13 -8 0 -15 -7 -15 -16 0 -11 6
-14 20 -9 18 6 20 2 20 -33 0 -32 -4 -41 -21 -45 -29 -8 -21 -43 9 -39 20 3
22 -1 20 -37 -1 -23 -7 -42 -15 -45 -19 -8 -16 -23 7 -29 26 -7 26 -37 -1 -71
-22 -28 -17 -50 9 -42 14 5 17 -2 17 -38 0 -34 -3 -42 -16 -39 -10 3 -18 -3
-22 -16 -6 -23 12 -28 31 -9 9 9 12 2 12 -31 0 -34 -4 -44 -19 -48 -22 -5 -35
-29 -25 -45 3 -5 15 -8 25 -5 16 4 19 0 19 -29 0 -23 -6 -38 -20 -46 -32 -20
-26 -42 10 -34 32 6 34 3 21 -29 -5 -11 -4 -25 1 -32 8 -10 5 -13 -9 -13 -10
0 -24 -5 -30 -11 -16 -16 9 -41 31 -33 10 4 16 1 16 -8 0 -19 -23 -68 -32 -68
-19 0 -6 -21 18 -30 18 -7 24 -15 20 -26 -4 -9 -1 -23 5 -30 9 -11 7 -14 -9
-14 -28 0 -46 -24 -29 -38 10 -9 17 -8 25 0 9 9 12 5 12 -19 0 -17 -7 -36 -15
-43 -8 -7 -15 -24 -15 -37 0 -22 2 -24 15 -13 8 7 15 11 16 9 8 -35 2 -72 -13
-86 -24 -21 -23 -43 2 -43 16 0 20 -7 20 -35 0 -24 -5 -35 -15 -35 -9 0 -15
-9 -15 -21 0 -17 5 -20 21 -16 19 5 20 3 15 -28 -5 -23 -2 -35 6 -38 7 -2 1
-8 -14 -12 -19 -5 -28 -14 -28 -27 0 -17 5 -19 25 -14 23 6 25 4 25 -30 0 -31
-2 -35 -15 -24 -12 10 -15 9 -15 -7 0 -10 -5 -24 -12 -31 -12 -12 -10 -13 32
-16 8 -1 15 -7 14 -14 -1 -6 -2 -21 -2 -32 -1 -13 -7 -17 -17 -14 -12 5 -15
-2 -15 -30 0 -29 4 -36 20 -36 11 0 20 -6 20 -14 0 -26 -12 -46 -27 -46 -9 0
-13 -8 -11 -22 2 -17 9 -22 27 -20 18 2 22 -2 17 -14 -3 -8 -6 -22 -6 -30 0
-8 -11 -19 -25 -24 -14 -5 -25 -14 -25 -19 0 -14 32 -29 48 -24 23 9 12 -38
-15 -63 -14 -13 -23 -27 -20 -31 4 -3 7 -2 7 3 0 4 8 -2 17 -15 16 -23 17 -23
24 -5 7 18 8 18 8 -1 1 -11 -6 -33 -14 -49 -19 -36 -19 -66 0 -66 8 0 15 -6
15 -14 0 -19 -27 -39 -41 -30 -8 4 -9 3 -5 -4 13 -22 -5 -12 -30 16 -36 40
-56 80 -53 110 1 15 -3 38 -8 52 -7 16 -7 31 -1 44 7 13 7 16 -1 12 -13 -8
-26 42 -41 154 -6 47 -15 99 -20 115 -11 34 -17 86 -24 189 -5 65 -17 98 -32
83 -4 -3 -2 -30 4 -59 5 -29 7 -59 2 -67 -4 -7 -4 -30 0 -50 4 -20 11 -72 14
-116 8 -106 -10 -87 -23 25 -6 47 -15 112 -21 145 -6 33 -15 119 -20 190 -6
72 -14 175 -20 230 -5 55 -10 129 -9 164 0 56 -2 63 -15 52 -11 -9 -16 -9 -22
0 -4 7 -2 15 4 17 7 2 12 19 12 38 0 21 -4 33 -10 29 -5 -3 -10 -1 -10 6 0 7
-3 9 -7 5 -4 -3 -7 -94 -8 -201 -1 -110 3 -189 7 -182 6 7 8 -3 7 -28 -3 -61
3 -164 8 -132 7 44 28 32 28 -15 1 -24 3 -56 5 -73 4 -22 1 -29 -8 -27 -8 1
-12 -3 -9 -10 2 -7 10 -12 16 -11 8 2 11 -33 12 -115 1 -81 4 -105 9 -77 5 28
7 9 6 -59 0 -64 3 -101 10 -103 7 -2 10 -28 6 -73 -3 -49 -1 -70 7 -70 6 0 11
-15 11 -33 0 -19 3 -37 7 -40 5 -6 12 -74 14 -144 1 -13 5 -20 10 -17 5 3 9
-19 9 -50 0 -30 11 -110 24 -178 14 -68 30 -168 37 -222 6 -55 18 -111 25
-125 8 -14 14 -51 14 -82 0 -31 6 -72 14 -90 8 -19 17 -67 21 -106 4 -40 11
-73 15 -73 8 0 19 -66 23 -135 1 -22 7 -43 13 -47 7 -4 17 -47 24 -95 7 -49
16 -93 21 -98 10 -14 24 -152 14 -143 -4 4 -16 51 -26 104 -10 52 -25 109 -34
126 -8 17 -15 48 -15 70 0 21 -4 38 -9 38 -5 0 -12 36 -16 80 -4 44 -11 83
-16 86 -5 3 -9 20 -9 39 0 20 -6 38 -16 43 -11 6 -15 24 -15 63 -1 30 -6 60
-12 68 -6 7 -10 26 -9 41 2 16 -1 31 -7 35 -6 3 -11 19 -11 35 0 16 -4 31 -9
34 -5 4 -13 -28 -16 -71 -6 -59 -4 -87 8 -122 9 -25 19 -64 22 -86 10 -69 15
-86 23 -81 4 2 7 -12 5 -32 -2 -35 -2 -36 6 -7 6 22 9 6 12 -63 2 -55 9 -96
15 -100 7 -4 15 -33 19 -65 4 -31 11 -57 16 -57 5 0 9 -13 9 -29 0 -17 5 -33
11 -36 6 -4 7 -19 4 -37 -5 -21 -2 -33 9 -41 16 -13 44 -111 53 -184 3 -24 9
-41 13 -38 17 10 22 -17 5 -28 -14 -11 -12 -15 17 -37 41 -30 36 -29 193 -37
72 -3 132 -7 134 -9 2 -2 -46 -4 -107 -4 -61 0 -113 -4 -116 -8 -3 -5 -8 -35
-11 -68 -4 -32 -10 -61 -15 -64 -9 -6 -19 -169 -11 -168 3 0 17 0 31 -1 21 -1
22 -3 10 -12 -12 -9 -11 -10 8 -6 12 3 20 1 17 -3 -3 -5 1 -10 7 -13 7 -3 -12
-4 -43 -3 l-57 1 0 -35 c0 -37 -26 -217 -37 -262 -4 -16 -10 -28 -14 -28 -4 0
-8 -44 -10 -97 -1 -54 -5 -100 -9 -103 -4 -3 -8 -30 -8 -60 -3 -119 -17 -280
-26 -280 -5 0 -7 4 -3 9 3 5 2 42 -2 83 -3 40 -8 67 -11 60 -2 -6 -8 -12 -13
-12 -16 0 -10 99 8 127 10 15 18 42 19 62 2 30 27 220 34 256 1 6 2 17 0 25
-2 17 -25 -58 -34 -112 -4 -21 -11 -38 -16 -38 -6 0 -10 -20 -10 -45 0 -25 -4
-45 -8 -45 -4 0 -13 -26 -20 -57 -22 -104 -28 -128 -40 -150 -7 -12 -12 -43
-12 -70 0 -33 -3 -43 -9 -34 -7 11 -11 4 -16 -25 -3 -21 -10 -55 -15 -74 -5
-19 -11 -57 -14 -83 -3 -27 -12 -55 -20 -63 -17 -17 -31 -77 -23 -98 3 -8 -1
-35 -8 -60 -9 -29 -10 -46 -4 -46 6 0 7 -5 4 -10 -4 -6 -10 -8 -14 -5 -5 2
-12 -36 -15 -85 -5 -54 -13 -93 -21 -100 -7 -6 -10 -20 -7 -32 3 -14 1 -19 -6
-14 -8 5 -12 0 -12 -13 0 -25 8 -26 32 -4 17 15 18 15 18 -11 0 -67 28 12 35
99 1 11 11 42 23 69 12 27 22 57 22 67 0 10 7 22 17 27 12 7 18 32 23 107 5
59 13 100 20 105 7 4 10 14 8 21 -3 8 -1 23 5 34 6 11 15 71 21 134 10 99 14
114 29 117 15 2 18 -2 13 -22 -15 -58 -34 -227 -30 -262 3 -31 2 -33 -5 -12
-9 26 -9 32 -17 -115 -1 -22 -9 -65 -18 -95 -8 -30 -16 -94 -18 -142 -1 -53
-6 -86 -12 -85 -6 1 -12 -9 -14 -23 -1 -14 -10 -55 -18 -91 -9 -37 -16 -88
-17 -115 -1 -27 -5 -54 -9 -59 -3 -6 -11 -38 -17 -71 -11 -60 -7 -92 12 -105
21 -14 -10 -16 -43 -3 -22 9 -41 27 -50 47 -8 18 -29 41 -47 52 -28 18 -32 25
-33 65 0 25 5 61 10 80 6 19 15 64 20 100 10 79 38 219 47 240 4 8 7 38 8 66
0 28 5 62 11 75 17 36 35 119 29 130 -4 5 -2 9 2 9 12 0 33 82 33 130 0 21 4
41 9 44 5 4 19 48 31 99 11 50 28 107 36 125 8 18 12 37 8 43 -3 6 1 27 9 47
23 57 47 142 47 168 0 13 5 24 10 24 6 0 10 17 10 39 0 21 6 44 14 50 8 7 16
28 19 49 11 75 31 152 39 152 4 0 8 -10 8 -22 1 -23 1 -23 15 2 8 14 14 36 14
50 0 14 -3 19 -6 13 -7 -19 -20 -16 -26 6 -6 22 26 57 42 46 13 -8 15 7 2 20
-5 6 -12 75 -15 155 -9 219 -16 266 -29 200 -5 -21 -15 -34 -33 -40 -19 -8
-25 -16 -21 -30 3 -10 0 -21 -7 -23 -21 -8 -36 4 -36 29 0 13 -4 24 -10 24 -5
0 -10 -13 -10 -30 0 -20 -5 -30 -15 -30 -8 0 -15 -5 -15 -11 0 -7 9 -9 23 -5
29 7 79 -6 85 -22 2 -7 -3 -12 -11 -12 -9 0 -18 -6 -20 -12 -4 -10 -6 -10 -6
0 -1 20 -38 14 -44 -7 -3 -12 -15 -21 -33 -23 -32 -4 -43 -23 -17 -30 10 -3
19 -15 20 -27 1 -12 -3 -19 -8 -15 -21 13 -38 -16 -28 -49 5 -18 9 -43 9 -57
-1 -24 -1 -24 -15 -5 -8 11 -19 25 -24 31 -5 7 -9 13 -8 15 1 2 0 3 -2 1 -3
-1 -6 -31 -7 -65 -1 -35 -7 -81 -13 -102 -6 -22 -8 -63 -5 -91 7 -58 -10 -84
-21 -33 -7 32 -7 32 -61 26 -30 -3 -54 -3 -54 -1 0 9 24 30 43 37 9 3 17 13
17 22 0 8 4 15 9 15 5 0 9 17 10 37 0 21 2 47 4 58 1 11 -2 20 -8 20 -31 1
-37 18 -31 86 5 44 4 69 -3 69 -15 0 -21 -30 -25 -115 -4 -78 -16 -118 -16
-52 0 36 -13 56 -25 37 -10 -17 5 -91 17 -83 7 4 9 -1 6 -15 -3 -12 0 -29 7
-39 11 -14 8 -21 -16 -46 -16 -16 -29 -36 -29 -46 0 -9 -5 -22 -11 -28 -7 -7
-13 -38 -14 -70 -2 -32 -8 -78 -13 -103 -6 -25 -15 -99 -22 -165 -8 -81 -17
-126 -27 -137 -12 -13 -12 -18 -3 -18 8 0 10 -8 6 -24 -3 -14 -1 -28 4 -31 8
-5 8 -11 0 -20 -6 -7 -13 -44 -15 -82 -3 -37 -9 -69 -14 -71 -5 -2 -7 -11 -4
-22 3 -12 -4 -27 -21 -41 -14 -12 -23 -26 -20 -31 3 -4 -6 -8 -19 -8 -14 0
-27 -6 -30 -13 -3 -9 5 -12 30 -9 27 3 34 1 31 -9 -3 -8 -11 -15 -19 -15 -8
-1 -20 -2 -26 -3 -8 -1 -13 -16 -13 -42 0 -26 4 -38 11 -33 6 3 9 17 6 30 -3
20 0 24 19 24 22 0 24 -4 23 -42 -1 -109 -15 -190 -34 -204 -11 -8 -25 -27
-31 -42 -12 -27 -13 -27 -19 -4 -10 30 -25 28 -25 -3 0 -20 5 -25 25 -25 14 0
25 -4 25 -10 0 -5 -6 -10 -12 -10 -9 0 -9 -3 1 -9 12 -8 11 -13 -10 -30 -13
-11 -29 -20 -34 -21 -10 0 -45 -35 -45 -45 0 -3 12 -5 28 -5 22 -1 18 -4 -23
-20 -27 -11 -53 -20 -57 -20 -14 0 -30 42 -22 58 9 22 5 84 -7 96 -6 6 -13 6
-21 -2 -14 -14 -78 -16 -78 -3 0 5 16 9 36 9 40 0 63 23 64 63 0 14 5 30 11
36 8 8 6 17 -7 32 -22 25 -52 27 -69 4 -7 -9 -17 -13 -23 -9 -19 12 -14 44 10
60 20 14 24 14 46 0 13 -9 26 -13 30 -10 5 5 4 72 -1 169 -1 16 -17 25 -17 9
0 -4 -16 -12 -35 -18 -33 -10 -35 -10 -35 12 0 29 26 43 68 37 20 -3 32 -1 32
6 0 6 -5 11 -11 11 -5 0 -7 4 -4 10 11 17 -6 80 -22 80 -16 0 -17 68 -1 159 7
37 6 69 -2 103 -9 34 -9 53 -2 60 7 7 12 -1 17 -24 7 -29 9 -30 16 -13 10 27
11 107 1 123 -5 7 -16 10 -25 6 -27 -10 -87 5 -87 21 0 8 -7 15 -16 15 -13 0
-14 -3 -5 -14 6 -8 13 -44 14 -80 2 -63 1 -66 -20 -66 -29 0 -29 -14 0 -28 20
-10 18 -11 -20 -11 -23 -1 -45 4 -48 9 -10 16 -29 11 -58 -15 -15 -14 -27 -21
-27 -15 0 5 -3 9 -7 9 -25 -4 -43 3 -43 16 0 23 -27 18 -33 -7 -4 -12 -5 -22
-4 -23 19 -3 64 -38 72 -54 5 -12 16 -21 24 -21 12 0 12 3 3 12 -19 19 -15 40
7 33 14 -4 21 0 27 17 7 23 21 38 37 38 5 0 6 -4 2 -9 -3 -6 4 -19 16 -29 19
-19 20 -24 10 -74 -7 -31 -20 -62 -32 -72 -25 -21 -20 -40 12 -43 13 -2 35 -4
49 -5 19 -2 26 2 28 20 3 16 -2 22 -16 22 -26 0 -33 10 -21 31 15 29 39 22 55
-16 22 -53 18 -68 -26 -95 -32 -20 -38 -29 -34 -47 4 -16 1 -25 -11 -29 -20
-8 -34 11 -28 37 7 25 -13 48 -37 42 -16 -4 -18 0 -16 46 2 32 -1 51 -8 51 -8
0 -8 2 0 8 6 4 16 17 23 30 14 26 -3 31 -34 8 -11 -8 -24 -12 -30 -11 -5 2
-25 6 -43 9 -30 5 -33 4 -30 -17 2 -12 12 -25 23 -28 15 -4 20 -13 19 -41 -1
-30 3 -36 30 -47 26 -9 28 -13 16 -22 -12 -8 -12 -12 -2 -16 23 -9 -8 -33 -42
-33 l-31 1 23 18 c28 24 28 31 -2 31 -14 0 -30 -10 -40 -25 -12 -18 -13 -25
-4 -25 10 0 10 -2 0 -9 -23 -14 -10 -46 21 -49 15 -2 27 -9 27 -16 0 -7 6 -20
13 -30 12 -16 14 -16 36 3 13 12 38 21 55 21 17 0 40 6 51 14 11 7 30 16 43
20 18 6 22 4 22 -14 0 -11 -8 -23 -17 -26 -10 -3 -25 -9 -34 -14 -9 -5 -26 -6
-37 -3 -14 3 -24 -2 -31 -16 -13 -23 -49 -27 -113 -12 -30 7 -42 5 -59 -10
-17 -15 -20 -25 -14 -59 4 -24 12 -40 21 -40 7 0 11 -6 8 -13 -5 -14 20 -40
49 -50 10 -4 24 0 35 11 17 17 52 19 52 2 0 -15 -71 -42 -96 -36 -13 4 -31 17
-40 31 -25 39 -44 32 -42 -15 1 -38 3 -40 32 -39 33 1 106 -21 106 -32 0 -4
-17 -2 -37 3 -66 18 -98 16 -98 -6 0 -11 -5 -21 -12 -23 -8 -3 -13 12 -16 44
l-3 48 -2 -52 c-2 -44 -5 -53 -20 -53 -14 0 -19 8 -19 33 -6 302 -5 348 5 373
6 16 12 70 15 119 2 50 1 83 -1 75 -6 -17 -31 -44 -37 -39 -10 11 10 62 26 66
14 4 19 15 19 44 0 21 5 50 12 64 10 22 8 30 -11 55 -17 24 -19 30 -6 30 17 0
38 45 32 69 -4 14 -5 13 -6 -1 -1 -12 -9 -16 -28 -15 -26 2 -28 0 -30 -49 -2
-36 2 -56 12 -64 22 -18 19 -51 -5 -57 -11 -3 -23 -16 -26 -29 -4 -17 -13 -24
-29 -24 -13 0 -26 -7 -29 -16 -5 -14 -1 -16 24 -11 17 4 30 2 30 -3 0 -6 -4
-10 -10 -10 -5 0 -10 -7 -10 -15 0 -8 5 -15 10 -15 6 0 10 -5 10 -11 0 -5 -5
-7 -11 -3 -19 11 -29 -18 -29 -87 0 -76 -17 -112 -44 -90 -9 8 -16 27 -15 45
1 30 1 30 9 6 6 -19 9 -11 10 35 4 88 0 127 -16 150 -8 10 -14 29 -14 42 0 12
-4 24 -10 28 -5 3 -10 -22 -12 -62 -2 -51 -7 -68 -17 -68 -8 0 -16 6 -19 13
-2 7 2 10 12 6 11 -4 16 -1 15 12 -2 30 -17 81 -18 62 0 -9 -11 -19 -23 -21
l-23 -4 23 -2 c13 0 22 -7 22 -17 0 -14 -3 -14 -15 -4 -12 10 -18 10 -29 0
-17 -13 -11 -37 16 -63 22 -21 24 -47 3 -47 -8 0 -15 5 -15 10 0 6 -7 10 -15
10 -8 0 -15 -6 -15 -14 0 -8 7 -16 15 -20 21 -8 19 -33 -3 -40 -23 -8 -25 -36
-3 -36 37 0 59 13 59 33 2 60 5 78 16 74 16 -5 19 -89 3 -110 -9 -13 -27 -19
-55 -20 -35 -2 -44 -6 -48 -24 -9 -36 5 -63 37 -70 53 -10 45 -25 -11 -22
l-53 4 -12 -51 c-7 -31 -8 -60 -3 -74 5 -14 5 -27 -2 -34 -16 -16 -12 -25 10
-19 11 3 20 1 20 -5 0 -21 -12 -42 -25 -42 -33 0 -19 -90 17 -108 22 -10 22
-11 -7 -11 -16 0 -36 3 -43 8 -18 11 -27 268 -10 289 7 8 14 56 16 108 4 77 1
98 -12 112 -14 17 -14 19 4 35 25 21 29 97 6 97 -8 0 -18 -5 -21 -11 -4 -6
-14 -8 -22 -5 -19 8 -68 -25 -52 -35 7 -4 12 -22 11 -41 -2 -45 6 -66 26 -71
14 -4 14 -6 -5 -12 -11 -4 -23 -15 -26 -26 -3 -10 -10 -19 -16 -19 -14 0 -14
27 -1 35 21 13 8 43 -29 67 -22 14 -42 23 -45 20 -9 -8 4 -83 20 -119 8 -18
23 -33 32 -33 15 -1 15 -2 -1 -11 -10 -6 -23 -9 -30 -6 -16 5 -105 -26 -120
-43 -10 -10 -6 -11 17 -7 29 5 29 5 9 -12 -24 -19 -49 -83 -29 -75 16 6 33
-14 36 -41 5 -43 0 -65 -16 -65 -8 0 -12 4 -9 10 3 5 1 19 -6 32 -11 21 -12
21 -25 3 -19 -26 -18 -45 3 -45 13 0 14 -3 5 -12 -7 -7 -12 -22 -12 -35 0 -13
-5 -23 -11 -23 -6 0 -8 -9 -3 -22 6 -20 5 -20 -8 -7 -12 11 -16 42 -17 124 -1
61 -2 142 -3 180 -1 86 -1 487 1 534 3 51 -9 97 -20 80 -5 -8 -9 -29 -9 -46 0
-18 -4 -33 -9 -33 -6 0 -9 38 -8 88 2 65 -1 86 -10 84 -7 -1 -13 3 -13 9 0 5
-4 8 -9 5 -5 -3 -3 -23 5 -43 19 -54 17 -71 -8 -76 l-23 -4 23 -8 c21 -7 23
-12 18 -44 -3 -20 -6 -40 -6 -46 4 -128 2 -175 -9 -175 -5 0 -11 10 -15 23 -5
18 -8 19 -16 7 -6 -11 -12 -12 -20 -4 -8 8 -7 14 5 24 8 7 15 17 15 23 0 6 6
18 14 26 13 14 12 22 -5 60 -10 24 -19 49 -19 57 0 7 -13 20 -29 29 -28 14
-31 14 -45 -7 -21 -30 -20 -51 4 -66 21 -13 27 -56 10 -67 -6 -3 -13 2 -17 12
-6 16 -40 53 -49 53 -2 0 -14 -5 -27 -11 -18 -8 -23 -17 -19 -32 3 -14 1 -18
-6 -13 -8 5 -12 0 -12 -13 0 -27 12 -27 28 0 8 12 21 19 34 17 29 -4 34 -25 9
-33 -12 -3 -21 -13 -21 -21 0 -8 -7 -14 -16 -14 -8 0 -12 -5 -8 -11 3 -6 0
-15 -7 -20 -12 -8 -12 -11 1 -19 10 -6 11 -10 3 -10 -7 0 -10 -6 -7 -14 3 -8
1 -22 -4 -31 -8 -15 -11 -14 -29 8 l-20 25 -12 -34 c-7 -19 -10 -42 -6 -53 3
-10 -1 -23 -9 -30 -12 -10 -16 -8 -21 8 -3 12 -3 26 0 31 4 6 3 45 0 86 -7 70
-8 74 -22 54 -9 -13 -21 -19 -30 -16 -12 5 -14 0 -11 -23 2 -17 1 -28 -2 -26
-4 2 -12 -12 -18 -33 -10 -31 -9 -39 4 -49 14 -10 14 -12 -1 -21 -14 -7 -9
-11 26 -20 73 -19 83 -35 19 -28 -30 3 -66 9 -80 13 -23 6 -24 5 -11 -11 13
-15 12 -16 -13 -6 -39 15 -53 12 -30 -5 18 -15 17 -16 -16 -9 -19 3 -39 7 -45
8 -5 0 -11 -9 -13 -22 -2 -14 -10 -22 -23 -22 -10 0 -19 -6 -19 -14 0 -8 -9
-18 -20 -21 -11 -3 -20 -13 -20 -21 0 -8 -4 -14 -10 -14 -14 0 -13 12 6 50 9
18 25 35 36 38 17 4 15 7 -12 20 -26 13 -35 13 -55 2 -28 -15 -33 -30 -9 -30
9 0 14 -6 11 -12 -2 -7 -12 -12 -21 -12 -14 2 -15 -1 -4 -14 11 -13 10 -15 -4
-10 -10 4 -19 1 -22 -8 -7 -19 -26 -18 -26 2 0 8 -4 12 -10 9 -10 -6 -2 -67
11 -75 4 -3 10 -17 14 -31 5 -20 1 -32 -16 -47 -21 -21 -23 -21 -48 -3 -14 10
-35 20 -46 22 -17 4 -20 13 -22 54 -1 28 -6 66 -12 85 -23 81 -36 213 -22 238
8 15 8 23 0 28 -7 4 -9 22 -5 48 5 28 2 48 -8 61 -10 14 -11 22 -2 30 13 14
14 226 0 223 -5 -2 -10 -12 -11 -23 -2 -37 -4 -40 -13 -20 -8 19 -9 19 -9 1
-1 -10 6 -24 15 -31 14 -9 14 -16 5 -33 -9 -16 -9 -28 -1 -42 12 -22 3 -51 -9
-31 -10 15 -101 -16 -101 -35 0 -8 -3 -14 -7 -14 -13 0 -7 -58 7 -75 7 -8 30
-18 51 -21 29 -5 39 -11 39 -25 0 -21 -26 -26 -32 -7 -3 7 -10 8 -17 3 -11 -6
-10 -10 3 -17 9 -5 16 -17 16 -27 0 -10 7 -32 15 -47 8 -16 15 -35 15 -42 0
-20 -24 -8 -29 14 -2 10 -12 31 -22 46 -11 14 -19 36 -19 47 0 12 -6 21 -14
21 -26 0 -43 28 -50 82 -6 40 -14 58 -33 74 -23 18 -25 22 -12 45 l14 24 3
-23 c3 -20 24 -28 23 -9 -1 28 -16 84 -25 96 -8 11 -8 13 2 7 8 -5 12 -1 12
11 0 19 -37 49 -48 38 -3 -3 -13 -34 -22 -67 -17 -70 -34 -84 -44 -37 -3 18
-8 30 -11 28 -8 -9 16 -79 27 -76 6 1 13 -4 15 -10 3 -7 -2 -13 -11 -13 -22 0
-20 -20 2 -21 10 0 12 -3 5 -6 -17 -6 -16 -28 1 -100 8 -32 17 -75 19 -95 l6
-37 -28 32 c-33 38 -49 84 -53 151 -3 48 -22 75 -75 104 -11 7 -16 29 -19 83
-10 210 -58 367 -124 408 l-25 15 23 -26 c30 -33 40 -80 32 -143 -4 -27 -8
-41 -9 -30 -1 11 -13 52 -26 90 -14 39 -25 71 -25 73 0 1 -5 2 -10 2 -7 0 -6
-8 1 -22 11 -21 29 -274 21 -298 -2 -6 -8 -7 -14 -4 -5 4 -2 -5 7 -20 10 -15
15 -29 11 -33 -3 -3 0 -13 7 -21 9 -13 9 -14 0 -8 -8 4 -13 1 -13 -8 0 -15 -4
-17 -27 -16 -4 0 -6 14 -5 30 2 17 -1 30 -5 30 -5 0 -9 -16 -9 -36 1 -33 -2
-37 -39 -50 -22 -8 -130 -36 -240 -63 -342 -85 -357 -89 -465 -121 -58 -18
-150 -42 -205 -56 -55 -13 -118 -28 -140 -34 -22 -6 -89 -24 -150 -41 -60 -16
-130 -34 -155 -39 -25 -5 -65 -14 -90 -20 -25 -6 -52 -13 -60 -15 -8 -2 -40
-11 -70 -20 -30 -9 -91 -25 -135 -35 -44 -11 -116 -30 -160 -44 -44 -14 -118
-35 -165 -46 -262 -64 -594 -151 -640 -168 -14 -5 -99 -26 -190 -46 -91 -21
-208 -50 -260 -66 -52 -16 -153 -41 -225 -56 -71 -14 -138 -30 -147 -35 -20
-11 -115 -12 -122 -1 -9 14 -20 148 -21 262 -4 251 -45 366 -175 498 -57 58
-116 91 -235 133 -91 31 -170 62 -229 88 -23 11 -106 48 -186 84 -288 129
-397 181 -505 242 -44 25 -102 56 -128 70 -26 14 -72 41 -102 60 -30 19 -57
35 -60 35 -4 0 -30 15 -58 33 -98 63 -243 147 -254 147 -6 0 -13 7 -17 15 -6
17 -26 20 -26 4 0 -6 13 -16 30 -22 16 -6 30 -15 30 -19 0 -4 7 -8 15 -8 8 0
15 -3 15 -7 0 -5 10 -13 23 -19 47 -24 123 -67 147 -84 49 -35 237 -144 340
-197 58 -30 130 -69 160 -87 30 -18 73 -39 95 -48 22 -9 76 -33 120 -53 125
-58 228 -104 310 -139 17 -7 60 -27 98 -44 37 -18 72 -32 77 -32 14 0 186 -68
232 -91 64 -33 152 -128 203 -223 39 -70 50 -149 54 -376 1 -69 7 -145 12
-170 6 -24 8 -54 5 -66 -3 -12 3 -42 14 -66 23 -51 26 -98 6 -98 -8 0 -24 -12
-36 -27 l-22 -28 21 38 c23 41 27 62 11 52 -6 -4 -10 9 -10 32 0 29 -3 35 -11
23 -8 -12 -9 -11 -4 6 5 21 -17 87 -55 164 -4 9 -11 31 -15 50 -6 26 -9 31
-14 17 -4 -9 -7 11 -8 45 -1 35 -6 64 -12 66 -6 2 -12 22 -12 45 l-2 42 -6
-40 -6 -40 -7 33 c-4 17 -5 45 -2 61 4 16 1 32 -5 35 -6 4 -11 2 -11 -4 0 -6
-5 -8 -10 -5 -6 4 -9 14 -8 23 3 14 -6 17 -49 17 -37 -1 -53 3 -53 12 0 7 -4
13 -10 13 -5 0 -10 -7 -10 -15 0 -21 -20 -19 -21 3 0 13 -2 12 -9 -5 -15 -36
-34 -28 -63 25 -9 19 -17 40 -17 48 0 8 -7 14 -15 14 -8 0 -15 -4 -15 -10 0
-5 -9 -10 -20 -10 -12 0 -20 -7 -20 -17 -1 -20 -30 -64 -30 -44 0 7 -5 9 -11
6 -6 -4 -8 -14 -5 -22 3 -8 -3 -26 -13 -41 -11 -15 -22 -48 -26 -74 -5 -39 -3
-47 12 -51 15 -4 14 -5 -4 -6 -15 -1 -23 6 -26 22 -4 19 -4 19 -6 -5 0 -15 -6
-30 -12 -34 -7 -4 -9 -21 -6 -41 4 -24 2 -36 -8 -39 -18 -7 -30 -41 -26 -74 4
-33 18 -47 33 -32 17 17 25 15 31 -8 4 -17 0 -20 -29 -20 -19 0 -34 5 -34 10
0 6 -4 10 -9 10 -4 0 -14 -21 -21 -47 -7 -27 -22 -65 -32 -86 -10 -21 -16 -42
-13 -47 3 -6 3 -10 0 -10 -8 0 -69 44 -73 53 -2 4 -10 7 -18 7 -8 0 -14 4 -14
9 0 5 -46 37 -103 71 -90 54 -364 243 -537 371 -30 22 -94 66 -141 97 -48 31
-124 84 -169 117 -45 33 -101 75 -126 92 l-44 33 0 -950 c0 -585 4 -950 9
-950 15 0 15 -88 1 -125 -6 -15 -10 -137 -10 -279 l0 -254 33 -7 c32 -7 32 -7
7 -15 -21 -7 -19 -8 17 -9 l41 -1 -15 -31 c-8 -17 -22 -33 -31 -36 -29 -12
-52 -43 -51 -70 0 -16 3 -22 6 -15 2 6 15 12 28 12 12 0 28 7 35 15 11 13 8
15 -13 15 -19 0 -25 4 -21 15 4 8 14 15 24 15 10 0 21 8 23 17 4 17 5 17 6 1
2 -27 24 -22 56 12 16 17 36 30 44 30 14 0 14 1 1 10 -17 11 -6 13 85 15 28 0
58 5 68 9 12 6 17 4 17 -8 0 -22 9 -20 52 9 20 14 39 25 42 25 12 0 -18 -50
-33 -55 -18 -6 -81 -61 -81 -71 0 -4 -8 -13 -17 -20 -17 -12 -17 -13 -1 -14 9
0 25 10 35 23 10 12 34 33 53 47 19 13 39 30 43 38 5 7 18 18 30 23 12 5 33
16 47 24 26 15 45 0 19 -16 -20 -12 -8 -17 33 -12 28 4 35 9 31 21 -5 11 -2
14 10 9 9 -3 17 -2 17 3 0 6 18 10 40 10 22 0 40 -4 40 -10 0 -5 -18 -10 -39
-10 -42 0 -62 -14 -35 -24 39 -15 107 5 104 31 0 4 18 9 41 11 27 2 39 0 34
-7 -3 -6 -14 -11 -23 -11 -15 -1 -15 -2 2 -11 14 -9 24 -7 47 10 35 26 39 26
39 1 0 -12 -10 -25 -25 -32 -14 -6 -25 -15 -25 -20 0 -15 29 -8 42 10 7 9 26
24 42 32 16 8 31 21 34 27 5 19 -28 29 -39 12 -6 -10 -11 -11 -19 -3 -8 8 -4
16 16 29 24 16 29 16 39 2 10 -14 46 -20 107 -18 20 1 26 5 22 16 -7 17 21 21
31 5 4 -6 11 -8 16 -4 13 8 102 -16 111 -30 12 -18 9 -31 -4 -18 -14 14 -58
16 -58 3 0 -5 7 -12 16 -15 26 -10 5 -27 -32 -24 -23 1 -40 -4 -52 -16 -18
-20 -17 -20 33 0 10 4 15 0 15 -10 0 -21 16 -21 24 0 4 9 9 14 13 10 3 -3 15
1 24 10 14 12 44 18 113 21 87 4 99 2 143 -22 53 -28 95 -32 116 -11 7 8 36
26 63 41 43 23 98 58 129 82 6 5 30 18 55 31 112 57 450 271 450 285 0 14 57
67 72 67 7 0 26 7 42 15 16 8 34 15 40 14 18 -2 56 13 56 21 0 5 -6 11 -12 14
-7 3 -4 4 7 3 11 -2 19 -9 18 -18 -2 -12 9 -15 52 -15 30 0 49 4 42 8 -7 4
-20 8 -29 8 -9 0 -20 5 -24 11 -5 8 1 10 19 5 36 -9 61 2 46 20 -17 20 19 19
41 -1 13 -12 24 -13 42 -6 13 5 36 7 50 4 29 -6 98 14 98 27 0 14 -373 12
-382 -3 -12 -19 -28 11 -28 56 0 26 4 37 15 37 8 0 15 -5 15 -11 0 -8 4 -8 13
-1 6 5 39 14 72 20 77 12 89 15 97 27 10 14 0 25 -25 26 -50 2 37 18 96 18
104 -1 117 1 117 11 0 6 -9 10 -21 10 -11 0 -17 5 -14 10 11 18 52 10 68 -13
l16 -22 -2 30 c-2 22 3 30 18 33 11 2 23 9 27 15 4 6 22 12 40 13 42 2 70 13
62 25 -3 5 0 9 6 9 7 0 26 6 43 14 38 17 117 25 117 13 0 -5 6 -5 13 1 7 6 32
14 55 18 23 3 40 10 37 14 -8 13 102 22 179 15 95 -9 157 1 163 26 3 10 13 19
22 19 12 0 13 2 3 8 -7 5 -26 7 -42 4 -21 -3 -27 -8 -23 -20 5 -11 3 -13 -6
-7 -7 4 -16 3 -20 -3 -9 -15 -81 -27 -81 -13 0 6 8 11 19 11 10 0 31 6 45 14
l27 14 -26 6 c-14 4 -30 4 -35 1 -6 -4 -10 -2 -10 4 0 5 14 12 31 16 17 4 33
15 36 24 3 11 17 17 46 19 23 1 44 8 48 13 4 7 13 7 27 -2 12 -7 25 -10 29 -6
4 5 1 12 -7 17 -13 8 -13 10 0 10 9 0 22 -6 29 -12 8 -8 11 -8 8 -2 -9 16 26
24 70 17 21 -4 38 -1 42 5 4 7 41 14 82 17 163 10 239 22 239 36 0 6 -4 8 -9
5 -5 -4 -20 -2 -32 2 l-23 9 24 13 c14 7 28 17 31 23 4 5 15 5 29 -3 19 -10
21 -9 18 7 -3 13 -13 18 -43 19 -85 3 -95 4 -95 13 0 8 69 24 108 26 8 0 20 8
27 18 7 10 16 14 19 8 3 -5 0 -11 -6 -14 -7 -2 -10 -8 -5 -12 10 -12 59 17 65
37 3 13 11 16 33 11 22 -4 34 0 48 16 10 11 21 18 25 14 3 -4 12 0 19 9 17 22
68 33 78 16 6 -10 13 -7 29 10 12 13 33 22 50 22 16 0 32 5 35 11 4 6 19 9 33
8 15 -2 34 1 42 6 8 5 43 8 78 6 49 -2 66 1 75 13 7 10 34 19 65 23 62 7 79
23 25 23 -39 0 -72 13 -57 23 5 2 34 8 64 12 30 4 60 11 65 15 6 5 37 10 70
12 33 2 69 8 79 13 14 6 17 5 12 -3 -4 -7 -3 -12 3 -12 5 0 12 4 15 9 6 9 129
22 261 26 44 2 96 7 116 13 21 5 133 9 251 10 239 0 295 4 386 33 64 20 197
51 422 98 109 23 125 29 125 46 0 21 -94 91 -129 97 -11 2 -22 9 -24 17 -4 11
2 13 27 8 18 -4 41 -2 51 3 13 7 35 6 72 -4 53 -14 84 -11 55 5 -23 13 -159
19 -203 9 -42 -10 -97 9 -160 56 -17 13 -43 26 -58 30 -46 11 -36 19 20 16 41
-3 57 -9 64 -23 7 -12 21 -19 40 -19 15 0 30 -4 32 -9 2 -4 27 -5 56 -1 39 5
55 3 60 -6 8 -14 173 -34 194 -24 7 4 45 3 83 0 70 -7 71 -11 5 -14 -99 -5
-113 -7 -107 -13 4 -3 52 -5 106 -4 93 2 101 1 111 -19 10 -19 9 -21 -7 -16
-22 7 -91 -8 -106 -23 -7 -7 0 -15 26 -26 39 -16 78 -16 89 0 4 6 19 5 41 -3
18 -7 46 -12 61 -12 21 0 27 -4 22 -15 -3 -8 -9 -22 -12 -30 -4 -11 0 -15 16
-15 17 0 20 3 12 13 -8 9 4 13 54 15 39 1 64 -2 64 -8 0 -5 -8 -11 -17 -12
-10 -1 -25 -2 -33 -4 -8 -1 -21 -2 -29 -3 -8 -1 -11 -4 -7 -8 4 -5 69 -9 144
-11 75 -1 144 -3 152 -3 45 -1 89 -12 87 -21 -2 -13 59 -29 82 -21 13 5 14 3
4 -7 -8 -9 -9 -19 -2 -32 14 -27 27 -22 21 8 -3 19 -1 25 7 20 6 -4 9 -12 6
-17 -10 -14 37 -27 68 -18 16 5 25 4 22 -2 -4 -5 -2 -9 4 -9 5 0 13 5 16 10 4
7 12 7 25 0 26 -14 57 -13 63 3 3 6 6 2 6 -10 1 -31 36 -46 85 -40 23 4 71 2
106 -3 36 -6 105 -12 155 -16 113 -7 125 -15 19 -13 -93 2 -395 -21 -409 -31
-5 -4 -19 -4 -30 1 -25 10 -148 10 -200 0 -39 -7 -38 -8 32 -15 39 -4 80 -5
91 -2 12 4 26 0 35 -9 21 -21 77 -19 93 3 13 16 13 16 14 -2 0 -17 7 -18 80
-14 45 3 76 2 70 -2 -6 -4 19 -7 57 -7 37 0 91 -1 118 -2 l50 -3 -62 -12 c-35
-7 -66 -15 -69 -19 -4 -3 -16 -2 -26 4 -16 9 -19 8 -16 -3 3 -9 27 -13 86 -13
51 0 86 -5 93 -12 19 -19 10 -22 -77 -24 -61 -1 -81 -5 -81 -15 0 -10 14 -14
49 -14 26 0 48 -4 48 -10 0 -5 11 -10 25 -10 15 0 25 -6 25 -14 0 -20 -35 -29
-60 -16 -12 6 -31 9 -43 7 -18 -3 -17 -5 6 -6 21 -1 28 -5 25 -18 -4 -21 -62
-30 -82 -14 -8 7 -24 7 -50 0 -23 -6 -48 -7 -64 -2 -29 10 -62 6 -62 -7 0 -4
10 -8 23 -8 77 -2 198 -13 218 -21 l24 -10 -25 0 c-17 -1 -21 -4 -13 -12 8 -8
24 -5 58 10 51 23 85 27 85 11 0 -5 -12 -10 -27 -10 l-28 0 30 -16 c35 -19
105 -35 105 -24 0 4 -7 13 -15 20 -8 7 -13 16 -10 20 7 12 55 -1 55 -15 0 -14
22 -25 50 -25 24 0 96 -67 119 -111 l18 -34 252 -1 c160 -1 256 -5 262 -11 8
-8 -19 -11 -85 -12 -63 -1 -96 2 -96 9 0 6 -5 8 -10 5 -7 -4 -4 -13 8 -23 18
-16 15 -17 -54 -19 -41 -1 -99 -10 -130 -19 -30 -9 -75 -14 -100 -12 -24 2
-44 2 -44 1 0 -1 7 -9 17 -18 14 -14 14 -18 2 -26 -12 -7 -12 -9 0 -9 8 0 12
-3 9 -6 -12 -12 -23 -3 -23 18 0 19 -6 22 -48 23 -27 0 -51 -3 -53 -7 -3 -4
-27 -8 -53 -8 -32 0 -53 -5 -61 -15 -10 -12 -15 -13 -20 -4 -12 18 -110 19
-152 1 -21 -9 -38 -20 -38 -24 0 -4 23 -5 52 -3 29 2 57 0 64 -6 18 -14 102
-27 112 -17 12 12 102 6 103 -7 0 -5 -15 -13 -33 -16 l-33 -6 30 -2 c17 0 37
4 45 9 11 7 22 3 40 -15 20 -18 35 -23 73 -21 30 1 52 7 57 16 9 13 11 13 19
1 5 -8 18 -12 28 -9 11 3 46 1 79 -3 32 -5 68 -5 79 -1 13 4 -1 9 -45 14 -36
3 -89 10 -117 13 -33 5 -58 4 -66 -3 -8 -7 -18 -7 -27 -2 -8 5 -24 7 -35 3
-17 -5 -18 -4 -6 11 15 18 47 21 57 5 5 -8 10 -6 16 5 6 11 23 16 53 16 25 0
45 5 45 10 0 6 7 10 15 10 8 0 15 -4 15 -10 0 -5 -7 -10 -15 -10 -8 0 -15 -5
-15 -11 0 -7 14 -8 43 -3 23 4 69 8 102 9 118 4 114 3 108 25 -5 20 -7 20 -24
4 -24 -21 -115 -20 -156 1 -19 10 -50 13 -103 10 -51 -3 -66 -2 -45 4 17 5 22
9 13 10 -28 2 -21 21 7 21 16 0 25 -6 25 -15 0 -8 7 -15 15 -15 8 0 15 6 15
14 0 18 86 26 103 9 8 -8 70 -13 191 -17 98 -2 181 -8 185 -14 3 -5 22 -15 42
-22 36 -13 36 -13 17 -32 -12 -12 -24 -16 -31 -10 -7 4 -81 6 -166 4 -93 -3
-148 -8 -140 -13 10 -6 8 -9 -8 -9 -13 0 -31 -8 -42 -19 -18 -18 -17 -18 22
-18 26 0 45 -6 52 -17 7 -9 18 -17 26 -18 8 -1 -17 -5 -56 -9 -81 -9 -176 -26
-157 -28 6 0 12 -10 12 -21 0 -11 6 -20 13 -20 6 0 -1 -11 -17 -23 -20 -16
-25 -26 -18 -31 15 -9 32 1 32 20 0 8 10 14 23 14 15 0 18 3 9 8 -21 14 27 29
114 36 43 4 93 9 109 11 22 4 38 -2 60 -20 17 -14 23 -24 15 -23 -8 1 -26 -4
-39 -11 -14 -8 -38 -11 -58 -8 -26 5 -35 2 -40 -11 -4 -9 -16 -23 -26 -31 -20
-14 -20 -14 2 -23 13 -4 34 -5 47 -2 19 5 22 9 13 20 -9 11 -7 15 7 21 10 4
19 2 22 -5 6 -19 40 -14 38 6 -1 12 7 18 29 20 25 2 27 1 12 -8 -9 -6 -15 -15
-13 -19 6 -8 90 -6 128 4 24 6 29 3 48 -34 18 -36 25 -41 55 -41 24 0 35 -5
35 -15 0 -8 11 -17 25 -21 29 -7 33 -20 8 -28 -44 -13 -161 -18 -167 -7 -9 14
-83 14 -92 0 -6 -11 -52 -8 -114 7 -20 4 -22 3 -10 -5 16 -11 19 -11 -72 -16
-21 -1 -38 2 -38 6 0 5 -7 9 -15 9 -8 0 -15 -4 -15 -10 0 -5 5 -10 11 -10 5 0
7 -5 3 -11 -4 -7 -9 -7 -13 -1 -9 14 -51 25 -51 13 0 -6 6 -11 12 -11 7 0 2
-7 -10 -16 -12 -8 -22 -19 -22 -25 0 -15 32 -10 52 8 14 13 18 13 18 2 0 -10
14 -14 50 -15 27 -1 47 3 44 8 -3 4 2 8 11 8 9 0 13 -5 10 -10 -3 -6 4 -10 16
-10 19 0 20 2 8 17 -12 15 -12 16 8 11 14 -4 22 -2 20 6 -1 6 5 11 13 11 8 0
16 -10 18 -22 3 -18 9 -22 42 -20 26 1 36 5 33 14 -7 19 62 17 81 -2 19 -20
23 -19 29 5 4 15 14 20 41 20 33 0 35 -2 28 -22 -19 -52 16 -73 74 -46 14 7
31 5 55 -5 l34 -14 -27 -8 c-16 -4 -28 -12 -28 -17 0 -6 -11 -7 -27 -3 -21 5
-25 4 -17 -5 8 -8 27 -9 60 -4 65 11 69 11 66 -4 -4 -21 23 -13 33 10 7 14 20
22 43 23 17 2 32 -1 32 -6 0 -5 -9 -9 -21 -9 -12 0 -19 -5 -17 -12 4 -12 98
-19 98 -8 0 3 74 5 164 5 120 0 162 -3 159 -12 -3 -8 10 -11 41 -11 25 0 59
-3 76 -7 l30 -7 0 4721 0 4721 -422 -1 c-328 0 -430 -4 -453 -14z m-144 -7318
c-6 -54 -10 -119 -10 -145 l2 -47 8 60 c4 33 12 87 18 120 6 33 11 79 11 102
0 23 5 45 12 49 12 8 5 -131 -12 -229 -5 -28 -14 -102 -19 -163 -6 -60 -15
-123 -22 -140 -7 -16 -13 -58 -13 -94 -1 -36 -5 -70 -8 -76 -4 -6 -10 -60 -13
-120 -3 -60 -9 -118 -12 -129 -8 -23 -7 -14 -17 -132 -5 -51 -12 -93 -17 -93
-15 0 -10 158 6 213 14 49 29 200 45 452 3 61 8 103 10 95 10 -51 14 100 5
211 -8 102 -7 135 2 148 7 9 13 32 13 52 0 20 3 39 8 43 12 13 14 -74 3 -177z
m-3207 -2 c9 -33 21 -73 27 -90 5 -16 13 -61 16 -98 3 -38 9 -63 14 -56 4 8
11 -2 18 -27 15 -52 13 -63 -4 -40 -14 19 -15 18 -15 -11 0 -17 8 -41 18 -54
10 -13 24 -37 31 -54 12 -27 14 -28 20 -11 7 17 8 18 14 3 4 -10 2 -17 -4 -17
-7 0 -9 -9 -6 -21 10 -37 -17 -14 -44 37 -34 67 -55 138 -78 259 -11 55 -26
117 -35 138 -9 20 -23 53 -31 72 -8 20 -10 35 -5 35 6 0 10 -7 10 -15 0 -8 5
-15 11 -15 8 0 9 11 5 33 -6 29 -5 30 7 12 8 -11 22 -47 31 -80z m-4794 -692
c0 -5 -7 -17 -15 -27 -8 -11 -15 -27 -15 -35 0 -9 -6 -28 -14 -43 -13 -24 -12
-29 8 -52 12 -15 27 -26 34 -26 6 0 17 -9 24 -20 7 -11 16 -20 20 -20 11 0 -4
34 -19 43 -12 7 -11 11 4 23 17 13 17 13 -5 14 -15 0 -21 4 -16 12 5 8 2 9 -9
5 -10 -3 -17 -3 -17 2 0 13 44 19 69 9 13 -4 25 -17 28 -28 3 -11 9 -20 14
-20 19 0 57 -51 64 -87 3 -21 14 -46 23 -56 16 -18 15 -18 -11 -12 -34 9 -34
4 2 -34 33 -35 43 -39 35 -13 -5 14 -4 14 4 2 6 -8 8 -18 5 -22 -2 -5 1 -16 8
-24 6 -8 10 -16 8 -18 -2 -2 -41 34 -87 80 -45 46 -75 84 -67 84 8 0 24 -9 35
-20 25 -25 30 -25 30 0 0 11 -3 19 -7 19 -23 -4 -31 3 -26 21 3 11 0 20 -6 20
-6 0 -11 -6 -11 -14 0 -7 -9 -16 -20 -19 -14 -4 -37 11 -81 53 -55 52 -61 62
-55 87 16 62 67 153 66 116z"/>
<path d="M1066 7168 c8 -380 9 -391 23 -396 9 -3 11 66 6 325 -5 273 -9 329
-21 331 -12 3 -13 -34 -8 -260z"/>
<path d="M1483 7315 c-17 -7 -39 -25 -48 -39 -10 -14 -23 -26 -30 -26 -28 0
-34 -63 -9 -98 8 -12 13 -26 10 -30 -3 -4 -7 -27 -10 -49 -2 -23 -12 -53 -21
-66 -16 -24 -15 -26 17 -50 47 -34 58 -40 58 -27 0 6 -10 14 -23 19 -29 11
-51 37 -39 45 6 3 15 -1 22 -9 17 -20 34 -19 26 1 -5 12 -2 15 11 9 55 -22 89
-27 119 -16 18 6 36 10 41 9 10 -4 13 5 13 37 l0 26 -22 -21 c-12 -11 -30 -19
-39 -18 -9 2 -23 -3 -32 -10 -17 -14 -40 -6 -84 32 -23 20 -30 60 -14 85 6 9
0 26 -16 50 l-24 36 33 30 c19 16 37 38 41 47 3 9 21 21 39 26 18 4 28 11 23
14 -6 3 -24 0 -42 -7z"/>
<path d="M2451 7305 c-1 -11 -1 -119 0 -240 2 -121 2 -238 2 -260 -1 -34 1
-36 8 -17 5 13 9 90 9 170 0 188 1 202 7 178 4 -15 7 -16 14 -5 6 10 9 10 9 2
0 -7 5 -13 10 -13 6 0 10 32 10 75 l0 74 60 -4 c38 -2 60 0 60 7 0 6 10 8 28
3 15 -4 45 -8 67 -10 22 -2 51 -6 65 -10 24 -6 24 -6 6 9 -11 9 -32 16 -48 16
-15 0 -28 3 -28 8 0 4 -19 6 -41 4 -23 -3 -44 0 -48 5 -3 6 -39 13 -79 17
l-73 7 5 -53 c4 -42 3 -46 -3 -18 -5 19 -9 29 -10 23 -2 -26 -20 -12 -24 20
-2 17 -5 23 -6 12z"/>
<path d="M2898 7283 c12 -2 22 -9 22 -14 0 -6 -12 -8 -29 -4 -16 3 -31 3 -34
-2 -9 -15 33 -56 60 -59 15 -1 33 -10 39 -19 24 -33 36 -254 19 -327 l-13 -53
-1 58 c-1 36 -5 56 -11 52 -14 -9 -12 19 2 33 9 9 10 15 2 20 -14 9 -26 55
-29 112 -2 41 -19 100 -29 100 -2 0 -19 -6 -37 -14 -29 -12 -36 -12 -56 1 -16
11 -27 12 -36 5 -12 -10 -18 -12 -36 -12 -5 0 -7 -26 -5 -57 6 -97 3 -168 -7
-177 -20 -21 -9 -54 26 -76 28 -17 35 -28 33 -48 -3 -22 2 -27 31 -33 19 -4
40 -5 48 -2 19 7 16 33 -4 33 -15 0 -14 2 3 19 14 14 22 16 33 8 10 -9 18 -6
32 12 11 13 19 22 20 20 0 -2 3 -25 5 -51 6 -53 -7 -69 -30 -36 -13 18 -16 19
-16 5 0 -9 -4 -17 -10 -17 -5 0 -10 -11 -10 -25 0 -28 -15 -34 -24 -10 -5 13
-9 13 -27 3 -17 -10 -23 -10 -26 -1 -3 9 -12 9 -30 2 -15 -5 -32 -8 -39 -5 -8
3 -16 1 -20 -5 -4 -6 -11 -6 -19 1 -16 13 -38 4 -32 -13 2 -8 31 -10 84 -8 52
2 83 -1 88 -9 5 -8 11 -8 22 1 12 10 16 10 23 -1 6 -9 27 -14 62 -15 l53 0 7
85 c3 47 6 165 7 263 1 161 3 177 19 177 14 0 15 2 2 10 -8 5 -16 14 -16 20
-1 5 -2 15 -3 20 0 6 -9 10 -18 10 -14 0 -15 2 -5 9 20 12 -10 21 -66 20 -26
-1 -37 -4 -24 -6z"/>
<path d="M2277 4831 c-16 -6 -8 -14 41 -44 34 -21 81 -61 105 -90 52 -61 117
-155 117 -169 0 -5 5 -6 10 -3 6 4 8 14 5 24 -3 12 1 17 14 17 10 0 17 -6 14
-12 -2 -7 0 -15 6 -19 6 -3 11 2 12 12 1 26 29 -77 29 -107 0 -23 -2 -22 -17
9 -15 29 -18 31 -24 15 -7 -17 -8 -17 -8 -1 -1 9 -4 17 -8 17 -5 0 -8 -34 -8
-77 l0 -76 -55 -13 c-30 -7 -72 -13 -92 -14 -34 0 -38 -3 -38 -25 0 -13 -7
-28 -16 -33 -14 -8 -14 -10 0 -21 12 -10 26 -11 63 -2 27 6 100 17 163 26 129
17 245 50 272 77 10 10 23 16 28 13 5 -3 17 -1 27 4 10 5 26 12 36 15 25 8 21
25 -7 32 -13 3 -34 17 -47 30 -15 16 -26 21 -34 14 -8 -6 -18 -4 -32 9 -11 10
-28 21 -37 22 -9 2 -16 8 -16 13 1 5 -4 12 -11 17 -10 6 -10 11 -1 21 12 16
-8 38 -132 150 -33 29 -67 61 -75 71 -9 11 -28 33 -42 49 -14 17 -44 37 -65
44 -41 14 -146 18 -177 5z"/>
<path d="M645 4683 c-165 -10 -305 -27 -358 -43 -34 -11 -79 -20 -99 -20 -24
0 -38 -5 -37 -12 0 -7 33 -40 72 -73 40 -34 80 -76 90 -95 l17 -35 -55 -6
c-61 -7 -77 -15 -56 -29 12 -7 11 -15 -6 -49 -21 -42 -20 -51 6 -51 9 0 25
-12 35 -27 19 -26 19 -26 -4 -43 l-24 -18 28 5 c19 4 33 0 47 -16 11 -11 15
-21 9 -21 -6 0 -8 -5 -5 -10 4 -6 1 -17 -5 -25 -10 -12 -7 -13 22 -5 22 7 34
7 36 0 2 -5 12 -10 22 -10 28 0 35 -20 8 -21 -17 -1 -15 -3 10 -9 18 -4 41
-15 51 -24 34 -31 114 -47 183 -37 35 5 99 12 143 16 44 3 131 15 193 26 62
10 176 26 253 34 126 13 143 13 170 -1 73 -37 289 -59 404 -40 17 3 66 8 110
11 44 4 86 11 95 15 13 8 13 9 -2 10 -9 0 -24 3 -34 7 -12 4 -15 3 -10 -5 5
-9 -7 -12 -41 -12 -35 0 -44 3 -33 10 12 8 12 10 -5 10 -167 5 -152 20 21 20
82 0 155 4 163 9 10 7 12 21 8 55 -4 26 -2 48 3 51 6 4 10 -12 11 -37 l1 -43
10 39 c7 26 7 49 0 72 -12 39 -8 44 10 12 7 -13 12 -45 13 -72 0 -30 5 -51 13
-53 14 -5 16 25 2 47 -6 9 -5 17 2 21 12 8 -13 65 -42 97 -10 11 -17 22 -14
25 3 3 -7 14 -22 26 -36 28 -23 38 29 22 23 -7 53 -13 66 -13 18 0 20 -2 10
-9 -9 -6 -10 -9 -2 -9 16 0 81 -57 95 -84 6 -11 15 -34 19 -51 l7 -30 1 30 c1
49 -9 68 -56 108 -54 45 -47 47 24 7 29 -17 53 -26 53 -20 0 12 -90 69 -110
70 -13 0 -13 1 0 11 11 8 8 9 -13 4 -17 -3 -26 -2 -23 4 3 5 0 11 -6 14 -7 2
0 8 16 12 18 5 50 2 88 -9 75 -21 87 -13 25 14 -26 12 -47 22 -47 24 0 2 16 1
36 -1 24 -2 33 0 29 7 -4 7 -28 10 -56 9 -27 -2 -52 0 -55 4 -4 4 0 7 9 7 9 0
23 10 31 22 15 21 15 23 -9 36 -14 7 -25 19 -25 27 0 7 -4 16 -10 20 -9 6 -14
4 -78 -28 -21 -11 -30 -12 -26 -4 9 14 42 39 64 48 12 6 11 8 -5 14 -11 4 -29
11 -40 15 -40 17 -76 20 -95 10 -24 -13 -27 -32 -3 -23 13 5 12 0 -7 -28 -36
-53 -37 -52 -13 8 4 11 3 14 -5 9 -8 -5 -10 -1 -5 11 6 16 5 16 -10 4 -9 -7
-17 -20 -17 -27 0 -8 -5 -14 -10 -14 -6 0 -4 13 5 30 22 42 19 48 -19 47 -33
-1 -33 -1 -25 -36 5 -20 8 -56 8 -81 -1 -45 -1 -45 -10 13 -14 93 -30 106 -24
17 8 -98 13 -122 26 -115 15 10 79 -24 79 -42 0 -25 -32 -44 -49 -30 -12 10
-13 9 -7 -8 5 -11 9 -26 9 -33 0 -7 8 -10 16 -7 13 4 20 -6 30 -40 7 -25 17
-42 22 -39 5 3 9 -14 8 -38 l0 -43 -15 49 c-17 53 -44 91 -44 61 0 -26 -18 -8
-25 25 -8 36 -22 39 -36 8 -7 -18 -8 -14 -3 17 3 22 10 46 16 53 8 9 6 12 -6
12 -9 0 -16 4 -16 9 0 11 -39 26 -46 18 -3 -2 1 -16 7 -31 9 -19 15 -23 20
-14 4 7 11 10 14 6 4 -3 -6 -32 -21 -63 -16 -31 -30 -52 -32 -47 -2 6 1 20 7
31 6 11 8 27 5 36 -6 14 -40 39 -56 40 -3 0 -9 3 -12 6 -6 6 -70 -2 -118 -16
-18 -5 -28 -3 -28 4 0 6 7 11 15 11 9 0 27 7 40 16 27 18 111 12 131 -9 11
-10 24 -8 24 4 0 5 -4 8 -9 5 -5 -4 -7 2 -5 11 4 13 -5 23 -28 35 -45 23 -126
48 -157 49 -14 0 -20 3 -13 6 6 2 10 9 7 13 -3 5 -12 7 -20 3 -8 -3 -15 0 -15
6 0 6 17 12 38 12 20 1 29 3 19 6 -9 2 -15 8 -12 13 9 14 -34 22 -79 16 -27
-4 -51 -16 -68 -34 -29 -31 -68 -99 -69 -122 0 -10 -2 -11 -6 -2 -11 27 -24 9
-22 -30 3 -52 -10 -79 -56 -114 -23 -17 -37 -38 -42 -62 -8 -37 -8 -37 -13 18
l-6 55 -10 -35 c-6 -20 -20 -40 -35 -47 -21 -11 -25 -10 -29 8 -5 20 -5 20
-30 -3 -18 -17 -36 -23 -72 -23 -27 0 -48 -4 -48 -8 0 -5 -4 -6 -9 -3 -5 3
-12 -6 -16 -22 -7 -25 -8 -25 -15 -7 -5 11 -9 37 -9 57 -1 57 -30 158 -61 213
-76 136 -195 280 -226 273 -5 -1 -31 -3 -59 -5z"/>
<path d="M1590 4643 c25 -28 51 -51 58 -52 6 -1 12 -5 12 -10 0 -5 8 -11 18
-15 37 -13 77 -43 77 -59 0 -23 58 -57 85 -50 22 6 22 19 3 69 -4 12 -3 15 6
10 10 -6 11 3 6 40 -12 90 -8 87 -87 81 -78 -6 -108 -21 -61 -31 17 -4 45 -20
64 -36 20 -18 26 -27 15 -23 -14 5 -17 3 -11 -7 5 -9 4 -11 -4 -6 -6 4 -9 11
-6 16 3 4 -3 14 -12 21 -15 12 -16 12 -9 -5 7 -19 6 -19 -14 -1 -11 10 -20 14
-20 10 0 -5 -5 -4 -12 3 -7 7 -20 12 -30 12 -9 0 -27 10 -40 23 -13 13 -36 32
-53 42 -26 16 -24 12 15 -32z"/>
<path d="M8445 3641 c-3 -6 -2 -29 1 -52 6 -34 4 -45 -11 -56 -11 -7 -13 -13
-7 -13 7 0 12 -7 12 -15 0 -20 -24 -19 -44 1 -21 20 -20 26 6 70 l21 36 -24
-7 c-13 -4 -30 -10 -38 -13 -9 -3 -12 -1 -7 6 5 8 0 12 -13 12 -24 0 -29 -38
-9 -58 9 -9 9 -18 0 -37 -20 -43 -16 -55 16 -49 20 4 34 0 46 -11 16 -16 16
-19 0 -36 -16 -18 -15 -19 25 -16 l41 2 0 123 c0 117 -2 133 -15 113z"/>
<path d="M7618 3328 c-19 -19 -25 -43 -8 -33 11 7 2 -54 -11 -70 -4 -5 -10
-27 -14 -47 -8 -40 -19 -49 -29 -23 -9 26 -28 16 -25 -13 2 -15 0 -33 -5 -40
-13 -21 14 -42 54 -42 43 0 50 12 50 91 0 25 5 70 10 101 6 30 7 64 3 74 -8
19 -9 19 -25 2z"/>
<path d="M10125 790 c-10 -17 5 -28 45 -33 33 -4 33 -4 -8 -5 -25 -1 -53 5
-68 14 -19 13 -30 14 -47 6 -35 -17 -88 -30 -132 -32 -64 -4 -79 -3 -102 5
-14 4 -23 3 -23 -3 0 -6 8 -13 18 -15 9 -3 -9 -4 -40 -3 -33 0 -58 6 -58 11 0
6 -19 11 -42 12 -28 0 -35 -2 -21 -6 17 -4 20 -10 13 -21 -8 -13 -12 -12 -25
8 -19 26 -31 28 -39 6 -9 -23 23 -45 57 -41 19 3 26 0 23 -8 -3 -8 15 -16 50
-24 30 -6 62 -17 70 -25 17 -17 44 -11 44 11 0 8 5 11 10 8 6 -4 8 -11 5 -16
-4 -5 1 -9 9 -9 8 0 18 5 21 10 3 6 11 10 16 10 6 0 7 -4 4 -10 -8 -12 1 -13
98 -10 l77 2 0 -31 c0 -28 -3 -31 -32 -32 -28 0 -30 -2 -13 -9 18 -8 17 -9 -7
-9 -16 -1 -28 -6 -28 -12 0 -8 32 -10 112 -5 122 7 141 -8 23 -18 -118 -10
-169 -18 -181 -27 -6 -5 -24 -11 -40 -14 -16 -2 -51 -9 -79 -14 -27 -5 -76
-10 -107 -10 -32 -1 -58 -5 -58 -9 0 -5 -24 -9 -52 -10 -83 -1 -168 -13 -168
-23 0 -23 108 -21 137 3 8 6 19 6 32 -1 14 -8 22 -8 26 0 4 6 13 8 21 5 8 -3
14 1 14 11 0 15 1 15 18 0 9 -9 29 -20 42 -26 18 -7 20 -10 8 -10 -10 -1 -18
-5 -18 -9 0 -4 38 -9 83 -10 46 -1 108 -6 137 -12 29 -5 69 -10 89 -10 24 0
32 -3 22 -9 -7 -5 -100 -7 -205 -6 -105 2 -195 0 -201 -3 -5 -4 -31 -7 -56 -7
-47 0 -79 -17 -79 -41 0 -8 7 -14 15 -14 8 0 15 -6 15 -14 0 -20 13 -27 30
-16 11 7 11 11 1 24 -10 12 -9 16 8 25 25 14 58 14 66 1 6 -10 31 -12 155 -10
75 1 113 -7 105 -20 -3 -6 -19 -10 -36 -10 -16 0 -29 -4 -29 -9 0 -5 15 -9 33
-9 17 0 50 -5 72 -11 43 -14 80 -15 98 -4 7 4 3 9 -9 14 -15 6 -11 8 15 8 24
1 41 -6 57 -24 13 -14 28 -25 34 -25 17 0 11 -18 -7 -23 -10 -2 -5 -3 11 -1
39 5 45 13 23 28 -23 18 -22 22 11 21 20 0 27 -5 27 -19 0 -11 6 -21 12 -23
10 -4 13 19 12 90 -1 89 -2 95 -24 105 -16 7 -35 8 -57 1 -36 -10 -128 -2
-128 12 0 5 29 8 65 7 62 -3 87 8 45 19 -34 9 -22 23 19 23 22 0 46 -7 55 -15
22 -23 26 -19 26 25 0 47 9 45 -142 24 -62 -9 -123 -16 -135 -16 -13 0 -23 -5
-23 -10 0 -5 -5 -6 -11 -3 -13 8 -6 30 9 31 7 1 13 2 15 4 1 1 22 4 47 6 25 3
49 10 55 15 5 5 25 9 45 9 19 0 59 3 88 6 l52 7 0 43 c0 37 -3 44 -19 44 -11
0 -23 5 -26 10 -4 6 5 10 19 10 26 0 26 0 26 85 l0 85 -39 0 c-22 0 -46 3 -54
6 -8 3 -18 0 -22 -6z"/>
<path d="M8 189 c-25 -16 7 -28 70 -28 103 1 114 0 107 -11 -10 -15 15 -12 31
5 8 8 20 12 27 10 46 -14 77 -14 77 0 0 17 26 20 35 5 3 -5 17 -10 31 -10 13
0 24 5 24 10 0 6 13 10 29 10 17 0 32 4 35 9 6 10 -450 10 -466 0z"/>
</g>
</svg>
