<?xml version="1.0" standalone="no"?>
<!DOCTYPE svg PUBLIC "-//W3C//DTD SVG 20010904//EN"
 "http://www.w3.org/TR/2001/REC-SVG-20010904/DTD/svg10.dtd">
<svg version="1.0" xmlns="http://www.w3.org/2000/svg"
 width="512.000000pt" height="512.000000pt" viewBox="0 0 512.000000 512.000000"
 preserveAspectRatio="xMidYMid meet">

<g transform="translate(0.000000,512.000000) scale(0.100000,-0.100000)"
fill="#000000" stroke="none">
<path d="M2027 4975 c-144 -63 -251 -156 -297 -256 -19 -44 -20 -44 -202 -124
-206 -91 -269 -137 -307 -224 -28 -67 -743 -3080 -736 -3107 2 -12 17 -26 32
-32 45 -18 630 -162 658 -162 15 0 30 9 39 23 8 12 48 175 91 362 42 187 78
342 81 344 2 2 4 -371 4 -830 0 -636 3 -838 12 -847 17 -17 2299 -17 2316 0 9
9 12 211 12 847 0 459 2 832 4 830 3 -2 39 -157 81 -344 43 -187 83 -350 91
-363 9 -13 24 -22 39 -22 28 0 613 144 658 162 15 6 30 20 32 32 7 27 -708
3040 -736 3107 -38 88 -102 134 -308 224 -181 80 -182 80 -201 124 -45 100
-155 195 -298 257 l-77 34 -455 0 -455 -1 -78 -34z m905 -130 c-10 -181 -98
-455 -287 -887 -43 -98 -81 -178 -85 -178 -18 0 -237 529 -298 720 -50 157
-92 376 -77 400 4 7 139 9 378 8 l372 -3 -3 -60z m-848 -42 c22 -239 158 -608
481 -1303 145 -312 285 -623 282 -627 -3 -2 -72 81 -154 184 -561 703 -862
1211 -880 1490 -5 75 -3 87 21 138 16 32 46 71 72 93 40 33 150 102 165 102 3
0 9 -35 13 -77z m1029 45 c81 -44 159 -121 182 -181 24 -63 16 -173 -20 -282
-38 -116 -161 -358 -266 -525 -89 -141 -290 -433 -294 -428 -2 2 -24 48 -50
104 l-46 100 87 195 c206 461 312 773 330 972 4 42 9 77 11 77 3 0 33 -15 66
-32z m-1408 -335 c59 -360 422 -947 1044 -1693 80 -96 152 -182 159 -192 13
-17 0 -18 -272 -18 l-284 0 -12 36 c-20 59 -57 74 -180 74 -124 0 -160 -15
-180 -74 l-12 -36 -236 2 -237 3 -5 443 c-4 379 -7 444 -20 452 -22 14 -47 12
-64 -6 -14 -14 -16 -82 -16 -602 l0 -587 -127 -560 c-69 -308 -128 -562 -130
-565 -5 -6 -515 120 -526 130 -9 8 685 2946 709 3002 27 61 72 94 224 162 80
36 148 65 152 65 4 1 10 -16 13 -36z m1874 -29 c153 -68 198 -101 225 -162 24
-56 718 -2994 709 -3002 -11 -10 -521 -136 -526 -130 -2 3 -61 257 -130 565
l-127 560 0 593 0 592 -25 12 c-19 8 -31 8 -50 0 l-25 -11 -2 -443 -3 -443
-275 0 -274 0 -25 60 c-26 62 -194 445 -251 572 l-33 72 85 118 c332 460 521
821 563 1076 3 20 8 37 11 37 4 0 72 -30 153 -66z m-1339 -2539 l0 -665 -80 0
-80 0 0 665 0 665 80 0 80 0 0 -665z m-270 485 l0 -80 -240 0 -240 0 0 73 c0
41 3 77 7 80 3 4 111 7 240 7 l233 0 0 -80z m1658 -2 l3 -78 -641 0 -640 0 0
80 0 80 638 -2 637 -3 3 -77z m-1658 -703 c0 -502 1 -516 20 -535 18 -18 33
-20 135 -20 l115 0 0 -114 c0 -91 3 -118 16 -130 13 -13 43 -16 173 -16 109 0
161 4 169 12 9 9 12 170 12 665 l0 653 190 0 190 0 -2 -1012 -3 -1013 -745 0
-745 0 -3 1013 -2 1012 240 0 240 0 0 -515z m538 -97 l-3 -613 -77 -3 -78 -3
0 616 0 615 80 0 80 0 -2 -612z m1120 -400 l-3 -1013 -265 0 -265 0 -3 1013
-2 1012 270 0 270 0 -2 -1012z"/>
</g>
</svg>
