<?xml version="1.0" encoding="UTF-8"?> <!-- Creator: CorelDRAW 2018 (64-Bit) --> <svg xmlns="http://www.w3.org/2000/svg" xmlns:xlink="http://www.w3.org/1999/xlink" xml:space="preserve" width="300px" height="300px" style="shape-rendering:geometricPrecision; text-rendering:geometricPrecision; image-rendering:optimizeQuality; fill-rule:evenodd; clip-rule:evenodd" viewBox="0 0 136.06 136.06"> <defs> <style type="text/css"> <![CDATA[ .fil0 {fill:black} ]]> </style> </defs> <g id="Слой_x0020_1"> <metadata id="CorelCorpID_0Corel-Layer"></metadata> <g id="_1042611728"> <path class="fil0" d="M126.61 131.02l-117.16 0c-2.46,0 -4.14,-1.29 -4.39,-3.49l-0.02 -56.66 9.01 13.04c4,6.01 6.97,9.32 14.93,9.32 4.83,0 17.43,-7.12 22.88,-9.87l28.56 -13.96c8.5,-4.25 16.8,-8.25 25.3,-12.5 8.5,-4.24 17.05,-8.12 25.3,-12.49l0 79.37c0.01,1.78 0.16,3.93 -0.47,5.2 -0.6,1.23 -2.21,2.04 -3.94,2.04zm-98.26 -42.83c-2.53,0 -5.7,-1.43 -7.48,-3.55l-9.17 -13.51c-0.86,-1.16 -1.5,-2.13 -2.31,-3.35 -0.66,-0.98 -1.86,-2.45 -2.15,-3.53 7.18,-1.67 31.5,-5.35 40.41,-6.84l61.19 -10.3c2.06,-0.35 5.2,-1.08 7.06,-1.13l-43.37 21.51c-3.86,1.65 -7.19,3.46 -10.8,5.27l-21.73 10.7c-2.39,1.2 -8.65,4.73 -11.65,4.73zm-28.35 -26.46l0 66.46c0,3.81 4.06,7.87 7.87,7.87l120.32 0c3.8,0 7.87,-4.01 7.87,-7.87l0 -88.51c0,-3.45 -7.78,-1.11 -10.43,-0.67 -2.9,0.49 -5.43,0.9 -8.38,1.39l-114.38 19.16c-1.16,0.17 -2.87,0.89 -2.87,2.17z"></path> <path class="fil0" d="M115.27 27.72l-34.01 0c-2.36,0 -4.41,-1.54 -4.41,-3.78l0 -14.49c0,-2.76 1.65,-4.41 4.41,-4.41l34.01 0c2.76,0 4.41,1.65 4.41,4.41l0 13.86c0,2.75 -1.65,4.41 -4.41,4.41zm-98.89 -4.73l0 -13.86c0,-2.67 1.77,-4.09 4.41,-4.09l34.01 0c2.76,0 4.41,1.65 4.41,4.41l0 13.86c0,2.75 -1.65,4.41 -4.41,4.41l-34.01 0c-3.06,0 -4.41,-1.75 -4.41,-4.73zm-5.04 -15.12l0 0.95 -3.47 0c-3.85,0 -7.87,4.02 -7.87,7.87l0 38.11 5.04 0 0 -36.22c0,-4.66 2.84,-4.72 6.3,-4.72l0 11.02c0,3.82 4.06,7.88 7.87,7.88l37.17 0c3.81,0 7.87,-4.06 7.87,-7.88l0 -11.02 7.56 0 0 11.02c0,3.82 4.06,7.88 7.87,7.88l37.17 0c3.82,0 7.87,-4.06 7.87,-7.88l0 -11.02c3.42,0 6.3,-0.06 6.3,4.72l0 14.18 5.04 0 0 -16.07c0,-3.85 -4.02,-7.87 -7.87,-7.87l-3.47 0c0,-5.23 -4.06,-8.82 -7.87,-8.82l-37.17 0c-3.8,0 -7.87,3.59 -7.87,8.82l-7.56 0c0,-5.2 -4.06,-8.82 -7.87,-8.82l-37.17 0c-3.81,0 -7.87,4.06 -7.87,7.87z"></path> </g> </g> </svg> 