<?xml version="1.0" encoding="UTF-8"?> <!-- Creator: CorelDRAW --> <svg xmlns="http://www.w3.org/2000/svg" xmlns:xlink="http://www.w3.org/1999/xlink" xmlns:xodm="http://www.corel.com/coreldraw/odm/2003" xml:space="preserve" width="813px" height="291px" style="shape-rendering:geometricPrecision; text-rendering:geometricPrecision; image-rendering:optimizeQuality; fill-rule:evenodd; clip-rule:evenodd" viewBox="0 0 922.52 330.27"> <defs> <style type="text/css"> <![CDATA[ .fil0 {fill:white} .fil1 {fill:white;fill-rule:nonzero} ]]> </style> </defs> <g id="logo_blitz_slogan_white_x0020_1"> <metadata id="CorelCorpID_0Corel-Layer"></metadata> <g id="_105553259745056"> <path class="fil0" d="M309.78 107.77l-199.19 118.15c0,0 -5.13,4.11 -9.13,0.65 -4.87,-4.21 -0.8,-11.22 -0.8,-11.22l64.43 -101.06 143.04 -15.62c0,0 3.91,-0.79 5.21,3.59 0.97,3.25 -3.56,5.51 -3.56,5.51l0 0zm55.32 -26.36c-3.09,-8.7 -17.42,-7.15 -17.42,-7.15l-170.7 20.19c0,0 -7.81,1.62 -9.43,-1.64 -1.53,-3.03 1.62,-5.19 1.62,-5.19l174.76 -68.04c0,0 8.47,-3 4.9,-13.34 -2.93,-8.47 -14,-5.86 -14,-5.86 0,0 -208.29,81.38 -215.46,84.95 -7.16,3.58 -12.41,10.12 -11.38,18.7 1.29,10.91 15.93,13.51 15.93,13.51 0,0 2.28,1.63 3.59,4.56 1.29,2.93 1.29,4.06 0,7.82 -1.31,3.73 -2.92,7.32 -2.92,7.32 0,0 -56,92.59 -60.22,99.1 -4.23,6.51 -3.07,17.8 3.09,22.45 8.62,6.52 20.34,1.96 30.27,-3.41 9.92,-5.36 263.78,-156.71 263.78,-156.71 0,0 7.49,-6.17 3.59,-17.26z"></path> <path class="fil0" d="M288.62 196.3c-7.49,-8.13 0.65,-14.31 0.65,-14.31l134.09 -102.84c0,0 9.65,-8.54 15.94,-2.92 5.67,5.03 2.61,12.68 2.61,12.68l-16.11 41.01 18.06 -14.33c0,0 7.29,-5.17 12.7,0.65 6.34,6.84 0,13.68 0,13.68l-32.55 26.68c0,0 -8.8,8.47 -21.81,2.61 -7.23,-3.27 -3.58,-15.95 -3.58,-15.95l9.12 -28.31 -105.14 81.36c0,0 -8.32,6.14 -13.98,0l0 -0.01z"></path> <path class="fil0" d="M486.82 109.58l-7.5 4.96c0,0 -6.84,5.86 -13.43,-0.98 -6.09,-6.35 0.74,-13.92 0.74,-13.92l37.77 -27.33c0,0 7.73,-6.02 13.17,-2.2 7.32,5.13 2.44,15.62 2.44,15.62l-15.13 38.82 77.37 -59.33c0,0 13.44,-12.44 19.78,-5.12 6.35,7.32 -0.98,19.52 -0.98,19.52l-12.44 33.21 18.55 -12.94c0,0 11.82,-9.86 17.81,-3.17 6.35,7.07 -0.49,13.66 -0.49,13.66l-41.49 32.47c0,0 -7.81,5.86 -18.31,0.25 -9.05,-4.86 -4.16,-16.86 -4.16,-16.86l8.56 -26.84 -67.62 52.49c0,0 -8.54,7.56 -20.19,1.94 -7.3,-3.53 -4.22,-13.66 -4.22,-13.66l9.77 -30.59 0 0z"></path> <path class="fil0" d="M658.67 93.72l-10.43 5.12c0,0 -8.01,5.96 -13.91,-2.2 -5.13,-7.09 4.15,-13.91 4.15,-13.91l38 -26.29c0,0 9.28,-6.59 14.66,-0.24 5.36,6.34 -0.5,18.3 -0.5,18.3l-13.9 34.18 83.46 -63.47c0,0 8.78,-8.05 15.14,-1.71 6.35,6.35 3.18,13.91 3.18,13.91l-15.88 38.58 18.07 -14.33c0,0 2.44,-2.03 7.32,-2.03 4.88,0 9.27,6.34 9.27,6.34l21 27.83c0,0 3.18,2.94 1.96,8.79 -1.31,6.21 -6.6,8.05 -6.6,8.05l-85.43 51.51c0,0 -10.17,5.47 -14.88,-1.95 -5.62,-8.79 3.4,-15.13 3.4,-15.13l79.82 -47.61 -10.73 -13.66 -30.75 22.44c0,0 -9.51,7.31 -17.1,3.18 -8.53,-4.63 -2.67,-18.3 -2.67,-18.3l9.26 -30.11 -68.58 53.79c0,0 -12.7,11.96 -21.73,5.85 -10.36,-7 -4.4,-18.55 -4.4,-18.55l8.8 -28.38 0 0z"></path> <path class="fil0" d="M200.75 254.93l1.62 -14.69c0,0 241.68,-39.2 364.15,-47.36 122.47,-8.16 356,-21.23 356,-21.23l-0.42 5.31 -51.84 2.86 0 8.16c0,0 -137.18,9.79 -179.63,13.06 -42.46,3.27 -161.11,13.62 -259.09,33.21 -89.52,17.9 -382.67,92.53 -382.67,92.53l22.87 -47.35 129.01 -24.5z"></path> <path class="fil0" d="M151.86 258.42l1.64 -14.7c0,0 241.67,-39.19 364.15,-47.35 122.47,-8.17 355.99,-21.24 355.99,-21.24l-0.41 5.32 -51.84 2.85 0 8.17c0,0 -137.18,9.79 -179.64,13.06 -42.46,3.27 -161.1,13.62 -259.09,33.21 -89.52,17.9 -382.66,92.53 -382.66,92.53l22.86 -47.35 129 -24.5 0 0z"></path> </g> <g id="_105553259746656"> <path class="fil1" d="M386.71 268.32l0.18 -0.19c1.68,0.1 2.93,0.15 3.75,0.15 0.45,0 1.52,-0.05 3.22,-0.15l0.15 0.19 -0.13 1.09 -0.11 0.16c-0.2,0.1 -0.29,0.26 -0.29,0.51 0,0.09 0.05,0.27 0.16,0.53 0.24,0.58 1.8,2.74 4.66,6.48 1.52,2 2.89,3.71 4.08,5.12l0.42 0 1.01 -5.91c0.49,-2.83 0.73,-4.68 0.73,-5.53 0,-0.46 -0.19,-0.76 -0.57,-0.91 -0.21,-0.09 -0.63,-0.16 -1.26,-0.18l-1.88 -0.11 -0.14 -0.16 0.16 -1.09 0.2 -0.19c1.84,0.1 3.97,0.15 6.39,0.15 1.01,0 3.2,-0.05 6.56,-0.15l0.15 0.17 -0.19 1.11 -0.18 0.16c-1.43,0.06 -2.3,0.11 -2.61,0.17 -0.21,0.03 -0.4,0.13 -0.59,0.32 -0.34,0.32 -0.8,2.2 -1.4,5.63l-1.13 6.52 0.56 0c1.14,-0.91 2.05,-1.7 2.74,-2.36l4.3 -4.1c2.98,-2.84 4.6,-4.57 4.84,-5.16 0.09,-0.2 0.14,-0.34 0.14,-0.45 0,-0.27 -0.12,-0.46 -0.36,-0.57l-0.13 -0.16 0.16 -1.11 0.19 -0.17c1.91,0.1 3.01,0.15 3.3,0.15 0.92,0 2.32,-0.05 4.22,-0.15l0.13 0.17 -0.16 1.11 -0.18 0.16c-1.28,0.04 -2.24,0.25 -2.86,0.63 -1.2,0.73 -3.62,2.8 -7.27,6.23l-4.7 4.39 8.06 11.45c1.11,1.56 1.84,2.48 2.17,2.75 0.39,0.3 1.11,0.46 2.17,0.51l0.14 0.16 -0.12 1.03 -0.21 0.18 -0.6 -0.01c-2.57,-0.1 -3.99,-0.15 -4.26,-0.15 -0.7,0 -1.54,0.06 -2.53,0.16l-2.7 -4.11c-1.43,-2.22 -3.68,-5.29 -6.7,-9.21l-0.52 0c-1.13,6.12 -1.69,9.66 -1.69,10.61 0,0.77 0.56,1.18 1.69,1.24l2.12 0.1 0.15 0.16 -0.13 1.01 -0.18 0.19c-1.58,-0.1 -3.8,-0.15 -6.67,-0.15 -2.22,0 -4.35,0.05 -6.36,0.15l-0.14 -0.17 0.1 -1.01 0.18 -0.18c0.25,-0.03 0.57,-0.05 0.95,-0.07 1.06,-0.03 1.73,-0.13 2.03,-0.28 0.21,-0.1 0.42,-0.38 0.59,-0.83 0.16,-0.39 0.43,-1.67 0.81,-3.82l1.24 -6.95 -0.59 0c-1.59,1.43 -3.32,3.14 -5.19,5.12l-3.44 3.67c-0.94,0.98 -2.28,2.49 -4.04,4.52 -2.26,-0.1 -3.83,-0.15 -4.7,-0.15 -0.76,0 -2.01,0.05 -3.73,0.15l-0.17 -0.19 0.11 -1.01 0.17 -0.16c1.05,0 1.83,-0.16 2.33,-0.49 0.43,-0.27 1.23,-0.99 2.39,-2.17l12.52 -12.54c-1.51,-2.13 -3.25,-4.35 -5.21,-6.66 -1.81,-2.15 -2.92,-3.34 -3.33,-3.59 -0.41,-0.25 -1.38,-0.41 -2.93,-0.51l-0.18 -0.16 0.14 -1.09zm41.05 13.91l-0.33 -0.76 0.04 -0.29c1.91,-1.39 3.49,-2.45 4.75,-3.16 1.25,-0.73 2.26,-1.09 3.01,-1.09 0.88,0 1.32,0.53 1.32,1.6 0,0.51 -0.08,1.15 -0.23,1.93 -0.16,0.77 -0.46,2 -0.9,3.7l-1.71 6.81c-0.2,0.95 -0.3,1.61 -0.3,2 0,0.57 0.24,0.85 0.71,0.85 0.3,0 0.74,-0.19 1.32,-0.57 0.57,-0.39 1.44,-1.31 2.59,-2.79 0.89,-1.13 1.71,-2.46 2.45,-3.98 0.74,-1.52 1.38,-3.31 1.92,-5.38 0.29,-1.13 0.47,-2.2 0.55,-3.2 1.4,-0.08 2.86,-0.35 4.42,-0.81l0.35 0.37c-0.83,2.64 -1.66,5.66 -2.51,9.05 -0.84,3.39 -1.26,5.6 -1.26,6.63 0,0.5 0.19,0.75 0.58,0.75 0.23,0 0.47,-0.08 0.73,-0.24 0.26,-0.15 0.58,-0.37 0.95,-0.65 0.43,-0.3 0.77,-0.55 1.06,-0.75l0.24 0 0.45 0.79 -0.06 0.26c-2.77,2.08 -4.53,3.31 -5.27,3.69 -0.74,0.38 -1.39,0.56 -1.95,0.56 -0.41,0 -0.74,-0.15 -0.97,-0.45 -0.23,-0.31 -0.34,-0.72 -0.34,-1.25 0,-0.81 0.34,-2.54 1.03,-5.19l0.79 -3.07c-1.3,2.52 -3.05,4.84 -5.28,6.95 -2.22,2.1 -4,3.16 -5.36,3.16 -0.58,0 -1.05,-0.21 -1.42,-0.61 -0.36,-0.41 -0.54,-1.01 -0.54,-1.81 0,-0.52 0.06,-1.08 0.17,-1.68 0.12,-0.59 0.41,-1.8 0.91,-3.63 1.16,-4.34 1.73,-7.11 1.73,-8.3 0,-0.57 -0.19,-0.85 -0.58,-0.85 -0.17,0 -0.36,0.04 -0.58,0.14 -0.22,0.09 -0.95,0.53 -2.2,1.32l-0.28 -0.05zm22.33 9.96l0.18 0.13c0.16,1.26 0.64,2.21 1.43,2.85 0.8,0.65 1.72,0.97 2.76,0.97 1.68,0 2.95,-0.63 3.83,-1.87 0.88,-1.24 1.32,-2.64 1.32,-4.19 0,-1.11 -0.31,-2.02 -0.93,-2.75 -0.61,-0.72 -1.48,-1.08 -2.62,-1.08 -0.55,0 -1.33,0.07 -2.33,0.22l-0.2 -0.14 0.35 -1.34 0.24 -0.14c0.64,0.16 1.24,0.24 1.82,0.24 1.31,0 2.31,-0.28 3,-0.83 0.69,-0.55 1.03,-1.34 1.03,-2.37 0,-0.93 -0.26,-1.65 -0.77,-2.17 -0.53,-0.53 -1.22,-0.78 -2.09,-0.78 -0.59,0 -1.17,0.11 -1.72,0.33 -0.55,0.22 -1.22,0.59 -2,1.1l-0.2 -0.1 -0.03 -0.83 0.13 -0.28c2.01,-1.39 4.18,-2.09 6.5,-2.09 1.18,0 2.1,0.28 2.79,0.84 0.68,0.56 1.02,1.3 1.02,2.2 0,0.82 -0.23,1.56 -0.68,2.23 -0.45,0.66 -1.02,1.26 -1.71,1.79 -0.69,0.53 -1.43,0.95 -2.21,1.26l0.02 0.19c2.07,0.27 3.43,0.82 4.1,1.65 0.67,0.83 1.01,1.8 1.01,2.89 0,1.4 -0.47,2.67 -1.39,3.82 -0.92,1.14 -2.16,2 -3.71,2.59 -1.54,0.59 -3.09,0.88 -4.61,0.88 -1.84,0 -3.6,-0.38 -5.29,-1.13l-0.12 -0.33 0.39 -3.38 0.14 -0.23 0.55 -0.15zm30.65 -7l1.46 -7.33c1.47,-0.2 3.09,-0.57 4.88,-1.12l0.24 0.39c-0.66,2.04 -1.3,4.49 -1.92,7.36 -0.62,2.86 -0.94,5.23 -0.94,7.11 0,1.02 0.16,1.79 0.47,2.29 0.31,0.52 0.83,0.77 1.56,0.77 0.68,0 1.49,-0.32 2.46,-0.94l0.16 0.06 0 0.76 -0.07 0.18c-1.98,1.88 -3.88,2.81 -5.69,2.81 -1.04,0.02 -1.82,-0.14 -2.33,-0.48 -0.51,-0.34 -0.86,-0.78 -1.06,-1.33 -0.2,-0.55 -0.3,-1.2 -0.3,-1.98 0,-1.67 0.3,-4.09 0.88,-7.25 -0.91,-0.01 -1.91,-0.02 -3.01,-0.04 -1.02,0 -2.12,0.01 -3.29,0.02l-0.59 3.89 -0.91 6.14c-1.12,0.11 -2.61,0.42 -4.47,0.96l-0.26 -0.39c0.47,-2.01 0.85,-4 1.17,-5.96 0.32,-1.96 0.61,-3.97 0.88,-6.02 0.27,-2.05 0.41,-3.3 0.41,-3.75 0,-0.68 -0.19,-1.03 -0.55,-1.03 -0.22,0 -0.5,0.08 -0.84,0.24 -0.33,0.17 -1.02,0.54 -2.06,1.14l-0.2 0 -0.34 -0.63 0.12 -0.29c1.95,-1.49 3.49,-2.53 4.59,-3.11 1.1,-0.58 2.01,-0.88 2.74,-0.88 0.49,0 0.86,0.12 1.12,0.35 0.27,0.23 0.4,0.55 0.4,0.98 0,0.59 -0.13,1.71 -0.4,3.36l-0.61 3.7c1.56,0.03 2.71,0.05 3.46,0.05 0.95,0.01 1.89,0 2.84,-0.03zm10.36 -4.55l0.09 -0.33c3.56,-2.35 6.06,-3.53 7.5,-3.53 1.08,0 1.63,0.41 1.63,1.2 0,0.26 -0.11,0.84 -0.31,1.76 -0.21,0.92 -0.65,2.74 -1.34,5.48l0.17 0.12c1.28,-1.13 2.47,-1.9 3.58,-2.28 1.1,-0.37 2.2,-0.56 3.28,-0.56 1.43,0 2.55,0.36 3.34,1.08 0.79,0.73 1.18,1.81 1.18,3.25 0,1.83 -0.46,3.63 -1.37,5.42 -0.91,1.8 -2.2,3.11 -3.87,3.95 -1.66,0.83 -3.54,1.26 -5.64,1.26 -1.91,0 -3.36,-0.38 -4.33,-1.11 -0.96,-0.74 -1.44,-1.94 -1.44,-3.62 0,-1.43 0.45,-4.98 1.35,-10.63 0.19,-1.15 0.28,-1.77 0.28,-1.85 0,-0.35 -0.13,-0.53 -0.42,-0.53 -0.36,0 -1.46,0.55 -3.28,1.64l-0.22 -0.09 -0.18 -0.63zm11.54 4.05c-1.38,0 -2.49,0.71 -3.35,2.14 -0.85,1.43 -1.28,3.1 -1.28,4.99 0,1.36 0.26,2.42 0.78,3.17 0.53,0.75 1.2,1.12 2.01,1.12 1.45,0 2.59,-0.84 3.43,-2.53 0.85,-1.68 1.27,-3.5 1.27,-5.43 0,-0.99 -0.23,-1.81 -0.7,-2.47 -0.47,-0.66 -1.18,-0.99 -2.16,-0.99zm32.18 1.4l0 0.18c2.42,0.07 4.04,0.47 4.87,1.21 0.83,0.75 1.25,1.77 1.25,3.07 0,1.36 -0.47,2.59 -1.41,3.69 -0.94,1.1 -2.25,1.92 -3.93,2.46 -1.68,0.54 -3.44,0.81 -5.28,0.81 -1.16,0 -2.15,-0.15 -2.96,-0.46 -0.81,-0.31 -1.45,-0.87 -1.91,-1.66 -0.47,-0.8 -0.7,-1.92 -0.7,-3.37 0,-1.73 0.28,-3.58 0.85,-5.57 0.57,-1.98 1.38,-3.67 2.45,-5.05 1.07,-1.39 2.45,-2.48 4.15,-3.27 1.69,-0.81 3.5,-1.2 5.43,-1.2 1.14,0 1.95,0.21 2.46,0.64 0.5,0.43 0.75,1.08 0.75,1.97 0,1.24 -0.45,2.38 -1.34,3.43 -0.89,1.03 -2.45,2.08 -4.68,3.12zm-5.06 0.54c1.26,-0.18 2.11,-0.32 2.53,-0.41 0.41,-0.09 0.9,-0.28 1.44,-0.56 0.54,-0.29 1.06,-0.7 1.57,-1.25 0.5,-0.54 0.87,-1.13 1.12,-1.76 0.25,-0.62 0.36,-1.29 0.36,-1.97 0,-0.71 -0.14,-1.23 -0.44,-1.57 -0.3,-0.35 -0.67,-0.52 -1.11,-0.52 -0.98,0 -2,0.71 -3.07,2.14 -1.08,1.42 -1.88,3.39 -2.4,5.9zm-0.09 0.75c-0.22,1.23 -0.34,2.38 -0.34,3.45 0,1.08 0.13,1.99 0.38,2.73 0.26,0.73 0.63,1.27 1.12,1.63 0.48,0.36 1.08,0.54 1.8,0.54 1.16,0 2.07,-0.43 2.73,-1.3 0.67,-0.87 1,-1.91 1,-3.12 0,-1.21 -0.36,-2.2 -1.06,-2.96 -0.72,-0.77 -1.75,-1.15 -3.1,-1.15 -0.56,0 -1.41,0.06 -2.53,0.18zm25.53 10.11l-0.53 -0.5c0.42,-1.06 0.96,-2.82 1.62,-5.28 0.67,-2.46 1.15,-4.61 1.45,-6.43 0.3,-1.83 0.45,-2.99 0.45,-3.49 0,-0.46 -0.15,-0.69 -0.46,-0.69 -0.42,0 -1.39,0.57 -2.92,1.7l-0.28 -0.02 -0.4 -0.7 0.01 -0.27c0.71,-0.59 1.52,-1.25 2.46,-1.98 0.93,-0.71 1.77,-1.32 2.53,-1.8 0.76,-0.48 1.33,-0.78 1.7,-0.91 0.38,-0.13 0.73,-0.19 1.04,-0.19 0.74,0 1.11,0.44 1.11,1.31 0,0.64 -0.13,1.56 -0.37,2.77 -0.24,1.21 -0.74,3.26 -1.52,6.17 1.53,-2.82 3.45,-5.24 5.77,-7.24 2.32,-1.99 4.2,-2.99 5.64,-2.99 1.15,0 1.72,0.64 1.72,1.92 0,0.71 -0.15,1.71 -0.47,3.01 -0.31,1.31 -0.8,3.22 -1.49,5.75 -0.46,1.67 -0.77,2.98 -0.95,3.92 -0.16,0.93 -0.25,1.54 -0.25,1.81 0,0.5 0.16,0.75 0.49,0.75 0.52,0 1.52,-0.55 2.98,-1.66l0.24 0.02 0.44 0.79 -0.05 0.26c-2.31,1.74 -3.97,2.86 -4.97,3.35 -1,0.5 -1.86,0.75 -2.57,0.75 -0.57,0 -0.95,-0.23 -1.15,-0.66 -0.19,-0.44 -0.29,-0.9 -0.29,-1.37 0,-1.09 0.47,-3.32 1.42,-6.69 1.04,-3.64 1.56,-5.97 1.56,-6.99 0,-0.55 -0.27,-0.83 -0.79,-0.83 -0.25,0 -0.58,0.11 -1.01,0.32 -0.42,0.22 -1.04,0.75 -1.86,1.59 -0.82,0.85 -1.57,1.8 -2.25,2.88 -0.68,1.06 -1.27,2.21 -1.78,3.46 -0.51,1.24 -0.93,2.57 -1.27,4 -0.33,1.42 -0.55,2.56 -0.62,3.39 -1.72,0.14 -3.18,0.4 -4.38,0.77zm22.39 -15.39l0.02 -0.29c1.05,-0.89 2.15,-1.77 3.3,-2.63 1.15,-0.87 2.04,-1.48 2.67,-1.83 0.64,-0.34 1.2,-0.52 1.69,-0.52 0.85,0 1.27,0.45 1.27,1.35 0,0.49 -0.12,1.34 -0.37,2.56 -0.25,1.21 -0.65,2.88 -1.19,4.98 1.12,-1.76 2.13,-3.15 3.03,-4.18 0.9,-1.03 2.11,-2.07 3.65,-3.08 1.53,-1.03 2.9,-1.53 4.1,-1.53 0.5,0 0.92,0.17 1.26,0.5 0.35,0.32 0.63,0.93 0.85,1.82 0.21,0.88 0.32,1.77 0.32,2.66 0,1.67 -0.33,3.51 -0.99,5.55 -0.67,2.04 -1.34,3.54 -2.03,4.48 -0.59,0.84 -1.59,1.74 -2.99,2.71 -1.41,0.96 -2.58,1.66 -3.52,2.11 -0.94,0.45 -2.04,0.67 -3.32,0.67 -0.87,0 -1.66,-0.09 -2.35,-0.26 -0.3,1.3 -0.67,2.91 -1.1,4.84 -0.43,1.93 -0.67,3.11 -0.74,3.54 -0.07,0.44 -0.12,1.07 -0.16,1.89 -0.32,0.02 -1.13,0.14 -2.41,0.38 -1.29,0.23 -2.02,0.4 -2.21,0.49l-0.42 -0.32 1.84 -6.97c0.63,-2.58 1.41,-6.05 2.34,-10.4 0.93,-4.36 1.46,-7.06 1.61,-8.1 0.04,-0.29 0.06,-0.53 0.06,-0.73 0,-0.25 -0.06,-0.47 -0.18,-0.63 -0.12,-0.18 -0.27,-0.26 -0.42,-0.26 -0.17,0 -0.42,0.11 -0.76,0.33 -0.34,0.23 -1.05,0.76 -2.14,1.59l-0.29 -0.02 -0.42 -0.7zm5.89 12.19c1.31,0.73 2.62,1.1 3.91,1.1 0.62,0 1.18,-0.14 1.68,-0.42 0.49,-0.27 0.97,-0.8 1.45,-1.57 0.48,-0.77 0.94,-1.81 1.36,-3.12 0.43,-1.31 0.78,-2.58 1.07,-3.81 0.29,-1.23 0.44,-2.49 0.44,-3.79 0,-0.86 -0.08,-1.48 -0.23,-1.83 -0.16,-0.36 -0.42,-0.54 -0.8,-0.54 -0.38,0 -0.93,0.19 -1.66,0.57 -0.71,0.38 -1.52,1.06 -2.39,2.03 -0.87,0.98 -1.64,2.1 -2.32,3.37 -0.67,1.26 -1.13,2.31 -1.37,3.15 -0.23,0.83 -0.61,2.46 -1.14,4.86zm37.2 -1.86l0.45 0.79 -0.09 0.26c-2.44,1.8 -4.12,2.95 -5.03,3.44 -0.91,0.51 -1.67,0.76 -2.28,0.76 -0.43,0 -0.77,-0.19 -1.02,-0.55 -0.25,-0.37 -0.37,-0.82 -0.37,-1.38 0,-0.57 0.1,-1.39 0.32,-2.47 0.22,-1.08 0.68,-3.04 1.4,-5.9 -2.27,3.89 -4.31,6.58 -6.12,8.08 -1.81,1.49 -3.29,2.24 -4.44,2.24 -0.62,0 -1.16,-0.28 -1.61,-0.83 -0.45,-0.56 -0.68,-1.56 -0.68,-3 0,-1.28 0.19,-2.75 0.57,-4.44 0.38,-1.69 0.91,-3.4 1.6,-5.13 0.35,-0.86 0.77,-1.56 1.24,-2.09 0.48,-0.54 1.52,-1.39 3.12,-2.55 1.59,-1.16 2.72,-1.86 3.39,-2.1 0.67,-0.25 1.42,-0.37 2.26,-0.37 0.59,0 1.3,0.09 2.11,0.27 0.81,0.19 1.55,0.45 2.22,0.8l1.87 -1.09 0.66 0.49c-0.33,0.79 -0.74,2.26 -1.23,4.42l-1.5 6.84c-0.52,2.44 -0.79,3.92 -0.79,4.46 0,0.53 0.18,0.79 0.53,0.79 0.43,0 1.49,-0.58 3.18,-1.74l0.24 0zm-5.7 -12.1c-1.19,-0.61 -2.3,-0.91 -3.31,-0.91 -1.06,0 -1.91,0.42 -2.56,1.26 -0.65,0.83 -1.35,2.69 -2.11,5.59 -0.75,2.89 -1.13,5.03 -1.13,6.42 0,1.02 0.27,1.52 0.81,1.52 0.57,0 1.58,-0.85 3.04,-2.55 1.46,-1.7 2.66,-3.59 3.6,-5.66 0.94,-2.07 1.49,-3.95 1.66,-5.67zm19.78 5.76l0 0.18c2.42,0.07 4.04,0.47 4.88,1.21 0.83,0.75 1.24,1.77 1.24,3.07 0,1.36 -0.47,2.59 -1.41,3.69 -0.94,1.1 -2.25,1.92 -3.92,2.46 -1.69,0.54 -3.45,0.81 -5.28,0.81 -1.16,0 -2.15,-0.15 -2.96,-0.46 -0.81,-0.31 -1.45,-0.87 -1.92,-1.66 -0.46,-0.8 -0.7,-1.92 -0.7,-3.37 0,-1.73 0.29,-3.58 0.85,-5.57 0.57,-1.98 1.39,-3.67 2.45,-5.05 1.07,-1.39 2.45,-2.48 4.15,-3.27 1.7,-0.81 3.51,-1.2 5.44,-1.2 1.13,0 1.95,0.21 2.45,0.64 0.5,0.43 0.75,1.08 0.75,1.97 0,1.24 -0.44,2.38 -1.33,3.43 -0.9,1.03 -2.46,2.08 -4.69,3.12zm-5.06 0.54c1.27,-0.18 2.11,-0.32 2.53,-0.41 0.42,-0.09 0.9,-0.28 1.44,-0.56 0.54,-0.29 1.07,-0.7 1.57,-1.25 0.5,-0.54 0.88,-1.13 1.12,-1.76 0.25,-0.62 0.37,-1.29 0.37,-1.97 0,-0.71 -0.15,-1.23 -0.45,-1.57 -0.29,-0.35 -0.67,-0.52 -1.11,-0.52 -0.97,0 -2,0.71 -3.07,2.14 -1.08,1.42 -1.87,3.39 -2.4,5.9zm-0.08 0.75c-0.23,1.23 -0.35,2.38 -0.35,3.45 0,1.08 0.13,1.99 0.39,2.73 0.26,0.73 0.62,1.27 1.11,1.63 0.49,0.36 1.09,0.54 1.81,0.54 1.16,0 2.07,-0.43 2.73,-1.3 0.66,-0.87 1,-1.91 1,-3.12 0,-1.21 -0.36,-2.2 -1.07,-2.96 -0.71,-0.77 -1.74,-1.15 -3.09,-1.15 -0.57,0 -1.41,0.06 -2.53,0.18zm14.76 -5.15l-0.32 -0.76 0.04 -0.29c1.91,-1.39 3.48,-2.45 4.74,-3.16 1.26,-0.73 2.27,-1.09 3.02,-1.09 0.88,0 1.32,0.53 1.32,1.6 0,0.51 -0.08,1.15 -0.24,1.93 -0.15,0.77 -0.45,2 -0.89,3.7l-1.71 6.81c-0.2,0.95 -0.3,1.61 -0.3,2 0,0.57 0.24,0.85 0.71,0.85 0.29,0 0.74,-0.19 1.32,-0.57 0.57,-0.39 1.44,-1.31 2.59,-2.79 0.89,-1.13 1.71,-2.46 2.45,-3.98 0.74,-1.52 1.38,-3.31 1.92,-5.38 0.28,-1.13 0.47,-2.2 0.55,-3.2 1.39,-0.08 2.86,-0.35 4.42,-0.81l0.34 0.37c-0.82,2.64 -1.66,5.66 -2.5,9.05 -0.85,3.39 -1.27,5.6 -1.27,6.63 0,0.5 0.2,0.75 0.59,0.75 0.23,0 0.47,-0.08 0.73,-0.24 0.26,-0.15 0.57,-0.37 0.95,-0.65 0.42,-0.3 0.77,-0.55 1.05,-0.75l0.25 0 0.44 0.79 -0.06 0.26c-2.76,2.08 -4.52,3.31 -5.26,3.69 -0.75,0.38 -1.4,0.56 -1.95,0.56 -0.42,0 -0.74,-0.15 -0.97,-0.45 -0.23,-0.31 -0.35,-0.72 -0.35,-1.25 0,-0.81 0.35,-2.54 1.04,-5.19l0.79 -3.07c-1.3,2.52 -3.06,4.84 -5.28,6.95 -2.22,2.1 -4.01,3.16 -5.36,3.16 -0.58,0 -1.05,-0.21 -1.42,-0.61 -0.36,-0.41 -0.55,-1.01 -0.55,-1.81 0,-0.52 0.07,-1.08 0.18,-1.68 0.11,-0.59 0.41,-1.8 0.9,-3.63 1.16,-4.34 1.74,-7.11 1.74,-8.3 0,-0.57 -0.2,-0.85 -0.58,-0.85 -0.17,0 -0.36,0.04 -0.58,0.14 -0.23,0.09 -0.96,0.53 -2.2,1.32l-0.29 -0.05zm21.1 9.47l0.65 -0.21 0.2 0.17 0 0.5c0,0.63 0.14,1.07 0.42,1.34 0.29,0.27 0.7,0.41 1.24,0.41 0.39,0 0.74,-0.07 1.03,-0.22 0.3,-0.13 0.63,-0.41 0.99,-0.83 0.35,-0.41 1.07,-1.54 2.16,-3.39 1.09,-1.85 1.87,-3.22 2.33,-4.12 0.47,-0.9 1.14,-2.35 2.02,-4.35 -0.23,-0.78 -0.46,-1.32 -0.68,-1.62 -0.23,-0.3 -0.58,-0.44 -1.06,-0.44 -0.54,0 -1.47,0.27 -2.78,0.8l-0.18 -0.1 0.06 -0.81 0.18 -0.2c3.2,-1.2 5.46,-1.8 6.77,-1.8 0.62,0 1.06,0.11 1.31,0.32 0.25,0.22 0.43,0.7 0.53,1.44l1.24 6.99c0.42,2.37 0.79,4.26 1.13,5.65 0.34,1.39 0.58,2.24 0.73,2.53 0.15,0.3 0.33,0.51 0.55,0.65 0.22,0.12 0.46,0.18 0.73,0.18 0.24,0 0.47,-0.04 0.69,-0.13 0.21,-0.08 0.55,-0.32 0.99,-0.7l0.23 0.02 0.36 0.61 -0.1 0.27c-2.34,1.94 -4.23,2.91 -5.68,2.91 -0.48,0 -0.92,-0.14 -1.29,-0.42 -0.38,-0.28 -0.67,-0.65 -0.85,-1.1 -0.2,-0.44 -0.39,-1.28 -0.59,-2.51 -0.21,-1.23 -0.46,-2.67 -0.78,-4.34 -0.3,-1.68 -0.64,-3.71 -1.01,-6.12l-0.24 0.03c-0.61,1.23 -1.37,2.91 -2.31,5.06 -1.81,4.12 -3.14,6.72 -3.99,7.81 -0.85,1.07 -1.84,1.61 -2.96,1.61 -0.51,0 -0.92,-0.09 -1.24,-0.28 -0.31,-0.19 -0.63,-0.5 -0.96,-0.95l0 -4.48 0.16 -0.18zm23.44 -11.06l0.1 -0.33c3.55,-2.35 6.05,-3.53 7.49,-3.53 1.08,0 1.63,0.41 1.63,1.2 0,0.26 -0.11,0.84 -0.31,1.76 -0.2,0.92 -0.65,2.74 -1.34,5.48l0.17 0.12c1.28,-1.13 2.47,-1.9 3.58,-2.28 1.11,-0.37 2.21,-0.56 3.29,-0.56 1.43,0 2.54,0.36 3.33,1.08 0.79,0.73 1.18,1.81 1.18,3.25 0,1.83 -0.46,3.63 -1.37,5.42 -0.9,1.8 -2.2,3.11 -3.86,3.95 -1.67,0.83 -3.55,1.26 -5.65,1.26 -1.91,0 -3.36,-0.38 -4.33,-1.11 -0.96,-0.74 -1.44,-1.94 -1.44,-3.62 0,-1.43 0.45,-4.98 1.35,-10.63 0.2,-1.15 0.29,-1.77 0.29,-1.85 0,-0.35 -0.14,-0.53 -0.42,-0.53 -0.37,0 -1.46,0.55 -3.29,1.64l-0.22 -0.09 -0.18 -0.63zm11.54 4.05c-1.37,0 -2.49,0.71 -3.34,2.14 -0.86,1.43 -1.29,3.1 -1.29,4.99 0,1.36 0.26,2.42 0.79,3.17 0.52,0.75 1.19,1.12 2,1.12 1.45,0 2.59,-0.84 3.43,-2.53 0.85,-1.68 1.28,-3.5 1.28,-5.43 0,-0.99 -0.24,-1.81 -0.71,-2.47 -0.46,-0.66 -1.18,-0.99 -2.16,-0.99zm24.66 0.5l1.46 -7.33c1.48,-0.2 3.1,-0.57 4.89,-1.12l0.24 0.39c-0.67,2.04 -1.3,4.49 -1.93,7.36 -0.62,2.86 -0.93,5.23 -0.93,7.11 0,1.02 0.16,1.79 0.46,2.29 0.32,0.52 0.84,0.77 1.57,0.77 0.68,0 1.49,-0.32 2.45,-0.94l0.16 0.06 0 0.76 -0.06 0.18c-1.99,1.88 -3.88,2.81 -5.69,2.81 -1.04,0.02 -1.82,-0.14 -2.33,-0.48 -0.51,-0.34 -0.87,-0.78 -1.07,-1.33 -0.19,-0.55 -0.29,-1.2 -0.29,-1.98 0,-1.67 0.29,-4.09 0.87,-7.25 -0.9,-0.01 -1.91,-0.02 -3,-0.04 -1.02,0 -2.12,0.01 -3.3,0.02l-0.58 3.89 -0.92 6.14c-1.12,0.11 -2.6,0.42 -4.46,0.96l-0.26 -0.39c0.46,-2.01 0.85,-4 1.17,-5.96 0.32,-1.96 0.61,-3.97 0.88,-6.02 0.27,-2.05 0.4,-3.3 0.4,-3.75 0,-0.68 -0.18,-1.03 -0.54,-1.03 -0.22,0 -0.5,0.08 -0.84,0.24 -0.33,0.17 -1.02,0.54 -2.06,1.14l-0.21 0 -0.34 -0.63 0.12 -0.29c1.96,-1.49 3.49,-2.53 4.59,-3.11 1.1,-0.58 2.02,-0.88 2.75,-0.88 0.48,0 0.86,0.12 1.12,0.35 0.26,0.23 0.39,0.55 0.39,0.98 0,0.59 -0.13,1.71 -0.4,3.36l-0.61 3.7c1.57,0.03 2.72,0.05 3.47,0.05 0.95,0.01 1.89,0 2.83,-0.03zm11.7 5.88c0,-1.26 0.21,-2.83 0.63,-4.73 0.43,-1.9 1.16,-3.48 2.2,-4.76 1.03,-1.28 2.42,-2.37 4.18,-3.28 1.75,-0.91 3.56,-1.37 5.43,-1.37 1.92,0 3.48,0.55 4.68,1.64 1.2,1.09 1.8,2.74 1.8,4.92 0,1.99 -0.37,4.02 -1.11,6.09 -0.74,2.07 -1.73,3.59 -2.97,4.55 -1.24,0.96 -2.53,1.78 -3.89,2.46 -1.36,0.69 -2.9,1.03 -4.63,1.03 -1.65,0 -2.93,-0.32 -3.85,-0.96 -0.91,-0.64 -1.56,-1.45 -1.92,-2.45 -0.37,-1 -0.55,-2.05 -0.55,-3.14zm4.78 -0.16c0,1.65 0.31,2.84 0.93,3.59 0.62,0.74 1.52,1.11 2.68,1.11 0.79,0 1.5,-0.22 2.13,-0.67 0.63,-0.44 1.22,-1.25 1.75,-2.4 0.53,-1.16 0.96,-2.59 1.29,-4.3 0.33,-1.73 0.5,-3.28 0.5,-4.69 0,-1.77 -0.35,-3 -1.03,-3.7 -0.69,-0.71 -1.53,-1.06 -2.52,-1.06 -1.04,0 -1.95,0.4 -2.74,1.2 -0.79,0.79 -1.49,2.35 -2.09,4.66 -0.6,2.32 -0.9,4.41 -0.9,6.26z"></path> <path class="fil1" d="M758.35 291.05l0.19 0.16c0,0.96 0.03,1.59 0.09,1.89 0.06,0.3 0.25,0.57 0.57,0.81 0.33,0.24 0.76,0.36 1.28,0.36 0.8,0 1.47,-0.22 2.02,-0.68 0.54,-0.45 1.19,-1.31 1.95,-2.57 0.74,-1.26 1.38,-2.69 1.9,-4.3 0.52,-1.6 0.92,-3.35 1.2,-5.25 -0.28,-1.25 -0.95,-1.87 -2,-1.87 -0.76,0 -1.76,0.42 -3,1.26l-0.24 -0.04 0 -1.06 0.18 -0.22c1.94,-1.17 3.39,-1.91 4.32,-2.22 0.94,-0.3 1.76,-0.45 2.44,-0.45 0.4,0 0.71,0.06 0.95,0.18 0.24,0.12 0.46,0.35 0.66,0.69 0.2,0.34 0.44,1.07 0.72,2.2 0.29,1.14 0.57,2.46 0.85,3.97 0.27,1.51 0.53,3.03 0.76,4.59 0.12,0.86 0.23,1.52 0.32,1.99l0.33 0.06c0.14,-0.28 0.41,-0.79 0.79,-1.55 0.83,-1.72 1.89,-3.64 3.18,-5.75 1.28,-2.11 2.76,-4.14 4.43,-6.1 1.92,-0.27 3.2,-0.54 3.85,-0.81l0.27 0.4c-0.57,0.51 -1.03,1.34 -1.37,2.51 -0.34,1.17 -0.65,2.72 -0.93,4.67 -0.28,1.95 -0.48,3.76 -0.61,5.45 -0.13,1.69 -0.19,2.8 -0.19,3.34 0,0.61 0.12,1.05 0.38,1.31 0.26,0.26 0.57,0.39 0.91,0.39 0.73,0 1.58,-0.42 2.55,-1.27l0.25 0.01 0.36 0.67 -0.05 0.35c-1.19,0.95 -2.36,1.72 -3.48,2.33 -1.13,0.61 -2.2,0.91 -3.21,0.91 -1.52,0 -2.27,-0.97 -2.27,-2.91 0,-0.94 0.1,-2.23 0.31,-3.88 0.21,-1.66 0.44,-3.16 0.68,-4.49 0.24,-1.34 0.68,-3.06 1.3,-5.15l-0.37 0.02c-1.08,1.48 -2.4,3.73 -3.96,6.73 -1.56,3 -2.78,5.98 -3.66,8.95 -1.01,0.1 -2.02,0.38 -3.01,0.85l-0.22 -0.24c0.04,-0.69 0.05,-1.19 0.05,-1.5 0,-1.09 -0.15,-2.72 -0.44,-4.88 -0.3,-2.16 -0.67,-4.17 -1.12,-6.04l-0.28 0.06c-0.68,2.65 -1.56,5.11 -2.64,7.37 -1.09,2.26 -2.07,3.7 -2.93,4.33 -0.87,0.63 -1.75,0.94 -2.66,0.94 -1.08,0 -1.96,-0.4 -2.65,-1.24 0.26,-1.87 0.41,-3.47 0.47,-4.77l0.13 -0.31 0.65 -0.2zm57.04 1.05l0.46 0.85 -0.05 0.25c-2.31,1.66 -4.22,2.82 -5.7,3.48 -1.48,0.66 -2.89,1 -4.21,1 -1.06,0 -2.02,-0.26 -2.88,-0.76 -0.87,-0.51 -1.48,-1.21 -1.86,-2.1 -0.37,-0.89 -0.56,-1.84 -0.56,-2.83 0,-1.22 0.14,-2.51 0.42,-3.88 0.28,-1.36 0.63,-2.55 1.06,-3.55 0.42,-1.01 0.83,-1.77 1.23,-2.26 0.4,-0.5 0.86,-0.95 1.4,-1.34 0.53,-0.39 1.48,-1.01 2.85,-1.84 0.98,-0.64 1.66,-1.05 2.02,-1.24 0.37,-0.19 0.84,-0.36 1.42,-0.49 0.58,-0.15 1.2,-0.22 1.87,-0.22 1.29,0 2.72,0.33 4.29,0.99l0.06 0.23c-0.2,0.48 -0.45,1.34 -0.74,2.56 -0.29,1.22 -0.48,2.21 -0.58,2.97l-0.22 0.18 -1.03 0 -0.15 -0.18c0.12,-0.73 0.17,-1.4 0.17,-2.01 0,-0.12 -0.01,-0.32 -0.02,-0.6 -1.16,-1.02 -2.41,-1.52 -3.73,-1.52 -0.96,0 -1.71,0.18 -2.27,0.53 -0.56,0.36 -1.02,0.89 -1.39,1.59 -0.37,0.7 -0.78,2 -1.23,3.89 -0.45,1.88 -0.68,3.56 -0.68,5.03 0,1.21 0.28,2.19 0.83,2.93 0.55,0.75 1.31,1.12 2.29,1.12 0.79,0 1.69,-0.18 2.66,-0.54 0.98,-0.36 2.33,-1.1 4.05,-2.24l0.22 0zm14.12 -6.01l0 0.18c2.42,0.07 4.04,0.47 4.88,1.21 0.83,0.75 1.24,1.77 1.24,3.07 0,1.36 -0.47,2.59 -1.41,3.69 -0.94,1.1 -2.25,1.92 -3.93,2.46 -1.68,0.54 -3.44,0.81 -5.28,0.81 -1.16,0 -2.15,-0.15 -2.95,-0.46 -0.81,-0.31 -1.46,-0.87 -1.92,-1.66 -0.46,-0.8 -0.7,-1.92 -0.7,-3.37 0,-1.73 0.28,-3.58 0.85,-5.57 0.57,-1.98 1.38,-3.67 2.45,-5.05 1.07,-1.39 2.45,-2.48 4.15,-3.27 1.69,-0.81 3.51,-1.2 5.44,-1.2 1.13,0 1.94,0.21 2.45,0.64 0.5,0.43 0.75,1.08 0.75,1.97 0,1.24 -0.45,2.38 -1.34,3.43 -0.89,1.03 -2.45,2.08 -4.68,3.12zm-5.06 0.54c1.26,-0.18 2.11,-0.32 2.53,-0.41 0.41,-0.09 0.9,-0.28 1.44,-0.56 0.54,-0.29 1.06,-0.7 1.57,-1.25 0.5,-0.54 0.88,-1.13 1.12,-1.76 0.25,-0.62 0.36,-1.29 0.36,-1.97 0,-0.71 -0.14,-1.23 -0.44,-1.57 -0.3,-0.35 -0.67,-0.52 -1.11,-0.52 -0.98,0 -2,0.71 -3.07,2.14 -1.08,1.42 -1.88,3.39 -2.4,5.9zm-0.09 0.75c-0.22,1.23 -0.34,2.38 -0.34,3.45 0,1.08 0.13,1.99 0.39,2.73 0.25,0.73 0.62,1.27 1.11,1.63 0.48,0.36 1.09,0.54 1.8,0.54 1.17,0 2.07,-0.43 2.74,-1.3 0.66,-0.87 0.99,-1.91 0.99,-3.12 0,-1.21 -0.36,-2.2 -1.06,-2.96 -0.71,-0.77 -1.75,-1.15 -3.09,-1.15 -0.57,0 -1.41,0.06 -2.54,0.18zm29.08 4.74l0.46 0.83 -0.06 0.25c-2.38,1.68 -4.3,2.85 -5.76,3.47 -1.47,0.63 -2.76,0.95 -3.88,0.95 -0.99,0 -1.92,-0.21 -2.78,-0.63 -0.87,-0.42 -1.48,-1.03 -1.85,-1.82 -0.38,-0.79 -0.56,-1.62 -0.56,-2.5 0,-1.46 0.28,-3.33 0.84,-5.61 0.56,-2.28 1.27,-3.98 2.14,-5.09 0.86,-1.11 2.27,-2.21 4.2,-3.32 1.94,-1.1 3.6,-1.66 4.99,-1.66 1.18,0 2.14,0.3 2.88,0.9 0.75,0.6 1.11,1.46 1.11,2.58 0,1.38 -0.4,2.63 -1.23,3.74 -0.82,1.12 -2.19,2.06 -4.1,2.82 -1.91,0.76 -3.88,1.31 -5.89,1.65 -0.14,0.99 -0.22,1.89 -0.22,2.72 0,1.32 0.32,2.22 0.94,2.7 0.63,0.48 1.33,0.72 2.1,0.72 0.56,0 1.19,-0.1 1.9,-0.32 0.72,-0.21 1.32,-0.44 1.8,-0.7 0.48,-0.27 1.39,-0.83 2.74,-1.7l0.23 0.02zm-9.32 -4.55c2.8,-0.63 4.7,-1.59 5.67,-2.89 0.97,-1.31 1.46,-2.52 1.46,-3.66 0,-0.65 -0.19,-1.15 -0.57,-1.51 -0.38,-0.35 -0.84,-0.53 -1.4,-0.53 -1.1,0 -2.07,0.58 -2.87,1.75 -0.81,1.16 -1.58,3.45 -2.29,6.84zm14.16 9.94l-0.41 -0.59c0.02,-0.05 0.18,-0.57 0.49,-1.55 0.66,-2.13 1.31,-4.66 1.95,-7.62 0.65,-2.96 0.97,-4.94 0.97,-5.94 0,-0.27 -0.07,-0.49 -0.19,-0.65 -0.12,-0.18 -0.26,-0.26 -0.42,-0.26 -0.15,0 -0.35,0.08 -0.61,0.26 -0.26,0.16 -1.02,0.72 -2.29,1.66l-0.29 -0.02 -0.4 -0.7 0.02 -0.29c0.97,-0.82 2.11,-1.73 3.41,-2.72 1.31,-0.98 2.27,-1.6 2.88,-1.86 0.62,-0.25 1.13,-0.38 1.54,-0.38 0.34,0 0.62,0.13 0.81,0.38 0.2,0.26 0.3,0.56 0.3,0.92 0,0.41 -0.1,1.09 -0.28,2.02 -0.2,0.93 -0.75,3.41 -1.67,7.44 1.77,-3.3 3.76,-5.91 5.98,-7.86 2.21,-1.94 4.01,-2.9 5.39,-2.9 0.42,0 0.76,0.15 1.03,0.45 0.27,0.31 0.41,0.7 0.41,1.19 0,0.39 -0.06,0.94 -0.18,1.66 -0.13,0.71 -0.36,1.75 -0.69,3.1l-1.12 4.36c1.72,-3.42 3.75,-6.05 6.1,-7.89 2.35,-1.85 4.28,-2.77 5.78,-2.77 0.48,0 0.85,0.19 1.09,0.57 0.24,0.37 0.37,0.85 0.37,1.42 0,0.95 -0.26,2.39 -0.76,4.29 -1.55,5.8 -2.33,9.19 -2.33,10.19 0,0.46 0.16,0.69 0.47,0.69 0.36,0 1.4,-0.62 3.1,-1.86l0.24 0.02 0.45 0.79 -0.06 0.26c-2.25,1.65 -3.92,2.77 -4.99,3.38 -1.06,0.61 -1.93,0.92 -2.61,0.92 -0.46,0 -0.83,-0.18 -1.11,-0.53 -0.27,-0.35 -0.41,-0.78 -0.41,-1.28 0,-0.61 0.12,-1.45 0.36,-2.53 0.23,-1.08 0.65,-2.78 1.26,-5.11 0.56,-2.15 0.91,-3.61 1.07,-4.39 0.15,-0.77 0.23,-1.36 0.23,-1.77 0,-0.63 -0.22,-0.95 -0.65,-0.95 -0.32,0 -0.81,0.2 -1.44,0.59 -0.63,0.39 -1.43,1.12 -2.37,2.18 -0.94,1.06 -1.79,2.28 -2.52,3.67 -0.74,1.38 -1.38,3.14 -1.92,5.26 -0.54,2.13 -0.81,3.52 -0.81,4.16 -0.97,0 -2.4,0.2 -4.29,0.59l-0.49 -0.59c0.77,-1.94 1.56,-4.64 2.36,-8.09 0.8,-3.45 1.21,-5.77 1.21,-6.96 0,-0.28 -0.07,-0.5 -0.2,-0.64 -0.12,-0.16 -0.28,-0.23 -0.47,-0.23 -0.35,0 -0.86,0.22 -1.53,0.65 -0.67,0.43 -1.49,1.28 -2.45,2.56 -0.97,1.26 -1.8,2.57 -2.5,3.91 -0.69,1.35 -1.25,2.93 -1.68,4.76 -0.42,1.84 -0.65,3.12 -0.7,3.84 -0.87,0 -2.36,0.27 -4.43,0.79zm48.14 -5.39l0.46 0.83 -0.06 0.25c-2.38,1.68 -4.29,2.85 -5.76,3.47 -1.47,0.63 -2.76,0.95 -3.88,0.95 -0.99,0 -1.91,-0.21 -2.78,-0.63 -0.86,-0.42 -1.48,-1.03 -1.85,-1.82 -0.38,-0.79 -0.56,-1.62 -0.56,-2.5 0,-1.46 0.28,-3.33 0.84,-5.61 0.56,-2.28 1.27,-3.98 2.14,-5.09 0.86,-1.11 2.27,-2.21 4.2,-3.32 1.94,-1.1 3.61,-1.66 5,-1.66 1.17,0 2.13,0.3 2.87,0.9 0.75,0.6 1.12,1.46 1.12,2.58 0,1.38 -0.41,2.63 -1.23,3.74 -0.83,1.12 -2.2,2.06 -4.11,2.82 -1.91,0.76 -3.87,1.31 -5.89,1.65 -0.14,0.99 -0.22,1.89 -0.22,2.72 0,1.32 0.32,2.22 0.94,2.7 0.63,0.48 1.33,0.72 2.1,0.72 0.56,0 1.19,-0.1 1.91,-0.32 0.72,-0.21 1.31,-0.44 1.79,-0.7 0.48,-0.27 1.39,-0.83 2.74,-1.7l0.23 0.02zm-9.32 -4.55c2.81,-0.63 4.7,-1.59 5.67,-2.89 0.97,-1.31 1.46,-2.52 1.46,-3.66 0,-0.65 -0.19,-1.15 -0.57,-1.51 -0.38,-0.35 -0.84,-0.53 -1.4,-0.53 -1.1,0 -2.06,0.58 -2.87,1.75 -0.81,1.16 -1.58,3.45 -2.29,6.84zm17.85 1.33l-0.53 -0.37c0.08,-0.65 0.27,-2.46 0.57,-5.4l0.79 -8.21c0.24,-2.51 0.4,-4.45 0.46,-5.81 2.27,-0.38 4.19,-0.78 5.73,-1.2l0.47 0.37 -3.96 12.84c-1.09,3.5 -1.72,5.75 -1.91,6.75l-1.62 1.03zm-3.04 6c0,-0.7 0.13,-1.32 0.38,-1.86 0.26,-0.53 0.6,-0.95 1.03,-1.26 0.43,-0.31 0.95,-0.47 1.59,-0.47 0.79,0 1.41,0.23 1.83,0.68 0.43,0.45 0.64,1.06 0.64,1.81 0,0.87 -0.26,1.68 -0.78,2.46 -0.52,0.77 -1.31,1.15 -2.38,1.15 -1.54,0 -2.31,-0.83 -2.31,-2.51z"></path> </g> </g> </svg> 