<?xml version="1.0" encoding="UTF-8"?> <!-- Creator: CorelDRAW 2018 (64-Bit) --> <svg xmlns="http://www.w3.org/2000/svg" xmlns:xlink="http://www.w3.org/1999/xlink" xml:space="preserve" width="1.05833E+06px" height="1.05833E+06px" style="shape-rendering:geometricPrecision; text-rendering:geometricPrecision; image-rendering:optimizeQuality; fill-rule:evenodd; clip-rule:evenodd" viewBox="0 0 293021.81 293021.81"> <defs> <style type="text/css"> <![CDATA[ .fil0 {fill:black} ]]> </style> </defs> <g id="Слой_x0020_1"> <metadata id="CorelCorpID_0Corel-Layer"></metadata> <path class="fil0" d="M236184.84 200157.73l42447.39 -13.19 0 78487.69 -58211.62 0 15764.23 -78474.5zm-221795.26 -13.19l42514.17 0 15639.75 78499.23 -58153.92 -11.54 0 -78487.69zm139316.32 -185754.96l124926.33 0 0 171365.38 -50363.1 0c-8086.77,0 -17068.82,-5287.58 -21681.23,-9059.54 -29711.12,-24296.17 -45340.56,-81716.8 -49558.1,-119191.52 -563.87,-5011.83 -899.81,-8839.43 -1466.16,-14231.3 -376.33,-3581.11 -1187.11,-9974.19 -1229.56,-13813.75 -65.95,-5940.08 -628.18,-9481.62 -628.18,-15069.27zm-88953.22 171365.38l-50363.1 0 0 -171365.38 124926.74 0c0,43721.88 -13082.52,112864.4 -38115.68,146331.39 -7918.18,10586.29 -21209.27,25033.99 -36447.96,25033.99zm-64752.68 -179214.32l0 279940.53c0,3674.68 2865.96,6540.64 6540.64,6540.64l75217.79 0c11073.09,0 4587.68,-18593.1 2670.58,-28179.42 -4105.83,-20528.74 -8626.32,-45996.35 -13135.69,-65352l8879.83 -2893.17c8792.02,-3546.49 14407.3,-7635 21043.57,-14276.22 16456.71,-16468.67 27373.99,-37181.66 34746.43,-59439.13 2430.28,-7337 9893.81,-30986.43 9893.81,-37853.12l1307.89 0c0,7291.24 7239.3,29871.05 9727.69,37365.08 3830.9,11537.63 8876.94,23007.25 14439.04,32653.75 8166.74,14164.52 18889.88,28933.31 33179.7,37459.47 9481.63,5656.5 13563.14,5229.88 17217.21,6983.34 -669.4,2872.97 -17005.75,81555.22 -17005.75,86990.78 0,3288.46 3252.18,6540.64 6540.64,6540.64l75217.79 0c3674.68,0 6540.64,-2865.96 6540.64,-6540.64l0 -279940.53c0,-3674.68 -2865.96,-6540.64 -6540.64,-6540.64l-279940.53 0c-3674.68,0 -6540.64,2865.96 -6540.64,6540.64z"></path> </g> </svg> 