<?xml version="1.0" encoding="UTF-8"?> <!-- Creator: CorelDRAW --> <svg xmlns="http://www.w3.org/2000/svg" xmlns:xlink="http://www.w3.org/1999/xlink" xmlns:xodm="http://www.corel.com/coreldraw/odm/2003" xml:space="preserve" width="834px" height="841px" style="shape-rendering:geometricPrecision; text-rendering:geometricPrecision; image-rendering:optimizeQuality; fill-rule:evenodd; clip-rule:evenodd" viewBox="0 0 83.55 84.22"> <defs> <style type="text/css"> <![CDATA[ .str1 {stroke:black;stroke-width:2.62;stroke-linecap:round;stroke-linejoin:round;stroke-miterlimit:22.9256} .str0 {stroke:black;stroke-width:2.62;stroke-linecap:round;stroke-linejoin:bevel;stroke-miterlimit:22.9256} .fil1 {fill:none;fill-rule:nonzero} .fil0 {fill:black;fill-rule:nonzero} ]]> </style> </defs> <g id="Слой_x0020_1"> <metadata id="CorelCorpID_0Corel-Layer"></metadata> <g id="_105553363029728"> <path class="fil0" d="M80.26 14.4c0,1.09 -0.83,1.92 -1.92,1.92 -1.08,0 -1.98,-0.83 -1.98,-1.92 0,-1.08 0.9,-1.98 1.98,-1.98 1.09,0 1.92,0.9 1.92,1.98z"></path> <path class="fil0" d="M80.26 19.64c0,1.09 -0.83,1.98 -1.92,1.98 -1.08,0 -1.98,-0.89 -1.98,-1.98 0,-1.08 0.9,-1.91 1.98,-1.91 1.09,0 1.92,0.83 1.92,1.91z"></path> <path class="fil0" d="M80.26 24.94c0,1.09 -0.83,1.98 -1.92,1.98 -1.08,0 -1.98,-0.89 -1.98,-1.98 0,-1.08 0.9,-1.98 1.98,-1.98 1.09,0 1.92,0.9 1.92,1.98z"></path> <path class="fil0" d="M80.26 30.24c0,1.03 -0.83,1.92 -1.92,1.92 -1.08,0 -1.98,-0.89 -1.98,-1.92 0,-1.08 0.9,-1.98 1.98,-1.98 1.09,0 1.92,0.9 1.92,1.98z"></path> <path class="fil0" d="M80.26 35.48c0,1.09 -0.83,1.98 -1.92,1.98 -1.08,0 -1.98,-0.89 -1.98,-1.98 0,-1.08 0.9,-1.91 1.98,-1.91 1.09,0 1.92,0.83 1.92,1.91z"></path> <path class="fil0" d="M80.26 40.78c0,1.09 -0.83,1.92 -1.92,1.92 -1.08,0 -1.98,-0.83 -1.98,-1.92 0,-1.08 0.9,-1.98 1.98,-1.98 1.09,0 1.92,0.9 1.92,1.98z"></path> <path class="fil0" d="M80.26 46.02c0,1.09 -0.83,1.98 -1.92,1.98 -1.08,0 -1.98,-0.89 -1.98,-1.98 0,-1.08 0.9,-1.92 1.98,-1.92 1.09,0 1.92,0.84 1.92,1.92z"></path> <path class="fil0" d="M80.26 51.32c0,1.09 -0.83,1.98 -1.92,1.98 -1.08,0 -1.98,-0.89 -1.98,-1.98 0,-1.08 0.9,-1.98 1.98,-1.98 1.09,0 1.92,0.9 1.92,1.98z"></path> <path class="fil0" d="M80.26 56.62c0,1.09 -0.83,1.92 -1.92,1.92 -1.08,0 -1.98,-0.83 -1.98,-1.92 0,-1.08 0.9,-1.98 1.98,-1.98 1.09,0 1.92,0.9 1.92,1.98z"></path> <path class="fil0" d="M12.36 80.32c0,1.09 -0.83,1.98 -1.92,1.98 -1.08,0 -1.98,-0.89 -1.98,-1.98 0,-1.08 0.9,-1.98 1.98,-1.98 1.09,0 1.92,0.9 1.92,1.98z"></path> <path class="fil0" d="M17.02 82.24c0,1.08 -0.89,1.98 -1.98,1.98 -1.08,0 -1.98,-0.9 -1.98,-1.98 0,-1.09 0.9,-1.98 1.98,-1.98 1.09,0 1.98,0.89 1.98,1.98z"></path> <path class="fil0" d="M21.62 80.32c0,1.09 -0.89,1.98 -1.98,1.98 -1.08,0 -1.91,-0.89 -1.91,-1.98 0,-1.08 0.83,-1.98 1.91,-1.98 1.09,0 1.98,0.9 1.98,1.98z"></path> <path class="fil0" d="M25.45 80.32c0,1.09 -0.89,1.98 -1.98,1.98 -1.08,0 -1.98,-0.89 -1.98,-1.98 0,-1.08 0.9,-1.98 1.98,-1.98 1.09,0 1.98,0.9 1.98,1.98z"></path> <path class="fil0" d="M30.05 82.24c0,1.08 -0.89,1.98 -1.98,1.98 -1.08,0 -1.91,-0.9 -1.91,-1.98 0,-1.09 0.83,-1.98 1.91,-1.98 1.09,0 1.98,0.89 1.98,1.98z"></path> <path class="fil0" d="M34.65 80.32c0,1.09 -0.89,1.98 -1.98,1.98 -1.02,0 -1.91,-0.89 -1.91,-1.98 0,-1.08 0.89,-1.98 1.91,-1.98 1.09,0 1.98,0.9 1.98,1.98z"></path> <path class="fil0" d="M38.48 80.32c0,1.09 -0.89,1.98 -1.98,1.98 -1.08,0 -1.91,-0.89 -1.91,-1.98 0,-1.08 0.83,-1.98 1.91,-1.98 1.09,0 1.98,0.9 1.98,1.98z"></path> <path class="fil0" d="M43.08 82.24c0,1.08 -0.89,1.98 -1.91,1.98 -1.09,0 -1.98,-0.9 -1.98,-1.98 0,-1.09 0.89,-1.98 1.98,-1.98 1.02,0 1.91,0.89 1.91,1.98z"></path> <path class="fil0" d="M47.68 80.32c0,1.09 -0.83,1.98 -1.91,1.98 -1.09,0 -1.98,-0.89 -1.98,-1.98 0,-1.08 0.89,-1.98 1.98,-1.98 1.08,0 1.91,0.9 1.91,1.98z"></path> <path class="fil0" d="M51.51 80.32c0,1.09 -0.89,1.98 -1.91,1.98 -1.09,0 -1.98,-0.89 -1.98,-1.98 0,-1.08 0.89,-1.98 1.98,-1.98 1.02,0 1.91,0.9 1.91,1.98z"></path> <path class="fil0" d="M56.11 82.24c0,1.08 -0.83,1.98 -1.91,1.98 -1.09,0 -1.98,-0.9 -1.98,-1.98 0,-1.09 0.89,-1.98 1.98,-1.98 1.08,0 1.91,0.89 1.91,1.98z"></path> <path class="fil0" d="M60.78 80.32c0,1.09 -0.9,1.98 -1.98,1.98 -1.09,0 -1.98,-0.89 -1.98,-1.98 0,-1.08 0.89,-1.98 1.98,-1.98 1.08,0 1.98,0.9 1.98,1.98z"></path> <line class="fil1 str0" x1="47.04" y1="67.29" x2="60.07" y2="62.05"></line> <line class="fil1 str0" x1="60.07" y1="18.81" x2="47.04" y2="24.05"></line> <polygon class="fil1 str1" points="1.31,9.17 82.24,9.17 82.24,1.31 1.31,1.31 "></polygon> <polyline class="fil1 str1" points="51.32,13.06 46.98,14.85 46.98,76.11 60.07,70.8 60.01,13.06 "></polyline> <line class="fil1 str0" x1="34.01" y1="67.29" x2="46.98" y2="62.05"></line> <line class="fil1 str0" x1="46.98" y1="18.81" x2="34.01" y2="24.05"></line> <polyline class="fil1 str1" points="38.29,13.06 33.95,14.85 33.95,76.11 46.98,70.8 46.98,13.06 "></polyline> <line class="fil1 str0" x1="20.98" y1="67.29" x2="33.95" y2="62.05"></line> <line class="fil1 str0" x1="33.95" y1="18.81" x2="20.98" y2="24.05"></line> <polyline class="fil1 str1" points="25.26,13.06 20.92,14.85 20.92,76.11 33.95,70.8 33.89,13.06 "></polyline> <line class="fil1 str0" x1="7.89" y1="67.29" x2="20.92" y2="62.05"></line> <line class="fil1 str0" x1="20.92" y1="18.81" x2="7.89" y2="24.05"></line> <polyline class="fil1 str1" points="12.17,13.06 7.89,14.85 7.89,76.11 20.92,70.8 20.85,13.06 "></polyline> <line class="fil1 str0" x1="60.14" y1="67.29" x2="73.1" y2="62.05"></line> <line class="fil1 str0" x1="73.1" y1="18.81" x2="60.14" y2="24.05"></line> <polyline class="fil1 str1" points="64.42,13.06 60.07,14.85 60.07,76.11 73.1,70.8 73.04,13.06 "></polyline> </g> </g> </svg> 