<?xml version="1.0" standalone="no"?>
<!DOCTYPE svg PUBLIC "-//W3C//DTD SVG 20010904//EN"
 "http://www.w3.org/TR/2001/REC-SVG-20010904/DTD/svg10.dtd">
<svg version="1.0" xmlns="http://www.w3.org/2000/svg"
 width="512.000000pt" height="512.000000pt" viewBox="0 0 512.000000 512.000000"
 preserveAspectRatio="xMidYMid meet">

<g transform="translate(0.000000,512.000000) scale(0.100000,-0.100000)"
fill="#000000" stroke="none">
<path d="M1318 5104 c-15 -8 -31 -26 -34 -40 -5 -20 112 -506 212 -881 l6 -23
-167 0 c-204 0 -233 -7 -300 -75 -102 -101 -102 -229 0 -330 56 -57 102 -75
189 -75 l56 0 0 -239 0 -239 -177 -4 c-177 -3 -179 -4 -244 -35 -79 -39 -150
-110 -187 -191 l-27 -57 0 -1310 0 -1310 24 -60 c33 -82 124 -173 206 -206
l60 -24 955 -3 c699 -2 970 0 1010 8 118 25 227 117 272 228 l23 57 3 633 3
632 57 -56 c69 -68 182 -145 260 -175 43 -17 78 -23 142 -24 75 0 90 3 132 28
31 18 57 44 75 75 25 42 28 56 27 132 0 67 -6 98 -26 146 -36 87 -86 161 -163
243 l-67 71 62 67 c178 189 243 389 172 524 -22 43 -38 59 -81 81 -135 71
-335 5 -523 -171 l-67 -62 -3 233 c-4 269 -13 307 -95 398 -93 104 -171 130
-390 130 l-153 0 0 240 0 240 58 0 c87 0 144 23 195 80 90 100 90 220 0 320
-63 71 -99 80 -306 80 l-169 0 6 23 c124 474 217 860 212 881 -7 27 -51 56
-84 56 -52 0 -58 -14 -180 -495 l-118 -460 -254 0 -254 0 -118 460 c-95 373
-121 463 -139 478 -26 21 -55 21 -91 1z m244 -1179 c9 -38 18 -73 18 -77 0 -5
-92 -8 -205 -8 -205 0 -206 0 -230 25 -33 32 -33 78 0 111 l25 24 187 -2 187
-3 18 -70z m568 68 c0 -5 -9 -39 -18 -78 l-18 -70 -174 0 -174 0 -18 70 c-9
39 -18 73 -18 78 0 4 95 7 210 7 116 0 210 -3 210 -7z m565 -18 c16 -15 25
-36 25 -55 0 -19 -9 -40 -25 -55 -24 -25 -25 -25 -230 -25 -113 0 -205 3 -205
6 0 7 29 123 35 142 3 9 50 12 190 12 184 0 186 0 210 -25z m-1010 -535 l61
-240 -153 0 -153 0 0 240 0 240 93 0 92 0 60 -240z m361 223 c-3 -10 -30 -117
-60 -237 -31 -121 -58 -222 -61 -224 -3 -3 -7 -3 -10 0 -5 4 -124 460 -125
476 0 1 59 2 131 2 119 0 130 -1 125 -17z m354 -223 l0 -240 -153 0 -153 0 61
240 60 240 92 0 93 0 0 -240z m-588 -499 l25 -99 -123 -483 c-68 -266 -135
-530 -150 -586 l-27 -103 -41 0 c-111 0 -533 -66 -673 -106 l-23 -6 0 653 c0
625 1 656 20 697 23 51 61 88 115 113 37 17 73 19 446 19 l407 0 24 -99z
m1109 71 c39 -20 62 -41 84 -77 29 -47 30 -51 33 -202 l3 -154 -58 37 c-245
157 -484 86 -483 -145 1 -123 71 -267 200 -404 l62 -67 -66 -72 c-37 -39 -83
-97 -102 -129 -33 -52 -40 -59 -83 -68 -74 -15 -211 -35 -215 -30 -2 2 -69
260 -148 573 l-145 568 25 99 24 99 408 0 408 0 53 -28z m-108 -486 c76 -27
154 -83 255 -183 133 -132 137 -132 236 -29 178 186 351 271 416 206 65 -65
-20 -238 -206 -416 -63 -60 -74 -76 -74 -104 0 -28 11 -44 74 -104 186 -178
271 -351 206 -416 -65 -65 -238 20 -416 206 -97 101 -109 101 -213 -4 -101
-102 -172 -158 -246 -193 -192 -92 -246 39 -103 249 17 26 74 89 125 139 124
124 124 123 -5 257 -141 146 -202 241 -205 323 -2 36 3 48 22 64 27 22 79 24
134 5z m-789 -418 c55 -216 102 -401 104 -410 4 -17 -11 -18 -208 -18 -197 0
-212 1 -208 18 59 242 204 802 208 802 3 0 50 -177 104 -392z m476 -596 c0
-72 40 -145 98 -180 42 -24 57 -27 137 -27 102 1 169 22 255 80 l50 34 0 -542
c0 -504 -2 -545 -19 -582 -23 -51 -65 -93 -116 -116 -38 -18 -90 -19 -986 -19
l-947 0 -53 28 c-39 20 -62 41 -84 77 l-30 48 0 541 0 540 50 13 c143 37 411
84 572 99 l72 6 -71 -275 c-47 -184 -68 -284 -64 -301 8 -33 63 -61 100 -52
14 3 32 16 40 29 7 12 47 154 87 314 l74 293 228 2 c125 1 239 2 254 2 26 1
26 0 104 -304 81 -317 91 -340 141 -340 33 0 77 29 84 56 4 17 -18 124 -66
310 -40 156 -71 287 -68 290 7 6 91 21 131 23 26 1 27 -1 27 -47z"/>
<path d="M3145 2055 c-50 -49 -15 -135 55 -135 41 0 80 39 80 80 0 41 -39 80
-80 80 -19 0 -40 -9 -55 -25z"/>
<path d="M1945 855 c-50 -49 -15 -135 55 -135 19 0 40 9 55 25 16 15 25 36 25
55 0 19 -9 40 -25 55 -15 16 -36 25 -55 25 -19 0 -40 -9 -55 -25z"/>
<path d="M1545 615 c-50 -49 -15 -135 55 -135 41 0 80 39 80 80 0 41 -39 80
-80 80 -19 0 -40 -9 -55 -25z"/>
<path d="M1945 455 c-50 -49 -15 -135 55 -135 41 0 80 39 80 80 0 41 -39 80
-80 80 -19 0 -40 -9 -55 -25z"/>
<path d="M4185 5095 c-16 -15 -25 -36 -25 -55 0 -19 9 -40 25 -55 15 -16 36
-25 55 -25 41 0 80 -39 80 -80 0 -19 -9 -40 -25 -55 l-24 -25 -552 0 c-404 0
-563 -3 -593 -12 -26 -8 -60 -31 -91 -63 -64 -63 -75 -100 -75 -244 0 -105 1
-113 25 -136 15 -16 36 -25 55 -25 19 0 40 9 55 25 24 23 25 31 25 135 0 104
1 112 25 135 l24 25 552 0 c404 0 563 3 593 12 86 26 166 136 166 228 0 63
-23 114 -75 165 -75 76 -173 98 -220 50z"/>
</g>
</svg>
