<?xml version="1.0" encoding="UTF-8"?> <!-- Creator: CorelDRAW 2018 (64-Bit) --> <svg xmlns="http://www.w3.org/2000/svg" xmlns:xlink="http://www.w3.org/1999/xlink" xml:space="preserve" width="267px" height="267px" style="shape-rendering:geometricPrecision; text-rendering:geometricPrecision; image-rendering:optimizeQuality; fill-rule:evenodd; clip-rule:evenodd" viewBox="0 0 10.93 10.93"> <defs> <style type="text/css"> <![CDATA[ .str0 {stroke:black;stroke-width:0.34;stroke-linecap:round;stroke-linejoin:round;stroke-miterlimit:4} .fil0 {fill:none;fill-rule:nonzero} ]]> </style> </defs> <g id="Слой_x0020_1"> <metadata id="CorelCorpID_0Corel-Layer"></metadata> <path class="fil0 str0" d="M9.74 3.25c0,0 0.38,0.71 0.34,1.02 -0.34,0 -0.69,0 -1.03,0"></path> <path class="fil0 str0" d="M1.12 3.25c0,0 -0.29,0.71 -0.25,1.02 2.38,0 4.77,0 7.16,0"></path> <line class="fil0 str0" x1="2.39" y1="3.42" x2="2.39" y2="2.73"></line> <path class="fil0 str0" d="M9.74 1.71c0,0 0.38,0.72 0.34,1.02 -0.34,0 -0.69,0 -1.03,0"></path> <path class="fil0 str0" d="M1.12 1.71c0,0 -0.29,0.72 -0.25,1.02 2.38,0 4.77,0 7.16,0"></path> <line class="fil0 str0" x1="2.39" y1="1.88" x2="2.39" y2="1.19"></line> <path class="fil0 str0" d="M9.74 6.32c0,0 0.38,0.72 0.34,1.03 -0.34,0 -0.69,0 -1.03,0"></path> <path class="fil0 str0" d="M1.12 6.32c0,0 -0.29,0.72 -0.25,1.03 2.38,0 4.77,0 7.16,0"></path> <line class="fil0 str0" x1="2.39" y1="6.5" x2="2.39" y2="5.81"></line> <path class="fil0 str0" d="M9.73 4.78c0,0 0.38,0.72 0.34,1.03 -0.34,0 -0.68,0 -1.02,0"></path> <path class="fil0 str0" d="M1.11 4.78c0,0 -0.29,0.72 -0.25,1.03 2.39,0 4.78,0 7.17,0"></path> <line class="fil0 str0" x1="2.39" y1="4.96" x2="2.39" y2="4.27"></line> <path class="fil0 str0" d="M9.73 9.4c0,0 0.38,0.71 0.34,1.02 -0.17,0 -0.34,0 -0.52,0"></path> <path class="fil0 str0" d="M1.12 9.4c0,0 -0.3,0.71 -0.26,1.02 2.22,0 4.45,0 6.67,0"></path> <line class="fil0 str0" x1="2.39" y1="9.57" x2="2.39" y2="8.88"></line> <path class="fil0 str0" d="M9.73 7.86c0,0 0.38,0.72 0.34,1.02 -0.34,0 -0.68,0 -1.02,0"></path> <path class="fil0 str0" d="M1.12 7.86c0,0 -0.3,0.72 -0.26,1.02 2.39,0 4.78,0 7.17,0"></path> <line class="fil0 str0" x1="2.39" y1="8.03" x2="2.39" y2="7.34"></line> <polygon class="fil0 str0" points="0.17,1.2 10.76,1.2 10.76,0.17 0.17,0.17 "></polygon> <line class="fil0 str0" x1="8.54" y1="0.68" x2="8.54" y2="9.74"></line> <path class="fil0 str0" d="M9.05 10.25c0,0.28 -0.23,0.51 -0.51,0.51 -0.28,0 -0.51,-0.23 -0.51,-0.51 0,-0.28 0.23,-0.51 0.51,-0.51 0.28,0 0.51,0.23 0.51,0.51z"></path> <line class="fil0 str0" x1="8.2" y1="0.68" x2="8.88" y2="0.68"></line> </g> </svg> 