<?xml version="1.0" encoding="UTF-8"?> <!-- Creator: CorelDRAW 2018 (64-Bit) --> <svg xmlns="http://www.w3.org/2000/svg" xmlns:xlink="http://www.w3.org/1999/xlink" xml:space="preserve" width="267px" height="266px" style="shape-rendering:geometricPrecision; text-rendering:geometricPrecision; image-rendering:optimizeQuality; fill-rule:evenodd; clip-rule:evenodd" viewBox="0 0 21.5 21.48"> <defs> <style type="text/css"> <![CDATA[ .str0 {stroke:black;stroke-width:0.67;stroke-linecap:round;stroke-linejoin:round;stroke-miterlimit:4} .fil0 {fill:none;fill-rule:nonzero} ]]> </style> </defs> <g id="Слой_x0020_1"> <metadata id="CorelCorpID_0Corel-Layer"></metadata> <polyline class="fil0 str0" points="5.37,4.02 5.37,21.15 2.69,21.15 2.69,4.04 "></polyline> <polyline class="fil0 str0" points="8.06,4.02 8.06,21.15 5.37,21.15 5.37,4.04 "></polyline> <polyline class="fil0 str0" points="10.75,4.02 10.75,21.15 8.06,21.15 8.06,4.04 "></polyline> <polyline class="fil0 str0" points="13.44,4.02 13.44,21.15 10.75,21.15 10.75,4.04 "></polyline> <polyline class="fil0 str0" points="16.12,4.02 16.12,21.15 13.44,21.15 13.44,4.04 "></polyline> <polyline class="fil0 str0" points="18.81,4.02 18.81,21.15 16.12,21.15 16.12,4.04 "></polyline> <path class="fil0 str0" d="M5.37 16.04c0,0.75 -0.6,1.36 -1.34,1.36 -0.74,0 -1.34,-0.61 -1.34,-1.36"></path> <path class="fil0 str0" d="M5.37 18.61c-0.4,0.22 -0.85,0.34 -1.34,0.34 -0.48,0 -0.94,-0.12 -1.34,-0.34"></path> <path class="fil0 str0" d="M16.12 16.04c0,0.75 0.6,1.36 1.35,1.36 0.74,0 1.34,-0.61 1.34,-1.36"></path> <path class="fil0 str0" d="M16.12 18.61c0.4,0.22 0.86,0.34 1.35,0.34 0.48,0 0.94,-0.12 1.34,-0.34"></path> <path class="fil0 str0" d="M8.06 5.56c0,0.75 -0.6,1.36 -1.34,1.36 -0.74,0 -1.35,-0.61 -1.35,-1.36"></path> <path class="fil0 str0" d="M8.06 8.14c-0.4,0.21 -0.86,0.33 -1.34,0.33 -0.49,0 -0.94,-0.12 -1.35,-0.33"></path> <path class="fil0 str0" d="M10.75 8.28c0,0.75 -0.6,1.36 -1.35,1.36 -0.74,0 -1.34,-0.61 -1.34,-1.36"></path> <path class="fil0 str0" d="M10.75 10.85c-0.4,0.22 -0.86,0.34 -1.35,0.34 -0.48,0 -0.94,-0.12 -1.34,-0.34"></path> <path class="fil0 str0" d="M13.44 5.56c0,0.75 0.6,1.36 1.34,1.36 0.74,0 1.34,-0.61 1.34,-1.36"></path> <path class="fil0 str0" d="M13.44 8.14c0.4,0.21 0.85,0.33 1.34,0.33 0.48,0 0.94,-0.12 1.34,-0.33"></path> <path class="fil0 str0" d="M10.75 8.28c0,0.75 0.6,1.36 1.34,1.36 0.74,0 1.35,-0.61 1.35,-1.36"></path> <path class="fil0 str0" d="M10.75 10.85c0.4,0.22 0.86,0.34 1.34,0.34 0.49,0 0.94,-0.12 1.35,-0.34"></path> <polygon class="fil0 str0" points="0.34,3.02 21.16,3.02 21.16,0.34 0.34,0.34 "></polygon> </g> </svg> 