<?xml version="1.0" encoding="UTF-8"?> <!-- Creator: CorelDRAW 2021.5 --> <svg xmlns="http://www.w3.org/2000/svg" xmlns:xlink="http://www.w3.org/1999/xlink" xmlns:xodm="http://www.corel.com/coreldraw/odm/2003" xml:space="preserve" width="500px" height="412px" style="shape-rendering:geometricPrecision; text-rendering:geometricPrecision; image-rendering:optimizeQuality; fill-rule:evenodd; clip-rule:evenodd" viewBox="0 0 562.87 463.66"> <defs> <style type="text/css"> <![CDATA[ .fil0 {fill:black;fill-rule:nonzero} ]]> </style> </defs> <g id="Слой_x0020_1"> <metadata id="CorelCorpID_0Corel-Layer"></metadata> <g id="_105553153588896"> <g> <path class="fil0" d="M544.11 65.67l-56.29 0c-12.19,0 -24.39,-5.63 -33.77,-14.07l-45.03 -38.47c-9.38,-7.5 -21.58,-13.13 -33.77,-13.13l-109.76 0c-14.07,0 -27.21,5.63 -37.53,15.95l-58.16 47.84c-4.69,3.75 -4.69,11.26 -0.94,15.95l17.83 16.89c12.19,9.38 28.14,11.25 40.33,2.81l51.6 -30.96c6.57,-4.69 15.95,-2.81 21.58,2.82l162.29 157.6c3.75,3.75 6.57,9.38 6.57,15.01l0 42.22c0,11.25 8.44,23.45 18.76,23.45l56.29 0c10.32,0 18.76,-8.44 18.76,-19.7l0 -205.45c0,-11.26 -8.44,-18.76 -18.76,-18.76zm-159.48 168.86l-101.32 -98.5 -28.14 16.88c-14.07,8.45 -30.02,13.14 -45.97,13.14 -19.7,0 -40.34,-7.51 -56.29,-20.64l-36.58 -30.02c-8.45,-6.57 -13.14,-14.07 -14.08,-24.39 -1.87,-10.32 -9.38,-15.95 -18.76,-15.95l-64.73 0c-10.32,0 -18.76,5.63 -18.76,16.89l0 170.73c0,11.26 8.44,18.77 18.76,18.77l37.53 0c2.81,0 6.56,-10.32 10.32,-15.01 14.07,-18.77 34.71,-29.09 57.22,-31.9 22.52,-1.88 44.09,5.63 61.92,21.58l117.26 106.94c10.32,9.38 17.83,19.7 22.52,32.84 2.81,6.56 10.32,8.44 15.01,3.75l44.09 -44.09c22.51,-22.52 39.4,-75.05 18.76,-99.44l-18.76 -21.58zm-235.47 69.42c-12.2,-11.26 -30.02,-9.38 -39.4,3.75 -10.32,13.14 -8.44,31.9 3.75,43.16l117.27 106c5.63,5.63 13.13,7.51 20.64,6.57 7.5,-0.94 14.07,-4.69 18.76,-11.26 10.32,-13.13 8.44,-31.89 -3.75,-43.15l-117.27 -105.07z"></path> </g> </g> </g> </svg> 