<?xml version="1.0" encoding="UTF-8"?> <!-- Creator: CorelDRAW --> <svg xmlns="http://www.w3.org/2000/svg" xmlns:xlink="http://www.w3.org/1999/xlink" xmlns:xodm="http://www.corel.com/coreldraw/odm/2003" xml:space="preserve" width="813px" height="291px" style="shape-rendering:geometricPrecision; text-rendering:geometricPrecision; image-rendering:optimizeQuality; fill-rule:evenodd; clip-rule:evenodd" viewBox="0 0 1114.56 399.02"> <defs> <style type="text/css"> <![CDATA[ .fil0 {fill:white} ]]> </style> </defs> <g id="logo_blitz_white_x0020_1"> <metadata id="CorelCorpID_0Corel-Layer"></metadata> <g id="_105553199769664"> <path class="fil0" d="M374.26 130.21l-240.65 142.74c0,0 -6.19,4.97 -11.02,0.79 -5.89,-5.1 -0.98,-13.56 -0.98,-13.56l77.85 -122.1 172.82 -18.87c0,0 4.71,-0.95 6.29,4.34 1.17,3.92 -4.31,6.66 -4.31,6.66l0 0zm66.84 -31.85c-3.73,-10.52 -21.04,-8.64 -21.04,-8.64l-206.24 24.39c0,0 -9.43,1.96 -11.39,-1.98 -1.85,-3.66 1.96,-6.27 1.96,-6.27l211.14 -82.2c0,0 10.23,-3.63 5.92,-16.12 -3.54,-10.23 -16.92,-7.08 -16.92,-7.08 0,0 -251.65,98.32 -260.3,102.63 -8.66,4.32 -15.01,12.23 -13.76,22.6 1.56,13.18 19.25,16.32 19.25,16.32 0,0 2.76,1.97 4.33,5.51 1.56,3.54 1.56,4.91 0,9.44 -1.57,4.51 -3.52,8.84 -3.52,8.84 0,0 -67.66,111.87 -72.77,119.74 -5.1,7.87 -3.7,21.51 3.74,27.13 10.42,7.87 24.58,2.37 36.58,-4.12 11.98,-6.48 318.69,-189.34 318.69,-189.34 0,0 9.05,-7.46 4.33,-20.85z"></path> <path class="fil0" d="M348.71 237.17c-9.05,-9.83 0.78,-17.3 0.78,-17.3l162 -124.24c0,0 11.66,-10.32 19.27,-3.54 6.84,6.08 3.14,15.33 3.14,15.33l-19.45 49.54 21.82 -17.3c0,0 8.79,-6.25 15.33,0.77 7.67,8.27 0,16.53 0,16.53l-39.32 32.24c0,0 -10.64,10.23 -26.36,3.15 -8.73,-3.94 -4.31,-19.26 -4.31,-19.26l11.01 -34.21 -127.02 98.29c0,0 -10.06,7.42 -16.89,0l0 0z"></path> <path class="fil0" d="M588.16 132.39l-9.06 5.99c0,0 -8.26,7.08 -16.22,-1.18 -7.36,-7.67 0.89,-16.82 0.89,-16.82l45.63 -33.02c0,0 9.35,-7.26 15.91,-2.66 8.85,6.21 2.95,18.88 2.95,18.88l-18.28 46.9 93.48 -71.68c0,0 16.23,-15.03 23.9,-6.19 7.66,8.85 -1.19,23.59 -1.19,23.59l-15.03 40.12 22.41 -15.63c0,0 14.29,-11.91 21.52,-3.83 7.68,8.54 -0.58,16.5 -0.58,16.5l-50.14 39.23c0,0 -9.44,7.07 -22.12,0.3 -10.94,-5.87 -5.02,-20.37 -5.02,-20.37l10.34 -32.43 -81.69 63.41c0,0 -10.33,9.14 -24.4,2.35 -8.83,-4.26 -5.1,-16.5 -5.1,-16.5l11.8 -36.96 0 0z"></path> <path class="fil0" d="M795.79 113.23l-12.6 6.19c0,0 -9.68,7.19 -16.81,-2.66 -6.19,-8.56 5.02,-16.81 5.02,-16.81l45.91 -31.76c0,0 11.21,-7.96 17.71,-0.29 6.48,7.66 -0.6,22.11 -0.6,22.11l-16.8 41.29 100.84 -76.67c0,0 10.61,-9.74 18.29,-2.07 7.66,7.67 3.84,16.8 3.84,16.8l-19.18 46.61 21.82 -17.31c0,0 2.95,-2.46 8.85,-2.46 5.9,0 11.2,7.67 11.2,7.67l25.37 33.62c0,0 3.84,3.55 2.37,10.62 -1.59,7.5 -7.98,9.73 -7.98,9.73l-103.21 62.23c0,0 -12.29,6.6 -17.98,-2.36 -6.79,-10.62 4.11,-18.28 4.11,-18.28l96.44 -57.52 -12.97 -16.51 -37.15 27.12c0,0 -11.49,8.83 -20.65,3.84 -10.32,-5.59 -3.24,-22.11 -3.24,-22.11l11.2 -36.37 -82.87 64.98c0,0 -15.34,14.45 -26.24,7.07 -12.53,-8.46 -5.32,-22.41 -5.32,-22.41l10.63 -34.29 0 0z"></path> <path class="fil0" d="M242.54 308l1.96 -17.75c0,0 291.99,-47.35 439.96,-57.21 147.97,-9.86 430.1,-25.66 430.1,-25.66l-0.5 6.42 -62.63 3.45 0 9.86c0,0 -165.74,11.83 -217.03,15.79 -51.29,3.95 -194.64,16.45 -313.02,40.11 -108.16,21.63 -462.33,111.8 -462.33,111.8l27.63 -57.21 155.86 -29.6z"></path> <path class="fil0" d="M183.47 312.22l1.98 -17.76c0,0 291.99,-47.35 439.96,-57.22 147.97,-9.86 430.1,-25.65 430.1,-25.65l-0.49 6.42 -62.64 3.45 0 9.87c0,0 -165.74,11.83 -217.03,15.78 -51.3,3.95 -194.64,16.45 -313.02,40.12 -108.17,21.63 -462.33,111.79 -462.33,111.79l27.62 -57.2 155.85 -29.6 0 0z"></path> </g> </g> </svg> 