<?xml version="1.0" encoding="UTF-8"?> <!-- Creator: CorelDRAW 2018 (64-Bit) --> <svg xmlns="http://www.w3.org/2000/svg" xmlns:xlink="http://www.w3.org/1999/xlink" xml:space="preserve" width="300px" height="297px" style="shape-rendering:geometricPrecision; text-rendering:geometricPrecision; image-rendering:optimizeQuality; fill-rule:evenodd; clip-rule:evenodd" viewBox="0 0 298.07 294.87"> <defs> <style type="text/css"> <![CDATA[ .str0 {stroke:black;stroke-width:5.05;stroke-miterlimit:22.9256} .fil0 {fill:black} .fil1 {fill:black} ]]> </style> </defs> <g id="Слой_x0020_1"> <metadata id="CorelCorpID_0Corel-Layer"></metadata> <path class="fil0" d="M207.31 93.72l27.32 0 0 183.48 -27.32 0 0 -183.48zm-114.11 -74.69l0 17.67 96.45 0 0 28.11 -96.45 0 0 17.66 96.45 0 0 204.37c0,5.01 4.44,8.03 9.63,8.03l43.37 0c5.19,0 9.65,-3.02 9.65,-8.03l0 -204.37 37.74 0c10.52,0 11.14,-17.66 -0.79,-17.66l-36.95 0 0 -28.11 37.74 0c10.52,0 11.14,-17.67 -0.79,-17.67l-36.95 0c0,-5.35 -0.61,-11.25 -9.65,-11.25l-43.37 0c-9.02,0 -9.63,5.9 -9.63,11.25l-96.45 0zm114.11 6.41l27.32 0 0 50.62 -27.32 0 0 -50.62z"></path> <path class="fil0" d="M62.41 0c26.47,0 47.94,22.4 47.94,50.06 0,27.64 -21.47,50.06 -47.94,50.06 -26.5,0 -47.97,-22.42 -47.97,-50.06 0,-27.66 21.47,-50.06 47.97,-50.06zm0 15.83c18.1,0 32.78,15.32 32.78,34.23 0,18.91 -14.68,34.23 -32.78,34.23 -18.13,0 -32.81,-15.32 -32.81,-34.23 0,-18.91 14.68,-34.23 32.81,-34.23z"></path> <path class="fil0" d="M62.41 23.92c13.81,0 25.03,11.71 25.03,26.14 0,14.43 -11.22,26.12 -25.03,26.12 -13.84,0 -25.03,-11.69 -25.03,-26.12 0,-14.43 11.19,-26.14 25.03,-26.14zm0 8.28c9.43,0 17.11,7.99 17.11,17.86 0,9.87 -7.68,17.86 -17.11,17.86 -9.46,0 -17.12,-7.99 -17.12,-17.86 0,-9.87 7.66,-17.86 17.12,-17.86z"></path> <circle class="fil0" cx="62.41" cy="50.06" r="11.43"></circle> <rect class="fil0" x="100.46" y="46.31" width="99.88" height="8.86"></rect> <path class="fil1 str0" d="M17.81 66.01c-8.45,0 -15.28,-7.13 -15.28,-15.94 0,-8.81 6.83,-15.96 15.28,-15.96l0 5.05c-5.77,0 -10.45,4.88 -10.45,10.91 0,6.02 4.68,10.9 10.45,10.9l0 5.04z"></path> </g> </svg> 