<?xml version="1.0" encoding="UTF-8"?> <!-- Creator: CorelDRAW 2018 (64-Bit) --> <svg xmlns="http://www.w3.org/2000/svg" xmlns:xlink="http://www.w3.org/1999/xlink" xml:space="preserve" width="246px" height="267px" style="shape-rendering:geometricPrecision; text-rendering:geometricPrecision; image-rendering:optimizeQuality; fill-rule:evenodd; clip-rule:evenodd" viewBox="0 0 26.93 29.21"> <defs> <style type="text/css"> <![CDATA[ .str0 {stroke:black;stroke-width:0.91;stroke-linecap:round;stroke-linejoin:round;stroke-miterlimit:4} .str1 {stroke:black;stroke-width:0.91;stroke-linecap:round;stroke-linejoin:round;stroke-miterlimit:4;stroke-dasharray:1.970000 1.970000} .fil0 {fill:none;fill-rule:nonzero} ]]> </style> </defs> <g id="Слой_x0020_1"> <metadata id="CorelCorpID_0Corel-Layer"></metadata> <polyline class="fil0 str0" points="26.47,23.89 26.47,28.76 3.2,28.76 3.2,25.56 "></polyline> <polyline class="fil0 str0" points="3.2,15.98 3.2,0.46 26.47,0.46 26.47,15.98 "></polyline> <polyline class="fil0 str0" points="25.95,19.51 25.2,24.19 1.83,24.19 2.31,21.46 "></polyline> <polygon class="fil0 str0" points="23.73,20.08 0.46,20.08 3.2,15.97 26.47,15.97 "></polygon> <line class="fil0 str0" x1="19.59" y1="24.19" x2="19.6" y2="25.1"></line> <line class="fil0 str0" x1="19.62" y1="27.84" x2="19.63" y2="28.76"></line> <line class="fil0 str0" x1="19.63" y1="0.46" x2="19.63" y2="1.37"></line> <line class="fil0 str1" x1="19.63" y1="3.33" x2="19.63" y2="14.08"></line> <line class="fil0 str0" x1="19.63" y1="15.06" x2="19.63" y2="15.97"></line> <line class="fil0 str0" x1="18.72" y1="20.18" x2="18.64" y2="21.09"></line> <line class="fil0 str0" x1="18.44" y1="23.28" x2="18.36" y2="24.19"></line> <line class="fil0 str0" x1="19.63" y1="15.97" x2="19.12" y2="16.73"></line> <line class="fil0 str0" x1="17.39" y1="19.32" x2="16.89" y2="20.08"></line> <line class="fil0 str0" x1="10" y1="24.19" x2="10.01" y2="25.1"></line> <line class="fil0 str0" x1="10.03" y1="27.84" x2="10.04" y2="28.76"></line> <line class="fil0 str0" x1="10.04" y1="0.46" x2="10.04" y2="1.37"></line> <line class="fil0 str1" x1="10.04" y1="3.33" x2="10.04" y2="14.08"></line> <line class="fil0 str0" x1="10.04" y1="15.06" x2="10.04" y2="15.97"></line> <line class="fil0 str0" x1="9.13" y1="20.18" x2="9.05" y2="21.09"></line> <line class="fil0 str0" x1="8.85" y1="23.28" x2="8.77" y2="24.19"></line> <line class="fil0 str0" x1="10.04" y1="15.97" x2="9.53" y2="16.73"></line> <line class="fil0 str0" x1="7.81" y1="19.32" x2="7.3" y2="20.08"></line> <line class="fil0 str0" x1="25.2" y1="24.19" x2="26.47" y2="23.89"></line> <line class="fil0 str0" x1="23.73" y1="20.08" x2="25.95" y2="19.51"></line> </g> </svg> 