<?xml version="1.0" encoding="UTF-8"?> <!-- Creator: CorelDRAW 2018 (64-Bit) --> <svg xmlns="http://www.w3.org/2000/svg" xmlns:xlink="http://www.w3.org/1999/xlink" xml:space="preserve" width="290px" height="300px" style="shape-rendering:geometricPrecision; text-rendering:geometricPrecision; image-rendering:optimizeQuality; fill-rule:evenodd; clip-rule:evenodd" viewBox="0 0 271.07 280.91"> <defs> <style type="text/css"> <![CDATA[ .fil0 {fill:black} ]]> </style> </defs> <g id="Слой_x0020_1"> <metadata id="CorelCorpID_0Corel-Layer"></metadata> <g id="_1118055184"> <path class="fil0" d="M25.33 260.74l200.46 0 0 10.02 -200.46 0 0 -10.02zm0 -230.53l200.46 0 0 220.5 -200.46 0 0 -220.5zm-10.65 -10.02l-4.39 0 0 -10.03 4.39 0c2.79,0 5.64,2.54 5.64,5.02 0,2.47 -2.85,5.01 -5.64,5.01zm235.54 -10.03c2.29,0 5.21,-0.33 7.11,0.4 4.17,1.61 4.79,6.88 0.43,9.03 -1.89,0.94 -4.71,0.6 -7.54,0.6 0.66,-2.86 1.28,-7.15 0,-10.03zm-200.46 0l183.58 -0.03c4.03,0 7.48,1.35 7.48,5.05 0,7.02 -12.4,5.01 -19.42,5.01l-171.64 0c0.66,-2.86 1.28,-7.15 0,-10.03zm-20.05 0c2.14,0 10.65,-0.96 10.65,5.02 0,5.87 -8.3,5.01 -10.65,5.01 0.67,-2.86 1.29,-7.15 0,-10.03zm-14.4 268.11l1.25 0.01c0,0.02 -1.56,2.1 3.74,2.52l199.22 -0.02c16.82,0 16.29,2.39 16.29,-13.78 0,-78.93 0,-157.86 0,-236.79 3.55,0 21.41,0.35 24.07,-0.36l3.9 -1.77c1.9,-0.97 -0.13,-0.09 2.09,-1l0.01 0c1.42,-1.88 -0.01,-0.46 1.87,-1.88l0.01 0c0.9,-2.23 0.03,-0.19 1,-2.1 6.32,-12.32 -2.1,-22.93 -12.88,-22.99 -81.92,-0.47 -165.08,0.73 -246.85,0.02 -11.26,-0.1 -8.81,2.1 -8.79,23.23 0,9.08 6.16,6.85 15.07,6.85l0 248.06z"></path> <path class="fil0" d="M252.72 242.57l0 0c2.3,-2.5 4.13,-2.56 6.47,-0.21 2.23,2.22 1.68,4.37 1.68,8.35l-10.03 0c0,-4.35 -0.81,-5.74 1.88,-8.14zm-11.9 1.88c0,19.33 -3.14,16.29 25.06,16.29 6.67,0 5.01,-7.95 5.01,-16.29 0,-7.67 -6.58,-13.78 -16.29,-13.78 -6.89,0 -13.78,6.89 -13.78,13.78z"></path> <path class="fil0" d="M250.84 42.74l1.25 0c0.02,0.7 -1.15,0.98 1.63,2.14 1.43,0.59 2.82,0.55 4.23,0 2.24,-0.88 3.75,-3.69 2.55,-6.74 -0.8,-2.06 -3.24,-3.57 -6.26,-2.72 -3.29,0.93 -3.4,3.37 -3.4,7.32z"></path> <path class="fil0" d="M250.84 55.27c0,6.72 10.03,6.72 10.03,0 0,-6.73 -10.03,-6.73 -10.03,0z"></path> <path class="fil0" d="M250.84 70.3c0,6.73 10.03,6.73 10.03,0 0,-6.72 -10.03,-6.72 -10.03,0z"></path> <path class="fil0" d="M250.84 100.37c0,6.72 10.03,6.72 10.03,0 0,-6.72 -10.03,-6.72 -10.03,0z"></path> <path class="fil0" d="M250.84 115.41c0,6.72 10.03,6.72 10.03,0 0,-6.73 -10.03,-6.73 -10.03,0z"></path> <path class="fil0" d="M250.84 145.47c0,6.73 10.03,6.73 10.03,0 0,-6.72 -10.03,-6.72 -10.03,0z"></path> <path class="fil0" d="M250.84 160.51c0,6.72 10.03,6.72 10.03,0 0,-6.73 -10.03,-6.73 -10.03,0z"></path> <path class="fil0" d="M250.84 190.58c0,6.72 10.03,6.72 10.03,0 0,-6.73 -10.03,-6.73 -10.03,0z"></path> <path class="fil0" d="M250.84 205.61c0,6.73 10.03,6.73 10.03,0 0,-6.72 -10.03,-6.72 -10.03,0z"></path> <path class="fil0" d="M250.84 85.34c0,6.72 10.03,6.72 10.03,0 0,-6.73 -10.03,-6.73 -10.03,0z"></path> <path class="fil0" d="M250.84 130.44c0,6.72 10.03,6.72 10.03,0 0,-6.72 -10.03,-6.72 -10.03,0z"></path> <path class="fil0" d="M250.84 175.54c0,6.73 10.03,6.73 10.03,0 0,-6.72 -10.03,-6.72 -10.03,0z"></path> <path class="fil0" d="M250.84 220.65c0,6.72 10.03,6.72 10.03,0 0,-6.73 -10.03,-6.73 -10.03,0z"></path> <polygon class="fil0" points="267.76,25.2 267.75,25.2 "></polygon> <polygon class="fil0" points="265.88,27.08 265.87,27.08 "></polygon> <polygon class="fil0" points="252.09,42.74 250.84,42.74 "></polygon> <polygon class="fil0" points="252.72,242.57 252.72,242.57 "></polygon> <polygon class="fil0" points="16.56,278.28 15.31,278.27 "></polygon> </g> </g> </svg> 